<svg width="200" height="200" viewBox="0 0 200 200" fill="none" xmlns="http://www.w3.org/2000/svg">
<g clip-path="url(#clip0_592_8408)">
<path d="M82.9803 108.57C62.0903 124.37 32.9203 147.34 20.0703 157.14C22.9003 160.27 26.4503 163.66 30.3703 167.12C44.2603 155.86 74.0103 131.51 92.9303 114.35C89.3103 112.01 85.6503 109.95 82.9703 108.56L82.9803 108.57Z" fill="#EDD45B"/>
<path d="M79.2603 106.82C76.1603 105.76 14.5802 143.26 14.5802 143.26C11.7002 145.78 14.4602 150.94 20.0702 157.14C32.9202 147.34 62.0903 124.37 82.9803 108.57C81.2003 107.65 79.8503 107.02 79.2603 106.82Z" fill="#CA7A8C"/>
<path d="M92.9409 114.36C74.0209 131.52 44.2709 155.87 30.3809 167.13C34.7409 170.98 39.5609 174.91 44.3509 178.65C56.3009 166.53 83.0409 138.91 98.9709 118.63C97.1109 117.16 95.0409 115.72 92.9509 114.36H92.9409Z" fill="#DB9A41"/>
<path d="M60.4512 190.68C66.9612 195.34 71.8812 198.65 73.1712 199.43C78.3312 202.57 105.961 134.88 106.031 127.68C106.051 126.14 104.961 124.34 103.231 122.47C89.6412 146.07 68.0112 179.21 60.4612 190.68H60.4512Z" fill="#9E82DC"/>
<path d="M98.9598 118.62C83.0298 138.9 56.2898 166.52 44.3398 178.64C50.0298 183.08 55.6698 187.24 60.4498 190.67C67.9998 179.19 89.6298 146.06 103.22 122.46C102.05 121.2 100.58 119.9 98.9498 118.62H98.9598Z" fill="#5DA9CD"/>
<path d="M20.0697 157.64C19.9197 157.64 19.7697 157.57 19.6697 157.44C19.4997 157.22 19.5397 156.91 19.7597 156.74C22.2197 154.85 76.9997 112.92 88.7197 104.67C89.7297 103.55 90.4497 103.49 90.6097 103.49C90.8297 103.49 91.0297 103.64 91.0897 103.85C91.1497 104.06 91.0697 104.29 90.8797 104.41C90.5397 104.63 90.0297 104.97 89.3897 105.42C89.2097 105.62 89.0197 105.87 88.8097 106.18C88.6597 106.41 88.3497 106.46 88.1297 106.32C74.2197 116.31 20.9597 157.09 20.3697 157.54C20.2797 157.61 20.1697 157.64 20.0697 157.64Z" fill="#261D2A"/>
<path d="M30.3711 167.63C30.2211 167.63 30.0811 167.57 29.9811 167.45C29.8111 167.24 29.8411 166.92 30.0511 166.75C30.6611 166.25 91.4211 116.9 94.3611 113.47C94.5411 113.26 94.8611 113.24 95.0711 113.42C95.2811 113.6 95.3011 113.92 95.1211 114.12C92.1211 117.61 33.1911 165.49 30.6811 167.53C30.5911 167.61 30.4811 167.64 30.3611 167.64L30.3711 167.63Z" fill="#261D2A"/>
<path d="M44.3402 179.15C44.2202 179.15 44.0902 179.1 44.0002 179.01C43.8002 178.82 43.7902 178.5 43.9802 178.3C44.4802 177.77 94.3702 125.38 98.7902 115.57C98.9002 115.32 99.2002 115.21 99.4502 115.32C99.7002 115.43 99.8102 115.73 99.7002 115.98C95.2202 125.94 46.7602 176.82 44.7002 178.99C44.6002 179.09 44.4702 179.14 44.3402 179.14V179.15Z" fill="#261D2A"/>
<path d="M60.4512 191.18C60.3612 191.18 60.2712 191.16 60.1812 191.1C59.9512 190.95 59.8812 190.64 60.0212 190.41C60.4312 189.76 101.371 124.92 106.311 117.01C106.461 116.78 106.771 116.71 107.001 116.85C107.231 117 107.311 117.3 107.161 117.54C102.221 125.45 61.2812 190.28 60.8712 190.94C60.7812 191.09 60.6112 191.17 60.4512 191.17V191.18Z" fill="#261D2A"/>
<path d="M16.7599 86.6598C16.3899 86.6598 16.0399 86.6598 15.0499 82.7398C11.7299 82.0998 11.4299 81.7098 11.3399 81.5798C11.2499 81.4598 11.2099 81.2298 11.2499 81.0798C11.3099 80.8698 11.4499 80.3798 15.2499 78.8498C16.6099 75.2998 17.0699 75.2998 17.3799 75.2998C17.5399 75.2998 17.7599 75.4098 17.8499 75.5398C18.0899 75.8698 18.3099 76.7198 18.6499 78.0798C18.7599 78.5098 18.8799 79.0198 18.9599 79.2498C19.1599 79.3398 19.5999 79.4998 19.9599 79.6298C21.9099 80.3298 22.4199 80.5698 22.5099 81.0298C22.5399 81.1998 22.4599 81.4598 22.3199 81.5698C21.9199 81.9298 20.0299 82.6298 19.0499 82.9798C17.4399 86.6398 17.0999 86.6598 16.7999 86.6698C16.7999 86.6698 16.7799 86.6698 16.7699 86.6698L16.7599 86.6598ZM12.6099 81.1498C13.2699 81.3398 14.4899 81.6198 15.5499 81.8198C15.7399 81.8598 15.8999 81.9998 15.9399 82.1898C16.2099 83.2898 16.5699 84.5398 16.8199 85.2498C17.1899 84.5898 17.7499 83.4098 18.1999 82.3698C18.2599 82.2398 18.3599 82.1398 18.4899 82.0998C19.3999 81.7798 20.4199 81.3898 21.0599 81.1098C20.6099 80.9198 19.9999 80.6998 19.5999 80.5598C18.4899 80.1598 18.2799 80.0698 18.1399 79.8798C18.0199 79.7098 17.9399 79.4298 17.6599 78.3098C17.5499 77.8798 17.3899 77.2198 17.2499 76.7398C16.9199 77.3698 16.4499 78.4498 16.0899 79.4098C16.0399 79.5398 15.9399 79.6498 15.8099 79.6998C14.6299 80.1698 13.2899 80.7698 12.5999 81.1598L12.6099 81.1498Z" fill="#261D2A"/>
<path d="M117.84 12.3698C117.47 12.3698 117.12 12.3698 116.13 8.44977C112.81 7.80977 112.51 7.41977 112.42 7.28977C112.33 7.16977 112.29 6.93977 112.33 6.78977C112.39 6.57977 112.53 6.08977 116.33 4.55977C117.69 1.00977 118.15 1.00977 118.46 1.00977C118.62 1.00977 118.84 1.11977 118.93 1.24977C119.17 1.57977 119.39 2.42977 119.73 3.78977C119.84 4.21977 119.96 4.72977 120.04 4.95977C120.24 5.04977 120.68 5.20977 121.04 5.33977C122.99 6.03977 123.5 6.27977 123.59 6.73977C123.62 6.90977 123.54 7.16977 123.4 7.27977C123 7.63977 121.11 8.33977 120.13 8.68977C118.52 12.3498 118.18 12.3698 117.88 12.3798C117.88 12.3798 117.86 12.3798 117.85 12.3798L117.84 12.3698ZM113.69 6.85977C114.35 7.04977 115.57 7.32977 116.63 7.52977C116.82 7.56977 116.98 7.70977 117.02 7.89977C117.29 8.99977 117.65 10.2498 117.9 10.9598C118.27 10.2998 118.83 9.11977 119.28 8.07977C119.34 7.94977 119.44 7.84977 119.57 7.80977C120.48 7.48977 121.5 7.09977 122.14 6.81977C121.69 6.62977 121.08 6.40977 120.68 6.26977C119.57 5.86977 119.36 5.77977 119.22 5.58977C119.1 5.41977 119.02 5.13977 118.74 4.01977C118.63 3.58977 118.47 2.92977 118.33 2.44977C118 3.07977 117.53 4.15977 117.17 5.11977C117.12 5.24977 117.02 5.35977 116.89 5.40977C115.71 5.87977 114.37 6.47977 113.68 6.86977L113.69 6.85977Z" fill="#261D2A"/>
<path d="M186.619 35.0299C186.249 35.0299 185.899 35.0299 184.909 31.1099C181.589 30.4699 181.289 30.0799 181.199 29.9499C181.109 29.8299 181.069 29.5999 181.109 29.4499C181.169 29.2399 181.309 28.7499 185.109 27.2199C186.469 23.6699 186.929 23.6699 187.239 23.6699C187.399 23.6699 187.619 23.7799 187.709 23.9099C187.949 24.2399 188.169 25.0899 188.509 26.4499C188.619 26.8799 188.739 27.3999 188.819 27.6199C189.019 27.7099 189.459 27.8699 189.829 27.9999C191.779 28.6999 192.279 28.9399 192.369 29.3999C192.399 29.5699 192.319 29.8299 192.179 29.9399C191.779 30.2899 189.899 30.9999 188.909 31.3499C187.299 35.0099 186.959 35.0299 186.659 35.0399C186.659 35.0399 186.639 35.0399 186.629 35.0399L186.619 35.0299ZM182.469 29.5199C183.129 29.7099 184.349 29.9899 185.409 30.1899C185.599 30.2299 185.759 30.3699 185.799 30.5599C186.069 31.6599 186.429 32.9199 186.679 33.6199C187.049 32.9599 187.609 31.7799 188.059 30.7399C188.119 30.6099 188.219 30.5099 188.349 30.4699C189.259 30.1499 190.279 29.7599 190.919 29.4799C190.469 29.2899 189.859 29.0699 189.469 28.9299C188.349 28.5299 188.139 28.4399 187.999 28.2499C187.879 28.0799 187.799 27.7999 187.519 26.6699C187.409 26.2399 187.249 25.5899 187.109 25.0999C186.779 25.7299 186.309 26.8099 185.949 27.7699C185.899 27.8999 185.799 28.0099 185.669 28.0599C184.489 28.5299 183.149 29.1299 182.459 29.5199H182.469Z" fill="#261D2A"/>
<path d="M179.84 164.37C179.47 164.37 179.12 164.37 178.13 160.45C174.81 159.81 174.51 159.42 174.42 159.29C174.33 159.17 174.29 158.94 174.33 158.79C174.39 158.58 174.53 158.09 178.33 156.56C179.69 153.01 180.15 153.01 180.46 153.01C180.62 153.01 180.84 153.12 180.93 153.25C181.17 153.58 181.39 154.43 181.73 155.79C181.84 156.22 181.96 156.73 182.04 156.96C182.24 157.05 182.68 157.21 183.04 157.34C184.99 158.04 185.5 158.28 185.59 158.74C185.62 158.91 185.54 159.17 185.4 159.28C185 159.64 183.11 160.34 182.13 160.69C180.52 164.35 180.18 164.37 179.88 164.38C179.88 164.38 179.86 164.38 179.85 164.38L179.84 164.37ZM175.69 158.86C176.35 159.05 177.57 159.33 178.63 159.53C178.82 159.57 178.98 159.71 179.02 159.9C179.29 161 179.65 162.25 179.9 162.96C180.27 162.3 180.83 161.12 181.28 160.08C181.34 159.95 181.44 159.85 181.57 159.81C182.48 159.49 183.5 159.1 184.14 158.82C183.69 158.63 183.08 158.41 182.68 158.27C181.57 157.87 181.36 157.78 181.22 157.59C181.1 157.42 181.02 157.14 180.74 156.02C180.63 155.59 180.47 154.93 180.33 154.45C180 155.08 179.53 156.16 179.17 157.12C179.12 157.25 179.02 157.36 178.89 157.41C177.71 157.88 176.37 158.48 175.68 158.87L175.69 158.86Z" fill="#261D2A"/>
<path d="M146.559 28.92C145.619 28.92 144.159 26.18 142.229 20.78C142.169 20.61 142.209 20.41 142.329 20.28C145.619 16.63 150.469 11.14 152.729 8.36C149.689 10.55 143.349 15.53 139.129 18.9C139.019 18.99 138.879 19.02 138.739 19C137.879 18.87 133.569 18.15 132.779 16.73C132.709 16.61 132.619 16.35 132.809 16.02C134.079 13.86 152.619 6.25 154.299 6.25C154.329 6.25 154.379 6.25 154.429 6.26C154.459 6.26 154.479 6.26 154.509 6.27C154.519 6.27 154.529 6.27 154.539 6.27C154.539 6.27 154.599 6.29 154.629 6.31C154.629 6.31 154.629 6.31 154.639 6.31C154.679 6.33 154.719 6.36 154.759 6.39C155.039 6.64 155.159 6.94 154.319 9.81C153.689 11.98 148.149 28.64 146.669 28.89C146.639 28.89 146.579 28.9 146.549 28.9L146.559 28.92ZM143.269 20.72C144.369 23.76 145.819 27.08 146.499 27.81C147.699 26.01 152.209 13.76 153.579 8.86C152.139 10.7 149.189 14.15 143.269 20.72ZM133.769 16.39C134.429 17.04 136.889 17.68 138.669 17.97C143.149 14.39 148.239 10.39 151.399 8.11C146.029 10.11 135.089 14.95 133.769 16.39Z" fill="#261D2A"/>
<path d="M141.169 26.6095C140.989 26.6095 140.849 26.5495 140.749 26.4895C140.039 26.0295 139.069 22.0395 138.389 18.7695C138.329 18.4995 138.509 18.2295 138.779 18.1795C139.039 18.1195 139.319 18.2995 139.369 18.5695C139.979 21.4695 140.839 24.8095 141.259 25.5695C141.669 25.3195 142.579 24.2095 143.319 23.0195C143.469 22.7895 143.779 22.7195 144.009 22.8595C144.239 23.0095 144.309 23.3195 144.169 23.5495C143.639 24.3995 142.299 26.3795 141.369 26.5895C141.299 26.6095 141.239 26.6095 141.169 26.6095Z" fill="#261D2A"/>
<path d="M176.071 145.04C175.131 145.04 173.671 142.3 171.741 136.9C171.681 136.73 171.721 136.53 171.841 136.4C175.131 132.75 179.981 127.26 182.241 124.48C179.201 126.67 172.861 131.65 168.641 135.02C168.531 135.11 168.391 135.14 168.251 135.12C167.391 134.99 163.081 134.27 162.291 132.85C162.221 132.73 162.131 132.47 162.321 132.14C163.591 129.98 182.131 122.37 183.811 122.37C183.841 122.37 183.891 122.37 183.941 122.38C183.971 122.38 183.991 122.38 184.021 122.39C184.031 122.39 184.041 122.39 184.051 122.39C184.051 122.39 184.111 122.41 184.141 122.43C184.141 122.43 184.141 122.43 184.151 122.43C184.191 122.45 184.231 122.48 184.271 122.51C184.551 122.76 184.671 123.06 183.841 125.92C183.211 128.09 177.681 144.76 176.181 145.01C176.151 145.01 176.091 145.02 176.061 145.02L176.071 145.04ZM172.781 136.84C173.881 139.88 175.331 143.2 176.011 143.93C177.211 142.13 181.721 129.88 183.091 124.98C181.651 126.82 178.711 130.27 172.781 136.84ZM163.281 132.51C163.941 133.16 166.401 133.8 168.181 134.09C172.661 130.51 177.751 126.51 180.911 124.23C175.541 126.23 164.601 131.07 163.281 132.51Z" fill="#261D2A"/>
<path d="M170.68 142.73C170.5 142.73 170.36 142.67 170.26 142.61C169.55 142.15 168.58 138.16 167.9 134.89C167.84 134.62 168.02 134.35 168.29 134.3C168.56 134.24 168.82 134.42 168.88 134.69C169.49 137.59 170.35 140.93 170.77 141.69C171.18 141.44 172.09 140.33 172.83 139.14C172.98 138.91 173.29 138.84 173.52 138.98C173.75 139.13 173.82 139.44 173.68 139.67C173.15 140.52 171.81 142.5 170.88 142.71C170.81 142.73 170.75 142.73 170.68 142.73Z" fill="#261D2A"/>
<path d="M18.5492 40.8101C18.5492 40.8101 17.5792 33.48 24.6392 35.85C31.6892 38.22 29.3992 44.93 26.7092 42.64C24.0192 40.34 29.0692 32.56 34.4592 36.02C39.8592 39.49 38.6492 46.22 34.8192 46.71C30.9892 47.21 37.1392 38.88 41.9592 44.02C46.7792 49.17 36.2492 58.55 31.9492 55.1C27.6392 51.65 31.0092 46.08 32.0492 49.48C33.0892 52.88 30.2992 56.2 22.6592 56.07C15.0192 55.94 18.4992 44.19 21.1692 47.61C23.8392 51.03 19.4092 54.89 14.0192 50.86C8.62917 46.83 14.7792 38.5001 18.5592 40.8101H18.5492Z" fill="white"/>
<path d="M23.0895 56.58H22.6495C20.1395 56.53 18.3795 55.25 17.7495 53.04C16.4295 52.87 15.0395 52.26 13.7095 51.27C11.5895 49.69 10.8795 47.29 11.7395 44.68C12.6295 42.01 14.9895 39.92 17.1195 39.92C17.4195 39.92 17.7095 39.96 17.9995 40.04C17.9995 39.02 18.1495 37.29 19.1795 36.11C20.3395 34.79 22.2495 34.53 24.7895 35.39C25.7695 35.72 26.6195 36.14 27.3395 36.66C29.3795 34.51 32.2795 34.05 34.7195 35.61C37.0495 37.11 38.4695 39.41 38.5895 41.85C39.9595 41.89 41.2095 42.51 42.3195 43.69C43.8195 45.29 44.0995 47.45 43.0995 49.76C41.5795 53.27 37.4295 56.35 34.2095 56.35C33.1995 56.35 32.3295 56.06 31.6295 55.5C31.2995 55.23 30.9895 54.94 30.7295 54.64C29.0395 55.91 26.4195 56.58 23.0895 56.58ZM18.8095 53.08C19.2495 54.31 20.2795 55.54 22.6595 55.58H23.0895C26.9195 55.58 29.0095 54.69 30.1395 53.84C29.0695 52.1 29.1495 50.2 29.7495 49.02C30.0995 48.33 30.5995 47.94 31.1395 47.94C31.4995 47.94 32.1495 48.12 32.5295 49.35C33.0495 51.05 32.6595 52.71 31.4795 53.98C31.7095 54.25 31.9695 54.5 32.2595 54.73C32.7895 55.15 33.4395 55.36 34.2195 55.36C37.0295 55.36 40.8295 52.51 42.1895 49.37C42.7795 48.01 43.1495 46.04 41.5995 44.38C40.6795 43.4 39.6695 42.89 38.5795 42.86C38.3495 45.2 36.8795 46.97 34.8895 47.23C33.5995 47.39 33.1495 46.72 33.1295 46.08C33.0695 44.7 35.0595 42.38 37.6095 41.93C37.5095 39.8 36.2595 37.78 34.1995 36.46C32.1695 35.16 29.8495 35.54 28.1295 37.3C29.7895 38.89 30.0995 40.84 29.6395 42.14C29.1195 43.6 27.5995 44.06 26.3895 43.03C24.8995 41.76 25.3795 39.29 26.7195 37.43C26.0895 36.99 25.3495 36.62 24.4895 36.34C22.3595 35.62 20.8395 35.76 19.9495 36.77C18.7295 38.16 19.0495 40.73 19.0495 40.75C19.0695 40.94 18.9895 41.13 18.8295 41.23C18.6695 41.33 18.4595 41.34 18.2995 41.23C17.9495 41.01 17.5595 40.9 17.1395 40.9C15.4395 40.9 13.4495 42.73 12.7095 44.97C12.3695 46 11.8395 48.58 14.3295 50.44C15.4095 51.25 16.5195 51.77 17.5695 51.97C17.3795 50.26 17.8195 48.37 18.6995 47.28C19.1295 46.75 19.6295 46.47 20.1495 46.47C20.5095 46.47 21.0495 46.61 21.5795 47.29C22.5295 48.51 22.7495 49.88 22.1695 51.06C21.5995 52.22 20.3395 52.97 18.8295 53.06L18.8095 53.08ZM31.1395 48.93C31.0495 48.93 30.8395 49.07 30.6395 49.46C30.1995 50.32 30.1295 51.77 30.8895 53.13C31.7195 52.15 31.9595 50.93 31.5695 49.63C31.3995 49.06 31.1895 48.93 31.1395 48.93ZM20.1395 47.49C19.9395 47.49 19.6995 47.65 19.4695 47.93C18.8195 48.74 18.3395 50.46 18.5795 52.09C19.8095 52.07 20.8295 51.52 21.2595 50.64C21.6595 49.82 21.4795 48.83 20.7795 47.92C20.6295 47.72 20.3895 47.49 20.1395 47.49ZM37.5695 42.95C35.5295 43.41 34.1095 45.28 34.1395 46.03C34.1395 46.12 34.1395 46.24 34.5295 46.24C34.6095 46.24 34.6895 46.24 34.7795 46.22C36.2395 46.03 37.3295 44.72 37.5795 42.94L37.5695 42.95ZM27.4895 38.06C26.3395 39.66 26.1195 41.48 27.0395 42.26C27.7295 42.85 28.3995 42.63 28.6995 41.8C29.0495 40.82 28.7895 39.33 27.4895 38.06Z" fill="#261D2A"/>
<path d="M163.129 46.8599C163.129 46.8599 162.159 39.5299 169.219 41.8999C176.269 44.2699 173.979 50.9799 171.289 48.6899C168.599 46.3899 173.649 38.6099 179.039 42.0699C184.439 45.5399 183.229 52.2699 179.399 52.7599C175.569 53.2599 181.719 44.9299 186.539 50.0699C191.359 55.2199 180.829 64.5999 176.529 61.1499C172.219 57.6999 175.589 52.1299 176.629 55.5299C177.669 58.9299 174.879 62.2499 167.239 62.1199C159.599 61.9899 163.079 50.2399 165.749 53.6599C168.419 57.0799 163.989 60.9399 158.599 56.9099C153.209 52.8799 159.359 44.5499 163.139 46.8599H163.129Z" fill="white"/>
<path d="M167.67 62.6201H167.23C164.72 62.5701 162.96 61.2901 162.33 59.0801C161.01 58.9101 159.62 58.3001 158.29 57.3101C156.17 55.7301 155.46 53.3301 156.32 50.7201C157.21 48.0501 159.57 45.9601 161.7 45.9601C162 45.9601 162.29 46.0001 162.58 46.0801C162.58 45.0601 162.73 43.3301 163.76 42.1501C164.92 40.8301 166.82 40.5701 169.37 41.4301C170.35 41.7601 171.2 42.1801 171.92 42.7001C173.96 40.5501 176.86 40.0901 179.3 41.6501C181.63 43.1501 183.05 45.4501 183.17 47.8901C184.54 47.9301 185.79 48.5501 186.9 49.7301C188.4 51.3301 188.68 53.4901 187.68 55.8001C186.16 59.3101 182.01 62.3901 178.79 62.3901C177.78 62.3901 176.91 62.1001 176.21 61.5401C175.88 61.2701 175.57 60.9801 175.31 60.6801C173.62 61.9501 170.99 62.6201 167.67 62.6201ZM163.39 59.1201C163.83 60.3501 164.86 61.5801 167.24 61.6201H167.66C171.49 61.6201 173.58 60.7301 174.71 59.8701C173.64 58.1301 173.72 56.2301 174.32 55.0501C174.67 54.3701 175.17 53.9701 175.71 53.9701C176.07 53.9701 176.72 54.1501 177.1 55.3801C177.62 57.0801 177.23 58.7401 176.05 60.0101C176.28 60.2801 176.54 60.5301 176.83 60.7601C177.36 61.1801 178.01 61.3901 178.79 61.3901C181.6 61.3901 185.4 58.5401 186.76 55.4001C187.35 54.0401 187.72 52.0701 186.17 50.4101C185.26 49.4301 184.24 48.9201 183.15 48.8901C182.92 51.2301 181.45 53.0001 179.46 53.2601C178.17 53.4201 177.72 52.7501 177.7 52.1201C177.64 50.7401 179.63 48.4201 182.18 47.9701C182.08 45.8401 180.83 43.8201 178.77 42.5001C176.74 41.2001 174.42 41.5801 172.7 43.3401C174.36 44.9301 174.67 46.8801 174.21 48.1801C173.88 49.0901 173.19 49.6601 172.39 49.6601C171.91 49.6601 171.42 49.4601 170.97 49.0701C169.48 47.8001 169.96 45.3301 171.3 43.4701C170.67 43.0301 169.93 42.6601 169.07 42.3801C166.94 41.6601 165.42 41.8001 164.53 42.8101C163.31 44.2001 163.63 46.7701 163.63 46.8001C163.65 46.9901 163.57 47.1801 163.41 47.2801C163.25 47.3801 163.04 47.3901 162.88 47.2801C162.53 47.0601 162.14 46.9501 161.72 46.9501C160.02 46.9501 158.03 48.7801 157.29 51.0201C156.95 52.0501 156.42 54.6301 158.91 56.4901C159.99 57.3001 161.1 57.8201 162.15 58.0201C161.96 56.3101 162.4 54.4201 163.28 53.3301C163.71 52.8001 164.21 52.5201 164.73 52.5201C165.09 52.5201 165.63 52.6601 166.16 53.3401C167.11 54.5601 167.33 55.9301 166.75 57.1101C166.18 58.2701 164.92 59.0201 163.41 59.1101L163.39 59.1201ZM175.72 54.9701C175.63 54.9701 175.42 55.1101 175.22 55.5001C174.79 56.3601 174.71 57.8101 175.47 59.1701C176.3 58.1901 176.54 56.9701 176.15 55.6701C175.98 55.1001 175.77 54.9701 175.72 54.9701ZM164.72 53.5301C164.52 53.5301 164.28 53.6901 164.05 53.9701C163.4 54.7801 162.92 56.5001 163.16 58.1301C164.39 58.1101 165.41 57.5601 165.84 56.6801C166.24 55.8601 166.06 54.8701 165.36 53.9601C165.21 53.7601 164.97 53.5301 164.72 53.5301ZM182.15 48.9901C180.11 49.4501 178.69 51.3201 178.72 52.0701C178.72 52.1601 178.72 52.2801 179.11 52.2801C179.19 52.2801 179.27 52.2801 179.36 52.2601C180.82 52.0701 181.91 50.7601 182.16 48.9801L182.15 48.9901ZM172.07 44.1001C170.92 45.7001 170.7 47.5201 171.62 48.3001C172.31 48.8901 172.98 48.6801 173.28 47.8401C173.63 46.8601 173.37 45.3701 172.07 44.1001Z" fill="#261D2A"/>
<path d="M99.2191 174.86C99.2191 174.86 98.2491 167.53 105.309 169.9C112.359 172.27 110.069 178.98 107.379 176.69C104.689 174.39 109.739 166.61 115.129 170.07C120.529 173.54 119.319 180.27 115.489 180.76C111.659 181.26 117.809 172.93 122.629 178.07C127.449 183.22 116.919 192.6 112.619 189.15C108.309 185.7 111.679 180.13 112.719 183.53C113.759 186.93 110.969 190.25 103.329 190.12C95.6891 189.99 99.1691 178.24 101.839 181.66C104.509 185.08 100.079 188.94 94.6891 184.91C89.2991 180.88 95.4491 172.55 99.2291 174.86H99.2191Z" fill="white"/>
<path d="M103.75 190.62H103.31C100.8 190.57 99.0396 189.29 98.4096 187.08C97.0896 186.91 95.6996 186.3 94.3696 185.31C92.2496 183.73 91.5396 181.33 92.3996 178.72C93.2896 176.05 95.6496 173.96 97.7796 173.96C98.0796 173.96 98.3796 174 98.6596 174.08C98.6596 173.06 98.8096 171.33 99.8496 170.15C101.01 168.83 102.92 168.57 105.46 169.43C106.44 169.76 107.29 170.18 108.01 170.7C110.05 168.55 112.95 168.08 115.39 169.65C117.72 171.15 119.14 173.45 119.26 175.89C120.63 175.93 121.88 176.55 122.99 177.73C124.49 179.33 124.77 181.49 123.77 183.8C122.25 187.31 118.1 190.39 114.88 190.39C113.87 190.39 113 190.1 112.3 189.54C111.97 189.27 111.66 188.98 111.4 188.68C109.71 189.95 107.09 190.62 103.76 190.62H103.75ZM99.4696 187.12C99.9096 188.35 100.94 189.58 103.32 189.62H103.75C107.58 189.62 109.67 188.73 110.8 187.88C109.73 186.14 109.81 184.24 110.41 183.06C110.76 182.38 111.26 181.98 111.8 181.98C112.16 181.98 112.81 182.16 113.19 183.39C113.71 185.09 113.33 186.75 112.14 188.02C112.37 188.29 112.63 188.54 112.92 188.77C113.45 189.19 114.1 189.4 114.88 189.4C117.69 189.4 121.49 186.55 122.85 183.41C123.44 182.05 123.81 180.08 122.26 178.42C121.34 177.44 120.33 176.93 119.24 176.9C119.01 179.24 117.54 181.01 115.55 181.27C114.25 181.44 113.81 180.76 113.79 180.12C113.73 178.74 115.72 176.42 118.27 175.97C118.17 173.84 116.92 171.82 114.86 170.5C112.83 169.2 110.51 169.58 108.79 171.34C110.45 172.93 110.76 174.88 110.3 176.18C109.78 177.64 108.26 178.1 107.05 177.07C105.56 175.8 106.04 173.33 107.38 171.47C106.75 171.03 106.01 170.67 105.15 170.38C103.02 169.67 101.5 169.8 100.61 170.81C99.3896 172.2 99.7096 174.77 99.7096 174.79C99.7296 174.98 99.6496 175.17 99.4896 175.27C99.3296 175.37 99.1196 175.38 98.9596 175.27C98.6096 175.05 98.2196 174.94 97.7996 174.94C96.0996 174.94 94.1096 176.77 93.3696 179.01C93.0296 180.04 92.4996 182.62 94.9896 184.48C96.0696 185.29 97.1796 185.81 98.2296 186.01C98.0396 184.3 98.4796 182.41 99.3596 181.32C99.7896 180.79 100.29 180.51 100.81 180.51C101.17 180.51 101.71 180.65 102.24 181.33C103.19 182.55 103.41 183.92 102.83 185.1C102.26 186.26 101 187.01 99.4896 187.1L99.4696 187.12ZM111.79 182.97C111.7 182.97 111.49 183.11 111.3 183.5C110.86 184.36 110.79 185.81 111.55 187.17C112.38 186.19 112.62 184.97 112.23 183.67C112.06 183.1 111.85 182.97 111.8 182.97H111.79ZM100.79 181.53C100.59 181.53 100.35 181.69 100.12 181.97C99.4696 182.78 98.9896 184.5 99.2296 186.13C100.46 186.11 101.48 185.56 101.91 184.68C102.31 183.86 102.13 182.87 101.43 181.96C101.28 181.76 101.04 181.53 100.79 181.53ZM118.22 176.99C116.18 177.45 114.76 179.32 114.79 180.07C114.79 180.16 114.79 180.28 115.18 180.28C115.26 180.28 115.34 180.28 115.43 180.26C116.89 180.07 117.98 178.76 118.23 176.98L118.22 176.99ZM108.14 172.1C106.99 173.7 106.77 175.52 107.69 176.3C108.38 176.89 109.05 176.68 109.35 175.84C109.7 174.86 109.44 173.37 108.14 172.1Z" fill="#261D2A"/>
<path d="M16.7004 131.81H16.6804C14.7304 131.81 13.1404 130.21 13.1504 128.25C13.1504 126.3 14.7504 124.72 16.6904 124.72C18.6604 124.72 20.2404 126.32 20.2304 128.28C20.2304 130.23 18.6304 131.81 16.6904 131.81H16.7004ZM16.7104 125.72C15.3004 125.72 14.1604 126.86 14.1604 128.25C14.1604 129.65 15.2904 130.8 16.6904 130.8V131.3L16.7004 130.8C18.1004 130.8 19.2404 129.66 19.2404 128.27C19.2404 126.87 18.1104 125.72 16.7104 125.72Z" fill="#261D2A"/>
<path d="M51.7004 199.81H51.6804C49.7304 199.81 48.1404 198.21 48.1504 196.25C48.1504 194.3 49.7504 192.72 51.6904 192.72C53.6604 192.72 55.2404 194.32 55.2304 196.28C55.2304 198.23 53.6304 199.81 51.6904 199.81H51.7004ZM51.7104 193.72C50.3004 193.72 49.1604 194.86 49.1604 196.25C49.1604 197.65 50.2904 198.8 51.6904 198.8V199.3L51.7004 198.8C53.1004 198.8 54.2404 197.66 54.2404 196.27C54.2404 194.87 53.1104 193.72 51.7104 193.72Z" fill="#261D2A"/>
<path d="M176.7 176.81H176.68C174.73 176.81 173.14 175.21 173.15 173.25C173.15 171.3 174.75 169.72 176.69 169.72C178.66 169.72 180.24 171.32 180.23 173.28C180.23 175.23 178.63 176.81 176.69 176.81H176.7ZM176.71 170.72C175.3 170.72 174.16 171.86 174.16 173.25C174.16 174.65 175.29 175.8 176.69 175.8V176.3L176.7 175.8C178.1 175.8 179.24 174.66 179.24 173.27C179.24 171.87 178.11 170.72 176.71 170.72Z" fill="#261D2A"/>
<path d="M168.7 25.8097H168.68C166.73 25.8097 165.14 24.2097 165.15 22.2497C165.15 20.2997 166.75 18.7197 168.69 18.7197C170.66 18.7197 172.24 20.3197 172.23 22.2797C172.23 24.2297 170.63 25.8097 168.69 25.8097H168.7ZM168.71 19.7197C167.3 19.7197 166.16 20.8597 166.16 22.2497C166.16 23.6497 167.29 24.7997 168.69 24.7997V25.2997L168.7 24.7997C170.1 24.7997 171.24 23.6597 171.24 22.2697C171.24 20.8697 170.11 19.7197 168.71 19.7197Z" fill="#261D2A"/>
<path d="M95.9605 77.1202C95.9605 77.1202 73.2505 70.1402 65.1705 81.6802C57.0905 93.2202 59.8205 104.83 60.8105 106.62C61.8005 108.41 72.9505 98.2402 74.7705 98.1702C79.3505 97.9902 83.1905 100.12 84.9305 99.6002C86.6705 99.0802 95.9705 77.1202 95.9705 77.1202H95.9605Z" fill="#9E82DC"/>
<path d="M127.721 100.84C127.721 100.84 140.901 120.61 132.151 131.65C123.401 142.69 111.501 143.39 109.491 142.96C107.481 142.53 114.051 128.93 113.601 127.17C112.471 122.72 109.331 119.66 109.331 117.84C109.331 116.02 127.721 100.84 127.721 100.84Z" fill="#9E82DC"/>
<path d="M131.14 52.9706C131.14 52.9706 110.36 49.8606 96.2997 64.8906C82.2397 79.9206 75.5797 107.591 80.5897 112.601C85.5997 117.611 93.7197 126.191 99.4397 127.141C105.16 128.091 129.25 116.871 136.87 105.411C144.5 93.9606 149.25 73.4406 145.91 65.3406C142.57 57.2306 131.14 52.9706 131.14 52.9706Z" fill="white"/>
<path d="M100.21 127.69C99.8996 127.69 99.6096 127.67 99.3596 127.63C93.9296 126.73 86.7396 119.49 81.4896 114.21L80.2396 112.95C74.5696 107.28 82.5596 78.8502 95.9396 64.5502C105.99 53.8102 119.39 52.2002 126.49 52.2002C129.37 52.2002 131.15 52.4602 131.22 52.4702C131.25 52.4702 131.29 52.4802 131.32 52.5002C131.79 52.6802 142.99 56.9302 146.38 65.1502C149.77 73.3802 145.19 93.8402 137.3 105.69C130 116.65 107.27 127.69 100.22 127.69H100.21ZM126.49 53.2002C119.56 53.2002 106.46 54.7602 96.6696 65.2302C83.0196 79.8202 76.1196 107.42 80.9496 112.24L82.1996 113.5C87.0596 118.39 94.4096 125.79 99.5196 126.64C99.7196 126.67 99.9496 126.69 100.21 126.69C107.09 126.69 129.31 115.87 136.46 105.13C144.06 93.7102 148.68 73.3602 145.45 65.5202C142.34 57.9802 131.83 53.7602 131.02 53.4502C130.71 53.4102 129.02 53.2002 126.49 53.2002Z" fill="#261D2A"/>
<path d="M117.36 100.12C125.655 100.12 132.38 93.3954 132.38 85.1001C132.38 76.8048 125.655 70.0801 117.36 70.0801C109.065 70.0801 102.34 76.8048 102.34 85.1001C102.34 93.3954 109.065 100.12 117.36 100.12Z" fill="#5DA9CD"/>
<path d="M117.431 94.7598C122.655 94.7598 126.891 90.5245 126.891 85.2999C126.891 80.0752 122.655 75.8398 117.431 75.8398C112.206 75.8398 107.971 80.0752 107.971 85.2999C107.971 90.5245 112.206 94.7598 117.431 94.7598Z" fill="#EDD45B"/>
<path d="M104.571 99.0099C104.571 99.0099 86.1314 101.54 82.7814 108.66C79.4314 115.79 76.5014 127.94 79.2314 129.83C81.9614 131.72 98.3014 125 101.021 121.02C103.741 117.04 108.971 97.1199 104.571 99.0099Z" fill="#9E82DC"/>
<path d="M110.371 55.0999C110.371 55.0999 144.251 86.0799 145.681 84.6499C147.111 83.2199 152.821 52.6899 147.801 47.1999C142.781 41.7099 114.171 52.2299 110.361 55.0899L110.371 55.0999Z" fill="#9E82DC"/>
<path d="M117.621 92.5901C117.041 92.5901 116.481 92.5101 115.951 92.3601C113.871 91.7501 113.031 90.1501 112.991 90.0801C112.861 89.8301 112.961 89.5301 113.211 89.4101C113.451 89.2901 113.751 89.3801 113.881 89.6301C113.911 89.6801 114.581 90.9301 116.251 91.4101C117.971 91.9001 120.091 91.4101 122.581 89.9601C122.811 89.8201 123.121 89.9001 123.261 90.1401C123.401 90.3801 123.321 90.6801 123.081 90.8201C121.071 92.0001 119.241 92.6001 117.621 92.6001V92.5901Z" fill="#261D2A"/>
<path d="M8 102.1L35.72 79.95C35.72 79.95 22.49 72.08 26.94 70.53C31.39 68.98 54.83 60.3 56.65 62.66C58.47 65.02 51.99 92.24 50.19 91.37C48.39 90.5 42.36 86.11 42.36 86.11C42.36 86.11 25.76 114.37 23.67 114.1C21.58 113.83 8 102.1 8 102.1Z" fill="#FDCF61"/>
<path d="M143.189 116.02L169.179 91.8601C169.179 91.8601 155.399 85.0001 159.719 83.1201C164.039 81.2401 186.759 70.8401 188.759 73.0601C190.749 75.2801 186.319 102.91 184.459 102.18C182.599 101.45 176.259 97.5201 176.259 97.5201C176.259 97.5201 161.809 126.94 159.709 126.83C157.609 126.72 143.189 116.03 143.189 116.03V116.02Z" fill="#76AEA6"/>
<path d="M50.1199 8.33939C50.1199 8.33939 92.8199 4.75939 98.1199 8.80939C103.41 12.8594 103.19 35.5294 98.4799 40.1494C93.7699 44.7694 82.7199 40.7794 80.4499 43.3094C77.2299 46.8894 75.8699 53.6594 73.2299 51.6394C70.5899 49.6194 68.7299 44.1394 68.7299 44.1394C68.7299 44.1394 52.4299 45.7094 48.4699 41.6694C44.5099 37.6294 42.7799 9.60939 50.1299 8.34939L50.1199 8.33939Z" fill="#CA7A8C"/>
<path d="M73.7004 37.9396C73.7004 37.9396 55.2104 26.2896 61.6704 17.8996C66.1504 12.0796 74.0204 21.8396 74.0204 21.8396C74.0204 21.8396 77.4004 10.1496 83.9004 15.8196C92.2504 23.0996 73.7004 37.9396 73.7004 37.9396Z" fill="#FEFFFF"/>
<path d="M138.61 185.47C138.61 185.47 104.16 145.16 132.37 140.13C171.78 133.09 143.1 181.81 138.61 185.47Z" fill="#CA7A8C"/>
<path d="M138.009 159.97C141.544 159.97 144.409 157.105 144.409 153.57C144.409 150.035 141.544 147.17 138.009 147.17C134.475 147.17 131.609 150.035 131.609 153.57C131.609 157.105 134.475 159.97 138.009 159.97Z" fill="white"/>
<path d="M138.009 160.47C134.199 160.47 131.109 157.37 131.109 153.57C131.109 149.77 134.209 146.67 138.009 146.67C141.809 146.67 144.909 149.77 144.909 153.57C144.909 157.37 141.809 160.47 138.009 160.47ZM138.009 147.66C134.759 147.66 132.109 150.31 132.109 153.56C132.109 156.81 134.759 159.46 138.009 159.46C141.259 159.46 143.909 156.81 143.909 153.56C143.909 150.31 141.259 147.66 138.009 147.66Z" fill="#261D2A"/>
<path d="M154.421 199.599C154.161 199.599 153.941 199.399 153.921 199.139C153.901 198.859 154.111 198.619 154.381 198.599C155.031 198.549 155.661 198.449 156.241 198.289C156.511 198.219 156.781 198.379 156.851 198.639C156.921 198.909 156.771 199.179 156.501 199.249C155.861 199.419 155.171 199.539 154.451 199.589C154.441 199.589 154.421 199.589 154.411 199.589L154.421 199.599ZM152.431 199.599C152.431 199.599 152.401 199.599 152.391 199.599C151.741 199.549 151.061 199.459 150.351 199.329C150.081 199.279 149.901 199.019 149.951 198.749C150.001 198.479 150.261 198.299 150.531 198.349C151.191 198.469 151.841 198.559 152.461 198.609C152.741 198.629 152.941 198.869 152.921 199.149C152.901 199.409 152.681 199.609 152.421 199.609L152.431 199.599ZM148.501 198.889C148.501 198.889 148.411 198.889 148.371 198.869C147.751 198.699 147.101 198.499 146.431 198.269C146.171 198.179 146.031 197.899 146.121 197.629C146.211 197.369 146.501 197.229 146.761 197.319C147.411 197.539 148.041 197.739 148.641 197.899C148.911 197.969 149.061 198.249 148.991 198.509C148.931 198.729 148.731 198.879 148.511 198.879L148.501 198.889ZM158.221 198.549C158.041 198.549 157.871 198.459 157.781 198.289C157.651 198.049 157.741 197.739 157.981 197.609C158.521 197.319 159.031 196.949 159.491 196.529C159.701 196.339 160.011 196.359 160.201 196.559C160.391 196.759 160.371 197.079 160.171 197.269C159.651 197.749 159.071 198.159 158.461 198.489C158.381 198.529 158.301 198.549 158.221 198.549ZM144.721 197.589C144.661 197.589 144.591 197.579 144.531 197.549C144.291 197.449 144.051 197.349 143.801 197.249C143.551 197.139 143.431 196.849 143.541 196.589C143.651 196.329 143.941 196.219 144.201 196.319C144.441 196.419 144.681 196.519 144.911 196.619C145.171 196.719 145.291 197.019 145.191 197.269C145.111 197.459 144.921 197.579 144.731 197.579L144.721 197.589ZM161.151 195.909C161.051 195.909 160.951 195.879 160.861 195.819C160.641 195.659 160.581 195.349 160.751 195.119C161.101 194.629 161.431 194.079 161.731 193.479C161.851 193.229 162.151 193.129 162.401 193.249C162.651 193.369 162.751 193.669 162.631 193.919C162.311 194.569 161.951 195.169 161.571 195.699C161.471 195.839 161.321 195.909 161.161 195.909H161.151ZM162.941 192.349C162.881 192.349 162.831 192.349 162.771 192.319C162.511 192.229 162.371 191.939 162.461 191.679C162.661 191.099 162.851 190.469 163.021 189.809C163.091 189.539 163.361 189.379 163.631 189.449C163.901 189.519 164.061 189.789 163.991 190.059C163.811 190.749 163.611 191.409 163.401 192.019C163.331 192.229 163.131 192.349 162.931 192.349H162.941ZM163.951 188.479C163.951 188.479 163.891 188.479 163.861 188.479C163.591 188.429 163.411 188.169 163.461 187.899C163.581 187.259 163.681 186.609 163.781 185.949C163.821 185.679 164.071 185.479 164.341 185.519C164.611 185.559 164.801 185.809 164.771 186.079C164.681 186.759 164.571 187.429 164.451 188.079C164.411 188.319 164.201 188.489 163.961 188.489L163.951 188.479ZM164.511 184.509C164.511 184.509 164.471 184.509 164.461 184.509C164.191 184.479 163.991 184.239 164.011 183.959C164.081 183.299 164.141 182.639 164.191 181.979C164.211 181.699 164.461 181.509 164.731 181.519C165.001 181.539 165.211 181.779 165.191 182.059C165.141 182.729 165.081 183.399 165.011 184.069C164.981 184.329 164.771 184.519 164.511 184.519V184.509ZM164.831 180.509C164.831 180.509 164.811 180.509 164.801 180.509C164.521 180.489 164.311 180.259 164.331 179.979C164.371 179.309 164.411 178.639 164.451 177.979C164.471 177.709 164.681 177.479 164.981 177.509C165.261 177.519 165.471 177.759 165.451 178.039C165.411 178.699 165.381 179.369 165.331 180.039C165.311 180.309 165.091 180.509 164.831 180.509ZM165.051 176.509C165.051 176.509 165.031 176.509 165.021 176.509C164.741 176.499 164.531 176.259 164.551 175.979C164.591 175.299 164.631 174.629 164.671 173.969C164.691 173.689 164.951 173.499 165.201 173.499C165.481 173.519 165.681 173.759 165.671 174.029C165.631 174.679 165.591 175.349 165.551 176.019C165.541 176.289 165.311 176.489 165.051 176.489V176.509ZM165.331 172.509C165.331 172.509 165.301 172.509 165.281 172.509C165.001 172.489 164.801 172.239 164.831 171.969C164.891 171.269 164.971 170.599 165.061 169.949C165.101 169.679 165.351 169.489 165.621 169.519C165.891 169.559 166.091 169.809 166.051 170.079C165.961 170.709 165.891 171.369 165.831 172.049C165.811 172.309 165.591 172.509 165.331 172.509ZM170.511 168.689C170.051 168.689 169.541 168.619 169.001 168.489C168.731 168.419 168.571 168.149 168.631 167.889C168.691 167.629 168.971 167.459 169.231 167.519C169.911 167.689 170.521 167.729 171.021 167.649C171.291 167.609 171.551 167.799 171.591 168.069C171.631 168.339 171.451 168.599 171.171 168.639C170.961 168.669 170.741 168.689 170.511 168.689ZM165.891 168.539C165.891 168.539 165.821 168.539 165.781 168.529C165.511 168.469 165.341 168.199 165.401 167.939C165.471 167.629 165.541 167.349 165.611 167.069C165.481 166.999 165.341 166.919 165.211 166.839C164.971 166.699 164.891 166.389 165.031 166.159C165.171 165.919 165.481 165.839 165.711 165.979C165.781 166.019 165.841 166.059 165.911 166.099C165.931 166.049 165.951 165.999 165.971 165.949C166.071 165.689 166.361 165.569 166.621 165.659C166.881 165.759 167.011 166.049 166.911 166.309C166.881 166.399 166.841 166.489 166.811 166.579C167.021 166.689 167.241 166.789 167.441 166.879C167.691 166.989 167.801 167.289 167.691 167.539C167.581 167.789 167.281 167.899 167.031 167.789C166.861 167.709 166.691 167.629 166.521 167.549C166.471 167.739 166.421 167.939 166.381 168.149C166.331 168.379 166.121 168.539 165.891 168.539ZM172.781 167.659C172.681 167.659 172.581 167.629 172.491 167.569C172.261 167.409 172.211 167.099 172.371 166.869C172.611 166.529 172.741 166.089 172.741 165.599C172.741 165.499 172.741 165.399 172.721 165.309C172.691 165.039 172.891 164.789 173.161 164.759C173.421 164.729 173.681 164.929 173.711 165.199C173.721 165.329 173.731 165.469 173.731 165.599C173.731 166.299 173.541 166.939 173.181 167.449C173.081 167.589 172.931 167.659 172.771 167.659H172.781ZM163.811 165.779C163.701 165.779 163.591 165.749 163.501 165.669C162.931 165.219 162.421 164.739 161.981 164.239C161.801 164.029 161.821 163.719 162.031 163.529C162.241 163.349 162.551 163.369 162.741 163.579C163.141 164.029 163.601 164.469 164.131 164.879C164.351 165.049 164.381 165.359 164.211 165.579C164.111 165.709 163.961 165.769 163.821 165.769L163.811 165.779ZM167.411 164.879C167.301 164.879 167.181 164.839 167.091 164.759C166.881 164.579 166.851 164.269 167.031 164.059L167.141 163.939C167.631 163.389 168.131 162.949 168.631 162.629C168.861 162.479 169.171 162.549 169.321 162.779C169.471 163.009 169.401 163.319 169.171 163.469C168.751 163.739 168.321 164.119 167.881 164.609L167.801 164.709C167.701 164.829 167.561 164.889 167.421 164.889L167.411 164.879ZM172.481 163.919C172.331 163.919 172.191 163.859 172.091 163.729C171.831 163.409 171.391 163.029 170.741 162.979C170.461 162.959 170.261 162.719 170.281 162.449C170.301 162.169 170.561 161.969 170.811 161.989C171.601 162.049 172.331 162.439 172.871 163.109C173.041 163.319 173.011 163.639 172.801 163.809C172.711 163.879 172.601 163.919 172.491 163.919H172.481ZM161.231 162.769C161.051 162.769 160.881 162.669 160.791 162.499C160.461 161.869 160.221 161.189 160.071 160.489C160.011 160.219 160.191 159.949 160.461 159.899C160.721 159.849 161.001 160.019 161.051 160.289C161.181 160.899 161.391 161.489 161.671 162.039C161.801 162.289 161.701 162.589 161.461 162.709C161.391 162.749 161.311 162.769 161.231 162.769ZM160.411 158.899H160.391C160.111 158.889 159.901 158.649 159.921 158.379C159.951 157.709 160.061 157.009 160.241 156.309C160.311 156.039 160.581 155.879 160.851 155.949C161.121 156.019 161.281 156.289 161.211 156.559C161.051 157.199 160.951 157.829 160.921 158.429C160.911 158.699 160.691 158.909 160.421 158.909L160.411 158.899ZM161.361 155.029C161.291 155.029 161.231 155.019 161.161 154.989C160.911 154.879 160.791 154.589 160.901 154.329C161.161 153.729 161.471 153.109 161.821 152.489C161.961 152.249 162.261 152.169 162.501 152.299C162.741 152.439 162.821 152.739 162.691 152.979C162.361 153.569 162.071 154.149 161.821 154.719C161.741 154.909 161.551 155.019 161.361 155.019V155.029ZM163.321 151.549C163.221 151.549 163.121 151.519 163.031 151.459C162.801 151.299 162.751 150.989 162.901 150.759C163.271 150.219 163.691 149.669 164.131 149.129C164.301 148.919 164.621 148.879 164.831 149.059C165.041 149.229 165.081 149.549 164.901 149.759C164.481 150.279 164.081 150.809 163.721 151.329C163.621 151.469 163.471 151.539 163.311 151.539L163.321 151.549ZM165.841 148.439C165.721 148.439 165.601 148.399 165.501 148.309C165.301 148.119 165.291 147.809 165.471 147.599C166.311 146.699 166.901 146.169 166.921 146.149C167.131 145.969 167.441 145.979 167.631 146.189C167.811 146.399 167.801 146.709 167.591 146.899C167.591 146.899 167.011 147.419 166.211 148.289C166.111 148.399 165.981 148.449 165.841 148.449V148.439Z" fill="#261D2A"/>
<path d="M80.0091 67.0195C80.0091 67.0195 79.9891 67.0195 79.9791 67.0195C79.6991 67.0095 79.4891 66.7695 79.5091 66.4995C79.5391 65.8595 79.6091 65.1495 79.6991 64.4595C79.7391 64.1895 79.9891 63.9995 80.2591 64.0295C80.5291 64.0695 80.7291 64.3195 80.6891 64.5895C80.5991 65.2595 80.5391 65.9295 80.5091 66.5495C80.4991 66.8195 80.2791 67.0195 80.0091 67.0195ZM80.5391 63.0495C80.5391 63.0495 80.4691 63.0495 80.4291 63.0395C80.1591 62.9795 79.9891 62.7195 80.0491 62.4495C80.1891 61.7695 80.3591 61.1095 80.5491 60.4695C80.6291 60.1995 80.9091 60.0495 81.1691 60.1295C81.4291 60.2095 81.5891 60.4895 81.5091 60.7495C81.3291 61.3595 81.1691 61.9995 81.0291 62.6495C80.9791 62.8795 80.7691 63.0495 80.5391 63.0495ZM81.6791 59.2095C81.6191 59.2095 81.5591 59.1995 81.4991 59.1795C81.2391 59.0795 81.1191 58.7895 81.2191 58.5295C81.4691 57.8795 81.7591 57.2495 82.0691 56.6595C82.1991 56.4095 82.4991 56.3195 82.7391 56.4495C82.9891 56.5795 83.0791 56.8795 82.9491 57.1195C82.6591 57.6795 82.3891 58.2795 82.1491 58.8995C82.0691 59.0995 81.8791 59.2195 81.6891 59.2195L81.6791 59.2095ZM83.5191 55.6695C83.4191 55.6695 83.3291 55.6395 83.2391 55.5895C83.0091 55.4395 82.9491 55.1295 83.0991 54.8995C83.4891 54.3195 83.9091 53.7695 84.3591 53.2595C84.5391 53.0495 84.8591 53.0295 85.0691 53.2195C85.2791 53.3995 85.2991 53.7195 85.1091 53.9295C84.6891 54.3995 84.2891 54.9195 83.9291 55.4595C83.8291 55.5995 83.6791 55.6795 83.5091 55.6795L83.5191 55.6695ZM86.1691 52.6895C86.0291 52.6895 85.8891 52.6295 85.7891 52.5095C85.6091 52.2995 85.6391 51.9795 85.8491 51.8095C86.3791 51.3595 86.9391 50.9495 87.5291 50.5995C87.7691 50.4595 88.0691 50.5295 88.2191 50.7695C88.3591 51.0095 88.2891 51.3095 88.0591 51.4595C87.5191 51.7895 86.9991 52.1695 86.5091 52.5795C86.4191 52.6595 86.2991 52.6995 86.1891 52.6995L86.1691 52.6895ZM89.5591 50.6095C89.3691 50.6095 89.1791 50.4995 89.0991 50.2995C88.9891 50.0495 89.1091 49.7495 89.3691 49.6395C89.9891 49.3795 90.6491 49.1495 91.3191 48.9695C91.5891 48.8995 91.8591 49.0595 91.9291 49.3195C91.9991 49.5895 91.8391 49.8595 91.5791 49.9295C90.9491 50.0995 90.3391 50.3095 89.7591 50.5495C89.6991 50.5795 89.6291 50.5895 89.5591 50.5895V50.6095ZM105.339 50.2095C105.069 50.2095 104.839 49.9895 104.839 49.7195C104.839 49.4395 105.059 49.2195 105.329 49.2095C105.989 49.1995 106.639 49.1595 107.279 49.0895C107.559 49.0595 107.799 49.2595 107.829 49.5295C107.859 49.7995 107.659 50.0495 107.389 50.0795C106.729 50.1495 106.039 50.1895 105.349 50.2095H105.339ZM103.339 50.1595C103.339 50.1595 103.319 50.1595 103.309 50.1595C102.649 50.1195 101.969 50.0495 101.279 49.9595C101.009 49.9195 100.819 49.6695 100.849 49.3995C100.889 49.1295 101.129 48.9395 101.409 48.9695C102.069 49.0595 102.719 49.1195 103.359 49.1595C103.639 49.1795 103.849 49.4095 103.829 49.6895C103.809 49.9595 103.589 50.1595 103.329 50.1595H103.339ZM109.299 49.7695C109.069 49.7695 108.859 49.6095 108.809 49.3695C108.749 49.0995 108.929 48.8295 109.199 48.7795C109.839 48.6495 110.469 48.4795 111.079 48.2795C111.339 48.1895 111.619 48.3395 111.709 48.5995C111.799 48.8595 111.649 49.1395 111.389 49.2295C110.749 49.4395 110.079 49.6195 109.409 49.7595C109.379 49.7595 109.339 49.7695 109.309 49.7695H109.299ZM99.3691 49.6495C99.3691 49.6495 99.3191 49.6495 99.2991 49.6495C98.6391 49.5595 97.9791 49.4895 97.3491 49.4495C97.0691 49.4295 96.8691 49.1895 96.8791 48.9195C96.8991 48.6395 97.1691 48.4495 97.4091 48.4495C98.0691 48.4895 98.7491 48.5595 99.4391 48.6595C99.7091 48.6995 99.8991 48.9495 99.8591 49.2195C99.8191 49.4695 99.6091 49.6495 99.3691 49.6495ZM93.3891 49.5695C93.1391 49.5695 92.9291 49.3895 92.8991 49.1395C92.8591 48.8695 93.0491 48.6095 93.3291 48.5795C93.9891 48.4895 94.6691 48.4295 95.3691 48.4095H95.3791C95.6491 48.4095 95.8691 48.6195 95.8791 48.8995C95.8791 49.1795 95.6691 49.4095 95.3891 49.4095C94.7291 49.4295 94.0791 49.4795 93.4591 49.5695C93.4391 49.5695 93.4091 49.5695 93.3891 49.5695ZM113.089 48.5295C112.899 48.5295 112.719 48.4195 112.639 48.2395C112.519 47.9895 112.639 47.6895 112.889 47.5795C113.479 47.3095 114.049 46.9995 114.599 46.6595C114.829 46.5195 115.139 46.5895 115.289 46.8195C115.439 47.0495 115.359 47.3595 115.129 47.5095C114.549 47.8695 113.939 48.1995 113.319 48.4895C113.249 48.5195 113.179 48.5395 113.109 48.5395L113.089 48.5295ZM116.469 46.4195C116.329 46.4195 116.179 46.3595 116.079 46.2395C115.909 46.0295 115.939 45.7095 116.149 45.5395C116.649 45.1295 117.129 44.6895 117.569 44.2195C117.759 44.0195 118.079 44.0095 118.279 44.1995C118.479 44.3895 118.489 44.7095 118.299 44.9095C117.829 45.4095 117.319 45.8795 116.789 46.3095C116.699 46.3895 116.589 46.4195 116.469 46.4195ZM119.209 43.5195C119.109 43.5195 118.999 43.4895 118.919 43.4195C118.699 43.2595 118.649 42.9495 118.809 42.7195C119.189 42.1995 119.529 41.6495 119.839 41.0795C119.969 40.8395 120.269 40.7495 120.519 40.8795C120.759 41.0095 120.849 41.3095 120.719 41.5595C120.399 42.1595 120.029 42.7495 119.619 43.3095C119.519 43.4395 119.369 43.5195 119.209 43.5195ZM121.099 39.9995C121.039 39.9995 120.979 39.9995 120.929 39.9695C120.669 39.8695 120.539 39.5895 120.629 39.3295C120.809 38.8295 120.969 38.3195 121.079 37.8195C120.599 37.7095 120.139 37.5595 119.699 37.3595C119.449 37.2395 119.339 36.9495 119.449 36.6995C119.569 36.4495 119.859 36.3395 120.109 36.4495C120.659 36.6995 121.259 36.8695 121.879 36.9495C122.149 36.9895 122.349 37.2395 122.309 37.5095C122.289 37.6595 122.199 37.7895 122.079 37.8695C121.949 38.4695 121.769 39.0695 121.549 39.6695C121.469 39.8695 121.279 39.9995 121.079 39.9995H121.099ZM123.829 37.9295C123.579 37.9295 123.369 37.7495 123.329 37.4995C123.289 37.2295 123.489 36.9795 123.759 36.9395C124.359 36.8595 124.979 36.7095 125.599 36.4895C125.859 36.3995 126.139 36.5395 126.239 36.7995C126.329 37.0595 126.189 37.3495 125.929 37.4395C125.239 37.6795 124.549 37.8495 123.889 37.9295C123.869 37.9295 123.849 37.9295 123.819 37.9295H123.829ZM127.619 36.6895C127.429 36.6895 127.249 36.5795 127.169 36.3995C127.049 36.1495 127.159 35.8495 127.409 35.7295C127.989 35.4595 128.579 35.1495 129.149 34.8295C129.389 34.6895 129.689 34.7795 129.829 35.0195C129.969 35.2595 129.879 35.5695 129.639 35.6995C129.049 36.0395 128.439 36.3495 127.829 36.6395C127.759 36.6695 127.689 36.6895 127.619 36.6895ZM118.269 36.2895C118.149 36.2895 118.029 36.2495 117.929 36.1595C117.389 35.6595 116.949 35.0895 116.609 34.4595C116.479 34.2195 116.569 33.9095 116.809 33.7795C117.049 33.6495 117.349 33.7395 117.489 33.9795C117.779 34.5095 118.159 34.9995 118.619 35.4195C118.819 35.6095 118.829 35.9195 118.649 36.1295C118.549 36.2395 118.419 36.2895 118.279 36.2895H118.269ZM121.869 36.0895H121.859C121.579 36.0895 121.359 35.8495 121.369 35.5795V35.4695C121.369 34.8495 121.299 34.2595 121.169 33.7295C121.099 33.4595 121.269 33.1895 121.529 33.1195C121.799 33.0495 122.069 33.2195 122.139 33.4795C122.289 34.0895 122.369 34.7595 122.369 35.4595V35.5895C122.369 35.8595 122.139 36.0795 121.869 36.0795V36.0895ZM131.099 34.7195C130.939 34.7195 130.779 34.6395 130.679 34.4995C130.529 34.2695 130.589 33.9595 130.819 33.8095C131.379 33.4395 131.919 33.0495 132.429 32.6695C132.649 32.4995 132.959 32.5495 133.129 32.7695C133.299 32.9895 133.249 33.2995 133.029 33.4695C132.509 33.8695 131.949 34.2595 131.369 34.6495C131.289 34.7095 131.189 34.7295 131.089 34.7295L131.099 34.7195ZM116.469 32.8195C116.199 32.8195 115.979 32.6095 115.969 32.3395V32.1795C115.969 31.2495 116.359 30.5095 117.039 30.1695C117.289 30.0395 117.589 30.1395 117.709 30.3895C117.829 30.6395 117.739 30.9395 117.489 31.0595C117.029 31.2895 116.959 31.8595 116.959 32.1795V32.2995C116.969 32.5795 116.759 32.8095 116.479 32.8195C116.479 32.8195 116.469 32.8195 116.459 32.8195H116.469ZM134.289 32.3095C134.149 32.3095 134.009 32.2495 133.909 32.1295C133.729 31.9195 133.749 31.5995 133.959 31.4195C134.499 30.9595 134.989 30.5195 135.419 30.0995C135.619 29.9095 135.939 29.9195 136.129 30.1195C136.319 30.3195 136.309 30.6395 136.109 30.8295C135.659 31.2595 135.149 31.7195 134.599 32.1895C134.509 32.2695 134.389 32.3095 134.269 32.3095H134.289ZM120.819 32.3095C120.669 32.3095 120.519 32.2395 120.429 32.1195C120.119 31.7195 119.739 31.4295 119.309 31.2495C119.219 31.2095 119.129 31.1795 119.049 31.1495C118.789 31.0595 118.659 30.7695 118.749 30.5095C118.839 30.2495 119.129 30.1095 119.389 30.2095C119.489 30.2495 119.589 30.2895 119.699 30.3295C120.299 30.5795 120.809 30.9795 121.229 31.5095C121.399 31.7295 121.359 32.0395 121.139 32.2095C121.049 32.2795 120.939 32.3195 120.829 32.3195L120.819 32.3095ZM137.179 29.5495C137.059 29.5495 136.929 29.5095 136.839 29.4195C136.639 29.2295 136.629 28.9195 136.819 28.7095C137.639 27.8295 138.099 27.2395 138.109 27.2295C138.279 27.0095 138.589 26.9695 138.809 27.1395C139.029 27.3095 139.069 27.6195 138.899 27.8395C138.879 27.8695 138.409 28.4695 137.549 29.3895C137.449 29.4995 137.319 29.5495 137.179 29.5495Z" fill="#261D2A"/>
</g>
<defs>
<clipPath id="clip0_592_8408">
<rect width="184.37" height="198.81" fill="white" transform="translate(8 1)"/>
</clipPath>
</defs>
</svg>
