<svg width="200" height="200" viewBox="0 0 200 200" fill="none" xmlns="http://www.w3.org/2000/svg">
<g clip-path="url(#clip0_592_8470)">
<path d="M5.6694 79.6431C5.6694 79.6431 0.902085 87.3648 1.45706 91.7811C2.01203 96.1974 29.0784 181.345 32.945 181.345C36.8116 181.345 82.1103 168.078 84.867 165.866C87.6236 163.653 89.5615 158.59 89.5615 158.59C89.5615 158.59 64.433 70.7741 57.8006 70.2186C51.1682 69.6632 5.6694 79.6431 5.6694 79.6431Z" fill="white"/>
<path d="M32.9441 181.801C32.2345 181.801 30.0873 181.801 15.5306 138.366C8.1795 116.449 1.29236 94.0851 1.01033 91.836C0.446254 87.3105 5.0953 79.7162 5.28636 79.3975C5.35004 79.2883 5.45922 79.2154 5.57749 79.1881C7.34249 78.8057 48.8018 69.7363 57.181 69.7363C57.4266 69.7363 57.645 69.7363 57.836 69.7636C64.5867 70.3282 87.4134 149.439 89.9973 158.463C90.0246 158.554 90.0246 158.654 89.9882 158.754C89.9063 158.964 87.9775 163.963 85.1572 166.221C82.0821 168.68 36.2466 181.801 32.9441 181.801ZM5.9596 80.0441C5.28636 81.1732 1.42883 87.8568 1.91102 91.7268C2.56607 96.9808 29.0684 179.233 32.9714 180.89C37.3748 180.836 82.073 167.514 84.584 165.511C86.9677 163.599 88.7508 159.383 89.0784 158.572C79.007 123.397 62.385 71.0658 57.7633 70.6742C57.5995 70.656 57.3993 70.656 57.181 70.656C49.1839 70.656 9.0893 79.3611 5.9596 80.0441Z" fill="#261D2A"/>
<path d="M5.66826 79.6435C5.66826 79.6435 59.8374 60.8218 62.2119 64.109C64.5865 67.3962 90.9432 156.76 89.5604 158.6C88.1775 160.439 38.4299 177.585 34.5542 175.682C30.6785 173.779 2.4021 80.0168 5.66826 79.6435Z" fill="#FDCF61"/>
<path d="M19.6892 88.4666C19.6892 88.4666 56.6996 73.5423 58.3554 77.4122C60.0113 81.2822 76.5877 142.1 76.5877 144.312C76.5877 146.525 39.5773 160.348 37.9215 157.579C36.2657 154.811 13.6118 91.2257 19.6892 88.4666Z" fill="#ED5443"/>
<path d="M27.9769 78.9698C27.7859 78.9698 27.613 78.8514 27.5493 78.6693C27.4674 78.4325 27.5857 78.1685 27.8222 78.0865C29.5781 77.4582 45.0719 71.9766 46.7551 71.9766C47.0098 71.9766 47.21 72.1769 47.21 72.4319C47.21 72.6868 47.0098 72.8871 46.7551 72.8871C45.5996 72.8871 34.9823 76.5112 28.1225 78.9425C28.0679 78.9607 28.0224 78.9698 27.9678 78.9698H27.9769Z" fill="#261D2A"/>
<path d="M53.715 165.256C53.5148 165.256 53.3601 165.237 53.2328 165.192C51.3586 164.564 50.7763 160.83 50.7126 160.402C50.6853 160.184 50.8127 159.974 51.0311 159.901L68.7084 154.374C68.8448 154.329 68.9995 154.356 69.1178 154.447C71.4468 156.195 72.0291 159.564 72.0564 159.71C72.0928 159.929 71.9654 160.147 71.7562 160.22C71.1375 160.43 56.6263 165.256 53.715 165.256ZM51.6861 160.657C51.9409 162.05 52.605 164.026 53.5239 164.336C53.5239 164.336 53.5694 164.354 53.715 164.354C56.226 164.354 68.7084 160.275 71.0738 159.492C70.8646 158.645 70.2277 156.56 68.7539 155.33L51.6861 160.666V160.657Z" fill="#261D2A"/>
<path d="M195.279 71.3472C195.279 71.3472 200.046 79.0689 199.491 83.4852C198.936 87.9015 171.87 173.05 168.003 173.05C164.137 173.05 118.838 159.782 116.081 157.57C113.325 155.357 111.387 150.294 111.387 150.294C111.387 150.294 136.515 62.4782 143.148 61.9228C149.78 61.3673 195.279 71.3381 195.279 71.3381V71.3472Z" fill="white"/>
<path d="M168.012 173.505C164.71 173.505 118.874 160.384 115.799 157.925C112.97 155.658 111.05 150.668 110.968 150.458C110.932 150.367 110.932 150.267 110.959 150.167C113.543 141.143 136.369 62.0323 143.12 61.4677C143.311 61.4495 143.53 61.4404 143.775 61.4404C152.154 61.4404 193.623 70.5098 195.379 70.8922C195.497 70.9195 195.606 70.9924 195.67 71.1016C195.87 71.4204 200.51 79.0055 199.946 83.5401C199.664 85.7892 192.768 108.153 185.426 130.071C170.869 173.505 168.713 173.505 168.012 173.505ZM111.878 150.267C112.205 151.087 113.989 155.303 116.372 157.215C118.883 159.227 163.581 172.54 167.985 172.595C169.268 172.039 174.344 160.338 184.78 129.151C192.003 107.561 198.781 85.598 199.045 83.4309C199.527 79.5609 195.67 72.8773 194.997 71.7482C191.867 71.0652 151.772 62.3601 143.775 62.3601C143.557 62.3601 143.357 62.3601 143.193 62.3783C140.655 62.5878 130.219 86.1808 111.878 150.267Z" fill="#261D2A"/>
<path d="M195.279 71.3476C195.279 71.3476 141.109 52.5259 138.735 55.8131C136.36 59.1003 110.004 148.464 111.387 150.304C112.769 152.143 162.517 169.289 166.393 167.386C170.268 165.483 198.545 71.73 195.279 71.3476Z" fill="#9E82DC"/>
<path d="M181.268 80.1707C181.268 80.1707 144.257 65.2464 142.601 69.1163C140.946 72.9863 124.369 133.804 124.369 136.016C124.369 138.229 161.38 152.052 163.035 149.284C164.691 146.515 187.345 82.9389 181.268 80.1707Z" fill="#212438"/>
<path d="M172.98 70.6739C172.926 70.6739 172.88 70.6739 172.826 70.6466C165.975 68.2153 155.358 64.5912 154.193 64.5912C153.938 64.5912 153.738 64.3909 153.738 64.136C153.738 63.881 153.938 63.6807 154.193 63.6807C155.876 63.6807 171.37 69.1623 173.126 69.7906C173.363 69.8726 173.49 70.1367 173.399 70.3734C173.335 70.5646 173.153 70.6739 172.971 70.6739H172.98Z" fill="#261D2A"/>
<path d="M147.241 156.96C144.339 156.96 129.818 152.124 129.2 151.924C128.99 151.851 128.854 151.642 128.899 151.414C128.927 151.268 129.509 147.899 131.838 146.151C131.956 146.06 132.111 146.042 132.247 146.078L149.925 151.605C150.134 151.669 150.27 151.888 150.243 152.106C150.179 152.534 149.597 156.277 147.723 156.896C147.596 156.941 147.441 156.96 147.241 156.96ZM129.873 151.186C132.238 151.97 144.73 156.049 147.241 156.049C147.377 156.049 147.432 156.031 147.432 156.031C148.442 155.694 149.051 153.499 149.27 152.352L132.202 147.016C130.719 148.254 130.082 150.331 129.873 151.186Z" fill="#261D2A"/>
<path d="M165.191 90.5518C165.191 90.5518 113.305 69.1441 108.329 79.0967C103.352 89.0493 87.8856 119.454 89.5505 125.536C91.2154 131.619 144.684 128.341 150.206 131.109C157.285 134.651 169.066 108.235 165.2 90.5518H165.191Z" fill="#EEB08F"/>
<path d="M128.317 67.4685C127.971 67.4685 127.671 67.4685 126.807 64.0356C123.905 63.4802 123.659 63.1433 123.559 63.0158C123.477 62.9065 123.441 62.6971 123.477 62.5605C123.532 62.3693 123.65 61.9413 126.971 60.5937C128.162 57.4795 128.572 57.4795 128.845 57.4795C128.99 57.4795 129.181 57.5797 129.272 57.698C129.491 57.9894 129.682 58.7361 129.973 59.9289C130.064 60.3023 130.173 60.7485 130.237 60.9488C130.41 61.0307 130.792 61.1673 131.11 61.2766C132.821 61.8867 133.266 62.1052 133.348 62.515C133.376 62.6698 133.303 62.8974 133.184 63.0067C132.839 63.3163 131.192 63.9355 130.319 64.2451C128.908 67.4503 128.608 67.4594 128.335 67.4776C128.335 67.4776 128.317 67.4776 128.308 67.4776L128.317 67.4685ZM124.733 62.6243C125.315 62.7882 126.361 63.0249 127.262 63.1979C127.435 63.2343 127.58 63.3618 127.617 63.5348C127.853 64.4818 128.153 65.5563 128.372 66.1755C128.69 65.5927 129.172 64.582 129.564 63.6896C129.618 63.5713 129.709 63.4802 129.827 63.4438C130.601 63.1706 131.474 62.8337 132.038 62.5969C131.656 62.433 131.137 62.2509 130.81 62.1325C129.827 61.7865 129.645 61.7046 129.518 61.5316C129.409 61.3859 129.336 61.14 129.1 60.1475C129.009 59.7832 128.872 59.2369 128.754 58.818C128.463 59.3735 128.071 60.2932 127.762 61.1127C127.717 61.2311 127.626 61.3312 127.507 61.3768C126.498 61.7774 125.351 62.2964 124.742 62.6334L124.733 62.6243Z" fill="#261D2A"/>
<path d="M5.90457 141.517C5.65892 141.517 5.3223 141.49 3.61189 138.649C3.0933 138.704 1.99245 138.804 1.21913 138.804C0.582271 138.804 0.354823 138.731 0.209256 138.622C0.10008 138.54 3.02948e-06 138.348 3.02948e-06 138.212C3.02948e-06 138.021 -0.0181928 137.565 2.76578 135.307C3.01142 131.756 3.42993 131.756 3.80294 131.756C3.90302 131.756 4.03949 131.801 4.12137 131.865C4.4125 132.075 4.81281 132.739 5.44057 133.796C5.63163 134.123 5.86817 134.515 5.98645 134.688C6.1775 134.706 6.57781 134.733 6.91444 134.743C8.73403 134.825 9.21622 134.897 9.41637 135.271C9.48915 135.416 9.48006 135.653 9.39817 135.79C9.15253 136.19 7.76055 137.256 7.02361 137.802C6.61421 141.28 6.32307 141.381 6.07743 141.472C6.02284 141.49 5.95006 141.508 5.90457 141.499V141.517ZM3.84843 137.711C4.0031 137.711 4.15776 137.793 4.23964 137.93C4.74003 138.767 5.34049 139.705 5.7408 140.233C5.87727 139.578 6.04104 138.476 6.15021 137.511C6.16841 137.383 6.23209 137.274 6.33217 137.192C6.99632 136.7 7.73325 136.127 8.19725 135.735C7.77874 135.69 7.24196 135.671 6.88714 135.653C5.84998 135.608 5.64982 135.58 5.47696 135.462C5.3314 135.353 5.19493 135.134 4.66725 134.26C4.47619 133.941 4.18506 133.45 3.94851 133.085C3.83933 133.704 3.73016 134.697 3.66647 135.571C3.66647 135.699 3.59369 135.817 3.49361 135.899C2.6566 136.573 1.71951 137.392 1.22822 137.902C2.19261 137.902 3.78475 137.72 3.80294 137.72C3.82114 137.72 3.83933 137.72 3.85753 137.72L3.84843 137.711Z" fill="#261D2A"/>
<path d="M193.704 143.629C193.349 143.629 193.048 143.629 192.312 140.142C189.427 139.477 189.2 139.131 189.109 139.004C189.027 138.885 189 138.676 189.045 138.548C189.109 138.366 189.246 137.929 192.612 136.718C193.913 133.677 194.313 133.677 194.586 133.677C194.732 133.677 194.941 133.786 195.023 133.914C195.223 134.214 195.396 134.961 195.641 136.163C195.714 136.536 195.814 136.982 195.869 137.192C196.042 137.274 196.415 137.428 196.724 137.547C198.416 138.23 198.844 138.448 198.917 138.867C198.944 139.022 198.853 139.249 198.726 139.35C198.371 139.65 196.697 140.196 195.823 140.479C194.295 143.629 193.995 143.629 193.722 143.638L193.704 143.629ZM190.283 138.658C190.856 138.849 191.893 139.122 192.794 139.322C192.967 139.359 193.103 139.495 193.139 139.677C193.34 140.624 193.603 141.717 193.794 142.345C194.14 141.772 194.659 140.779 195.077 139.905C195.132 139.796 195.232 139.705 195.35 139.668C196.133 139.422 197.024 139.122 197.588 138.903C197.206 138.73 196.706 138.521 196.378 138.394C195.414 138.011 195.232 137.92 195.114 137.747C195.005 137.592 194.95 137.346 194.741 136.345C194.668 135.981 194.55 135.425 194.44 134.997C194.131 135.543 193.704 136.445 193.358 137.255C193.312 137.374 193.212 137.465 193.094 137.51C192.066 137.875 190.91 138.348 190.283 138.667V138.658Z" fill="#261D2A"/>
<path d="M39.8675 41.5812H39.8584C39.0214 41.5812 38.2481 41.2534 37.6567 40.6615C37.0654 40.0696 36.747 39.2865 36.756 38.4488C36.756 36.7369 38.1571 35.3438 39.8675 35.3438C40.7137 35.3438 41.4961 35.6716 42.0783 36.2634C42.6606 36.8553 42.9881 37.6384 42.979 38.4761C42.979 40.188 41.578 41.5812 39.8675 41.5812ZM39.8766 36.2543C38.6575 36.2543 37.6658 37.2377 37.6567 38.4488C37.6567 39.0407 37.8842 39.5961 38.2936 40.015C38.7121 40.4339 39.258 40.6615 39.8493 40.6706V41.1259L39.8584 40.6706C41.0685 40.6706 42.0601 39.6872 42.0601 38.4761C42.0601 37.8843 41.8327 37.3288 41.4233 36.9099C41.0048 36.4911 40.4589 36.2634 39.8675 36.2543H39.8766Z" fill="#261D2A"/>
<path d="M176.791 57.0607H176.782C175.945 57.0607 175.172 56.7329 174.581 56.141C173.989 55.5491 173.671 54.766 173.68 53.9283C173.68 52.2164 175.081 50.8232 176.791 50.8232C177.637 50.8232 178.42 51.151 179.002 51.7429C179.584 52.3348 179.912 53.1179 179.903 53.9556C179.903 55.6675 178.502 57.0607 176.791 57.0607ZM176.8 51.7338C175.581 51.7338 174.59 52.7172 174.581 53.9283C174.581 54.5202 174.808 55.0756 175.217 55.4945C175.636 55.9134 176.182 56.141 176.773 56.1501V56.6054L176.782 56.1501C177.992 56.1501 178.984 55.1667 178.984 53.9556C178.984 53.3637 178.757 52.8083 178.347 52.3894C177.929 51.9706 177.383 51.7429 176.791 51.7338H176.8Z" fill="#261D2A"/>
<path d="M94.9554 195.596H94.9463C94.1093 195.596 93.336 195.268 92.7446 194.676C92.1533 194.084 91.8348 193.301 91.8439 192.463C91.8439 190.752 93.245 189.358 94.9554 189.358C95.8015 189.358 96.584 189.686 97.1662 190.278C97.7485 190.87 98.076 191.653 98.0669 192.491C98.0669 194.203 96.6659 195.596 94.9554 195.596ZM94.9645 190.269C93.7454 190.269 92.7537 191.252 92.7446 192.463C92.7446 193.055 92.9721 193.611 93.3815 194.03C93.8 194.449 94.3459 194.676 94.9372 194.685V195.141L94.9463 194.685C96.1564 194.685 97.148 193.702 97.148 192.491C97.148 191.899 96.9206 191.343 96.5112 190.925C96.0927 190.506 95.5468 190.278 94.9554 190.269H94.9645Z" fill="#261D2A"/>
<path d="M64.1056 184.924C64.1056 184.924 63.2504 178.851 69.1095 180.763C74.9776 182.675 73.1217 188.257 70.8745 186.372C68.6273 184.487 72.7487 177.995 77.243 180.827C81.7465 183.659 80.8003 189.25 77.6251 189.687C74.4591 190.133 79.4811 183.167 83.5206 187.401C87.5601 191.626 78.908 199.494 75.3143 196.671C71.7206 193.848 74.4682 189.204 75.3507 192.009C76.2332 194.813 73.9496 197.591 67.6265 197.545C61.2943 197.499 64.0783 187.72 66.3255 190.543C68.5636 193.356 64.9244 196.598 60.43 193.293C55.9357 189.996 60.9577 183.04 64.1056 184.924Z" fill="white"/>
<path d="M67.7893 198H67.6256C65.5421 197.982 64.0592 196.935 63.5133 195.105C62.4215 194.968 61.2661 194.476 60.1652 193.666C58.373 192.355 57.7634 190.342 58.4821 188.148C59.31 185.625 61.7301 183.759 63.6225 184.241C63.6225 183.376 63.7498 181.965 64.5959 180.991C65.5603 179.88 67.1434 179.652 69.2723 180.344C70.0729 180.608 70.7825 180.945 71.3739 181.364C73.057 179.579 75.468 179.169 77.5059 180.453C79.4529 181.674 80.6447 183.568 80.7812 185.589C81.9093 185.625 82.9556 186.126 83.8745 187.101C85.1573 188.439 85.4029 190.251 84.5659 192.209C83.3104 195.15 79.8623 197.736 77.1875 197.736C76.3596 197.736 75.6408 197.499 75.0586 197.044C74.7856 196.835 74.54 196.598 74.3216 196.361C72.8933 197.445 70.6461 198.018 67.8075 198.018L67.7893 198ZM64.4777 195.123C64.8598 196.106 65.715 197.071 67.6347 197.09H67.7893C71.0373 197.09 72.8114 196.334 73.7576 195.614C72.866 194.167 72.9206 192.582 73.4209 191.599C73.7121 191.016 74.1397 190.688 74.6037 190.688C74.913 190.688 75.468 190.843 75.7955 191.872C76.2413 193.283 75.9411 194.668 74.9767 195.733C75.1587 195.942 75.3679 196.134 75.6045 196.316C76.0321 196.653 76.5597 196.816 77.1784 196.816C79.4893 196.816 82.6099 194.44 83.7198 191.836C84.202 190.706 84.5022 189.077 83.2103 187.72C82.4643 186.937 81.6364 186.527 80.763 186.491C80.5719 188.439 79.3619 189.905 77.7152 190.142C76.5961 190.297 76.2231 189.705 76.1958 189.159C76.1412 188.011 77.7698 186.063 79.8714 185.653C79.7622 183.914 78.716 182.275 77.0237 181.209C75.3588 180.162 73.4755 180.481 72.0836 181.919C73.4664 183.24 73.7303 184.861 73.3482 185.953C72.9115 187.183 71.6287 187.583 70.6006 186.718C69.3451 185.671 69.709 183.613 70.7916 182.056C70.2822 181.71 69.6726 181.419 68.9812 181.2C67.2343 180.636 65.9879 180.754 65.2783 181.573C64.2775 182.721 64.5687 184.842 64.5687 184.861C64.5959 185.034 64.5141 185.207 64.3685 185.307C64.2229 185.398 64.0319 185.407 63.8863 185.316C63.6043 185.143 63.2949 185.061 62.9583 185.061C61.5754 185.061 59.9469 186.572 59.3464 188.421C59.0644 189.268 58.6459 191.417 60.7111 192.928C61.5936 193.575 62.4852 193.994 63.3404 194.158C63.1949 192.746 63.5497 191.162 64.2593 190.269C64.7142 189.696 65.1782 189.577 65.4875 189.577C65.7969 189.577 66.2518 189.696 66.6976 190.26C67.5073 191.28 67.6983 192.437 67.2161 193.438C66.7522 194.394 65.7332 195.032 64.4959 195.132L64.4777 195.123ZM74.6037 191.59C74.5491 191.59 74.3944 191.69 74.2398 192C73.894 192.692 73.8395 193.857 74.4399 194.959C75.0768 194.158 75.2587 193.174 74.9312 192.136C74.7856 191.681 74.631 191.59 74.6037 191.59ZM65.4784 190.479C65.3238 190.479 65.1418 190.606 64.9599 190.825C64.4322 191.48 64.0592 192.883 64.2502 194.221C65.2328 194.185 66.0425 193.739 66.3882 193.028C66.7158 192.355 66.5611 191.553 65.9788 190.816C65.8606 190.661 65.6695 190.479 65.4784 190.479ZM79.8259 186.591C78.2247 187.01 77.0692 188.53 77.0965 189.113C77.0965 189.177 77.0965 189.25 77.3695 189.25C77.4331 189.25 77.5059 189.25 77.5787 189.231C78.7523 189.067 79.6257 188.011 79.8259 186.591ZM71.4922 182.63C70.5915 183.941 70.4277 185.407 71.1738 186.026C71.7287 186.491 72.2382 186.318 72.4748 185.653C72.7568 184.861 72.5384 183.659 71.4922 182.63Z" fill="#261D2A"/>
<path d="M146.668 36.8189C146.668 36.8189 145.813 30.7454 151.672 32.6576C157.54 34.5698 155.684 40.1516 153.437 38.2668C151.19 36.3819 155.311 29.8895 159.806 32.7213C164.309 35.5532 163.363 41.1442 160.188 41.5813C157.022 42.0274 162.044 35.0615 166.083 39.2957C170.123 43.5208 161.47 51.3882 157.877 48.5654C154.283 45.7426 157.031 41.0986 157.913 43.9032C158.796 46.7078 156.512 49.4851 150.189 49.4395C143.866 49.394 146.641 39.6144 148.888 42.4372C151.126 45.2509 147.487 48.4925 142.993 45.1871C138.498 41.8909 143.52 34.934 146.668 36.8189Z" fill="white"/>
<path d="M150.343 49.8944H150.18C148.096 49.8762 146.613 48.829 146.067 46.9988C144.976 46.8622 143.82 46.3705 142.71 45.56C140.918 44.2488 140.308 42.2364 141.027 40.0419C141.855 37.5196 144.275 35.6621 146.167 36.1356C146.167 35.2705 146.295 33.8591 147.141 32.8848C148.105 31.7739 149.688 31.5463 151.817 32.2383C152.618 32.5024 153.327 32.8393 153.919 33.2581C155.602 31.4643 158.013 31.0637 160.051 32.3476C161.998 33.5677 163.19 35.4617 163.326 37.4832C164.454 37.5196 165.501 38.0205 166.419 38.9948C167.702 40.3333 167.948 42.1454 167.111 44.1031C165.855 47.0534 162.407 49.6303 159.732 49.6303C158.905 49.6303 158.186 49.3936 157.603 48.9383C157.331 48.7288 157.085 48.4921 156.867 48.2553C155.438 49.3389 153.191 49.9126 150.352 49.9126L150.343 49.8944ZM147.032 47.017C147.414 48.0004 148.269 48.9656 150.189 48.9838H150.343C153.591 48.9838 155.365 48.228 156.312 47.5087C155.42 46.0609 155.475 44.4765 155.975 43.493C156.266 42.9103 156.694 42.5825 157.158 42.5825C157.467 42.5825 158.022 42.7373 158.35 43.7662C158.795 45.1776 158.495 46.5617 157.54 47.627C157.722 47.8365 157.931 48.0277 158.168 48.2098C158.595 48.5467 159.123 48.7106 159.742 48.7106C162.052 48.7106 165.173 46.334 166.283 43.7298C166.765 42.6007 167.065 40.9707 165.773 39.614C165.027 38.8309 164.2 38.4211 163.326 38.3847C163.135 40.3333 161.925 41.7994 160.269 42.0361C159.15 42.1909 158.777 41.599 158.75 41.0527C158.695 39.9054 160.324 37.9567 162.425 37.547C162.316 35.8078 161.27 34.1687 159.578 33.1034C157.913 32.0562 156.03 32.3749 154.638 33.8136C156.02 35.1339 156.284 36.7548 155.902 37.8475C155.629 38.6214 155.038 39.1041 154.356 39.1041C153.955 39.1041 153.537 38.931 153.155 38.6123C151.899 37.5652 152.263 35.5073 153.346 33.9502C152.836 33.6042 152.227 33.3128 151.535 33.0942C149.788 32.5297 148.542 32.6481 147.832 33.4676C146.832 34.6149 147.123 36.7366 147.123 36.7548C147.15 36.9278 147.068 37.1008 146.923 37.2009C146.777 37.3011 146.586 37.3011 146.44 37.2101C146.158 37.037 145.849 36.9551 145.512 36.9551C144.129 36.9551 142.501 38.4666 141.9 40.3151C141.618 41.162 141.2 43.3109 143.256 44.8225C144.139 45.469 145.03 45.8878 145.885 46.0518C145.74 44.6404 146.095 43.056 146.804 42.1636C147.259 41.5899 147.723 41.4716 148.032 41.4716C148.342 41.4716 148.797 41.5899 149.242 42.1545C150.052 43.1743 150.243 44.3308 149.761 45.3324C149.297 46.2885 148.278 46.9168 147.041 47.0261L147.032 47.017ZM157.149 43.4839C157.103 43.4839 156.939 43.5841 156.785 43.8937C156.439 44.5857 156.384 45.7513 156.985 46.8531C157.622 46.0518 157.804 45.0683 157.476 44.0303C157.331 43.575 157.176 43.4839 157.149 43.4839ZM148.023 42.373C147.869 42.373 147.687 42.5005 147.505 42.719C146.977 43.3747 146.604 44.7769 146.795 46.1155C147.778 46.0791 148.587 45.6329 148.933 44.9226C149.261 44.2488 149.106 43.4475 148.524 42.7099C148.405 42.5551 148.214 42.373 148.023 42.373ZM162.371 38.4849C160.77 38.9037 159.614 40.4244 159.641 41.0072C159.641 41.0709 159.641 41.1437 159.914 41.1437C159.978 41.1437 160.051 41.1437 160.124 41.1255C161.297 40.9616 162.171 39.9054 162.371 38.4849ZM154.037 34.5238C153.136 35.8351 152.973 37.3011 153.719 37.9203C154.274 38.3847 154.783 38.2117 155.02 37.547C155.302 36.7548 155.083 35.5528 154.037 34.5238Z" fill="#261D2A"/>
<path d="M23.4007 58.3453C23.4007 58.3453 23.3461 58.3453 23.3279 58.3453C22.0815 58.1905 17.0685 45.1237 16.4589 43.3481C15.6674 41.0534 15.7675 40.8076 15.9949 40.5799C15.9949 40.5799 16.0313 40.5435 16.0586 40.5253C16.1041 40.498 16.1496 40.4707 16.1951 40.4524C16.1951 40.4524 16.2042 40.4524 16.2133 40.4524C16.2497 40.4433 16.277 40.4342 16.3134 40.4342C16.368 40.4342 16.4225 40.416 16.4498 40.416C17.9237 40.416 32.9626 45.8157 33.9725 47.4639C34.0907 47.6642 34.1089 47.8827 34.018 48.0649C33.4266 49.2486 29.9876 49.9953 29.3052 50.1319C29.1779 50.1592 29.0505 50.1319 28.9504 50.0499C25.6479 47.6551 20.7532 44.1767 18.0966 42.4193C20.1072 44.6411 23.901 48.5475 26.5213 51.1972C26.6395 51.3156 26.685 51.4886 26.6304 51.6525C24.5834 58.3635 23.6918 58.3635 23.4007 58.3635V58.3453ZM17.205 42.7744C18.5424 46.7354 22.3635 55.7683 23.4371 57.3163C23.9556 56.6243 24.9473 54.02 25.6842 51.6343C20.9624 46.8629 18.4878 44.2404 17.205 42.7744ZM19.1155 42.0095C21.7448 43.7396 25.7661 46.6079 29.3143 49.1849C30.8519 48.8571 32.5623 48.2834 33.0718 47.8008C31.8435 46.699 23.5644 43.4482 19.1064 42.0095H19.1155Z" fill="#261D2A"/>
<path d="M27.6043 56.296C27.6043 56.296 27.5133 56.296 27.4679 56.2869C26.6945 56.1503 25.5391 54.6023 25.0842 53.9376C24.9386 53.7282 24.9932 53.4459 25.1934 53.3002C25.4026 53.1545 25.6847 53.2091 25.8302 53.4095C26.4398 54.2836 27.1767 55.1122 27.5224 55.3308C27.7954 54.7207 28.3504 52.0436 28.7234 49.7307C28.7598 49.4849 28.9963 49.3028 29.242 49.3574C29.4876 49.3938 29.6605 49.6306 29.615 49.8764C28.9963 53.7282 28.4504 55.8407 27.9955 56.1685C27.9137 56.2323 27.7772 56.296 27.6043 56.296Z" fill="#261D2A"/>
<path d="M184.397 178.268C184.106 178.268 183.215 178.268 181.168 171.557C181.122 171.393 181.168 171.22 181.277 171.102C183.915 168.434 187.755 164.482 189.747 162.269C187.145 163.999 182.187 167.532 178.848 169.954C178.748 170.027 178.62 170.054 178.493 170.036C177.811 169.9 174.372 169.153 173.78 167.969C173.689 167.787 173.707 167.559 173.826 167.368C174.845 165.72 189.884 160.32 191.348 160.32C191.448 160.32 191.53 160.329 191.603 160.357C191.603 160.357 191.658 160.384 191.685 160.393C191.721 160.411 191.758 160.439 191.785 160.466C192.022 160.703 192.113 160.949 191.321 163.252C190.711 165.037 185.698 178.077 184.461 178.231H184.388L184.397 178.268ZM182.114 171.557C182.851 173.933 183.843 176.547 184.361 177.239C185.435 175.7 189.256 166.658 190.593 162.697C189.31 164.163 186.836 166.785 182.114 171.557ZM174.717 167.723C175.227 168.206 176.937 168.78 178.475 169.107C182.041 166.521 186.072 163.644 188.701 161.914C184.279 163.353 175.955 166.621 174.717 167.723Z" fill="#261D2A"/>
<path d="M180.193 176.228C180.021 176.228 179.884 176.164 179.802 176.101C179.347 175.773 178.801 173.66 178.183 169.809C178.146 169.563 178.31 169.326 178.556 169.29C178.801 169.244 179.038 169.417 179.074 169.663C179.438 171.93 179.984 174.553 180.294 175.254C180.639 175.026 181.367 174.207 181.968 173.342C182.113 173.132 182.395 173.087 182.604 173.232C182.814 173.378 182.859 173.66 182.714 173.87C182.25 174.534 181.094 176.082 180.33 176.219C180.284 176.219 180.239 176.228 180.193 176.228Z" fill="#261D2A"/>
<path d="M36.8105 102.289C36.8105 102.289 58.9094 90.1237 64.4319 82.9392C69.9543 75.7548 99.5317 65.274 109.176 71.3294C141.764 91.79 109.176 81.282 109.731 84.5965C110.286 87.911 106.419 80.7265 109.731 84.5965C113.042 88.4664 116.327 83.3581 123.541 90.6791C142.656 110.084 131.884 128.095 119.183 133.622C106.483 139.149 88.6688 128.195 79.9075 130.49C67.2068 133.804 47.8645 142.655 45.6628 135.461C43.4611 128.268 36.8287 102.289 36.8287 102.289H36.8105Z" fill="#CF8B73"/>
<path d="M78.5879 131.118C78.5879 131.118 81.5811 110.22 88.6866 110.22C92.8899 110.22 87.0854 128.113 87.0854 128.113C87.0854 128.113 95.4646 105.358 100.614 110.22C104.744 114.118 98.7762 129.261 98.7762 129.261C98.7762 129.261 108.202 109.465 112.068 113.89C115.935 118.315 110.922 130.18 110.922 130.18C110.922 130.18 117.027 114.91 120.093 117.787C123.759 121.229 120.184 133.987 114.588 136.6C111.149 138.202 97.3842 138.002 78.5879 131.118Z" fill="#EEB08F"/>
<path d="M117.464 75.1904C117.464 75.1904 88.1872 79.0604 95.3655 85.143C102.544 91.2257 114.417 83.8864 118.565 89.5684C123.76 96.6709 132.913 102.471 138.435 98.055C143.958 93.6387 140.5 73.9611 117.464 75.1995V75.1904Z" fill="#EEB08F"/>
<path d="M86.1659 118.498C86.0567 118.498 85.9567 118.479 85.8475 118.452C84.3463 118.006 84.4828 114.291 84.5556 113.162C84.5738 112.916 84.8012 112.715 85.0378 112.743C85.2925 112.761 85.4745 112.979 85.4654 113.225C85.338 115.156 85.5654 117.414 86.1113 117.578C86.1932 117.605 86.9574 117.705 88.9772 114.118C89.1045 113.899 89.3775 113.817 89.5958 113.945C89.8142 114.072 89.8961 114.345 89.7687 114.564C88.2493 117.259 87.1212 118.498 86.1659 118.498Z" fill="#261D2A"/>
<path d="M96.1465 120.619C96.0009 120.619 95.8644 120.592 95.7461 120.546C94.154 119.954 94.7818 115.474 95.1184 113.571C95.1639 113.325 95.3913 113.161 95.6461 113.207C95.8917 113.252 96.0555 113.489 96.01 113.735C95.4732 116.694 95.5005 119.481 96.0555 119.69C96.1556 119.727 97.129 119.9 100.441 114.336C100.568 114.117 100.85 114.045 101.068 114.181C101.287 114.309 101.35 114.591 101.223 114.809C98.3664 119.608 96.9926 120.628 96.1374 120.628L96.1465 120.619Z" fill="#261D2A"/>
<path d="M108.748 124.042C108.639 124.042 108.538 124.024 108.438 123.988C106.955 123.505 107.438 119.116 107.72 117.25C107.756 117.004 107.983 116.831 108.238 116.867C108.484 116.904 108.657 117.131 108.62 117.386C108.165 120.446 108.293 122.986 108.72 123.123C108.72 123.123 109.603 123.332 112.587 117.568C112.705 117.341 112.978 117.259 113.197 117.377C113.424 117.495 113.506 117.769 113.388 117.987C110.786 123.023 109.539 124.033 108.748 124.033V124.042Z" fill="#261D2A"/>
<path d="M117.79 127.712C117.717 127.712 117.645 127.703 117.572 127.685C116.207 127.366 116.271 123.487 116.434 121.202C116.453 120.947 116.671 120.756 116.917 120.783C117.171 120.801 117.353 121.02 117.335 121.265C117.144 123.97 117.353 126.565 117.781 126.802C117.836 126.793 118.609 126.583 120.583 121.748C120.674 121.511 120.947 121.402 121.175 121.502C121.411 121.593 121.52 121.866 121.42 122.094C119.501 126.811 118.509 127.712 117.781 127.712H117.79Z" fill="#261D2A"/>
<path d="M132.375 99.1846C131.083 99.1846 129.8 98.9843 128.544 98.5837C121.266 96.2435 117.317 88.0483 117.154 87.7023C117.044 87.4746 117.145 87.2015 117.372 87.0922C117.599 86.9829 117.872 87.0831 117.982 87.3107C118.018 87.3927 121.93 95.5059 128.826 97.7186C132.183 98.7931 135.723 98.3105 139.353 96.289C139.571 96.1706 139.853 96.2435 139.971 96.462C140.09 96.6806 140.017 96.9628 139.798 97.0812C137.278 98.4835 134.795 99.1846 132.375 99.1846Z" fill="#261D2A"/>
<path d="M99.9226 85.8903C99.8044 85.8903 99.6861 85.8447 99.5951 85.7537C99.4222 85.5716 99.4313 85.2802 99.6133 85.1072C103.662 81.2372 103.598 80.3904 103.58 80.3084C103.189 80.0444 100.605 80.9003 98.0758 82.166C97.8483 82.2753 97.5754 82.1842 97.4662 81.9657C97.357 81.738 97.448 81.4649 97.6663 81.3556C99.8135 80.2811 103.525 78.6512 104.335 79.7985C104.781 80.4359 104.599 81.6014 100.25 85.7537C100.159 85.8356 100.05 85.8812 99.9317 85.8812L99.9226 85.8903Z" fill="#261D2A"/>
<path d="M84.2153 12.2241C84.2153 12.2241 105.321 2.06054 120.602 13.2932C135.883 24.5258 126.486 51.2447 108.826 55.1369C108.826 55.1369 106.544 63.0645 104.724 61.5362C102.487 59.6541 99.2054 56.9212 99.2054 56.9212C99.2054 56.9212 85.6248 58.2161 75.43 48.2784C65.2427 38.3407 70.2916 21.7176 84.2153 12.2166V12.2241Z" fill="#CA7A8C"/>
<path d="M162.016 192.199C161.533 192.199 161.033 192.172 160.542 192.127C160.296 192.099 160.105 191.881 160.132 191.626C160.16 191.371 160.378 191.198 160.633 191.216C161.224 191.271 161.825 191.289 162.398 191.28C162.634 191.262 162.862 191.471 162.862 191.726C162.862 191.981 162.671 192.19 162.416 192.19C162.279 192.19 162.152 192.19 162.016 192.19V192.199ZM164.208 192.017C163.99 192.017 163.799 191.863 163.762 191.635C163.717 191.389 163.89 191.152 164.135 191.107C164.718 191.007 165.291 190.87 165.837 190.697C166.073 190.624 166.328 190.752 166.41 190.988C166.483 191.225 166.355 191.48 166.119 191.562C165.527 191.753 164.918 191.899 164.29 191.999C164.263 191.999 164.236 191.999 164.217 191.999L164.208 192.017ZM158.786 191.853C158.786 191.853 158.722 191.853 158.695 191.844C158.103 191.726 157.503 191.571 156.893 191.38C156.657 191.307 156.52 191.052 156.593 190.815C156.666 190.579 156.921 190.442 157.157 190.515C157.74 190.697 158.322 190.843 158.877 190.961C159.122 191.016 159.277 191.252 159.232 191.498C159.186 191.717 158.995 191.863 158.786 191.863V191.853ZM167.656 190.916C167.483 190.916 167.329 190.824 167.247 190.661C167.138 190.433 167.229 190.16 167.456 190.05C167.975 189.796 168.484 189.504 168.976 189.176C169.185 189.04 169.467 189.094 169.603 189.304C169.74 189.513 169.685 189.796 169.476 189.932C168.948 190.287 168.402 190.606 167.847 190.87C167.784 190.897 167.711 190.916 167.647 190.916H167.656ZM155.301 190.815C155.247 190.815 155.192 190.806 155.138 190.788C154.537 190.56 153.955 190.315 153.427 190.069C153.2 189.959 153.1 189.686 153.209 189.459C153.318 189.231 153.591 189.14 153.818 189.24C154.328 189.486 154.883 189.714 155.456 189.932C155.693 190.023 155.811 190.287 155.72 190.515C155.647 190.697 155.474 190.806 155.292 190.806L155.301 190.815ZM141.827 189.513H141.645C141.391 189.513 141.19 189.304 141.2 189.049C141.2 188.794 141.391 188.621 141.664 188.603H141.836C142.4 188.603 142.937 188.584 143.456 188.557C143.701 188.53 143.92 188.739 143.938 188.985C143.947 189.24 143.756 189.449 143.51 189.468C142.983 189.495 142.428 189.513 141.845 189.513H141.827ZM139.835 189.459C139.835 189.459 139.817 189.459 139.808 189.459C139.216 189.422 138.607 189.377 137.979 189.322C137.733 189.295 137.542 189.076 137.569 188.821C137.597 188.566 137.815 188.402 138.07 188.411C138.688 188.475 139.289 188.521 139.862 188.548C140.117 188.557 140.308 188.776 140.29 189.031C140.281 189.276 140.08 189.459 139.835 189.459ZM145.284 189.304C145.057 189.304 144.866 189.14 144.83 188.903C144.793 188.657 144.975 188.43 145.221 188.393C145.83 188.311 146.422 188.211 146.968 188.084C147.213 188.02 147.459 188.175 147.513 188.421C147.568 188.666 147.423 188.912 147.177 188.967C146.604 189.103 145.985 189.213 145.339 189.295C145.321 189.295 145.303 189.295 145.275 189.295L145.284 189.304ZM152.035 189.249C151.953 189.249 151.871 189.231 151.799 189.185C151.235 188.839 150.716 188.466 150.27 188.075C150.216 188.029 150.17 187.965 150.143 187.902C149.779 188.093 149.388 188.266 148.978 188.43C148.742 188.521 148.478 188.402 148.387 188.166C148.296 187.929 148.414 187.665 148.651 187.574C149.224 187.355 149.742 187.1 150.206 186.818C150.425 186.69 150.698 186.754 150.834 186.964C150.916 187.091 150.925 187.255 150.862 187.382C151.271 187.738 151.753 188.084 152.272 188.402C152.481 188.53 152.554 188.812 152.417 189.031C152.335 189.167 152.181 189.249 152.026 189.249H152.035ZM136.214 189.113C136.214 189.113 136.177 189.113 136.15 189.113C135.577 189.04 134.986 188.949 134.376 188.849L134.412 188.393L134.503 187.947C135.113 188.047 135.704 188.129 136.268 188.211C136.514 188.248 136.696 188.475 136.66 188.721C136.632 188.949 136.432 189.113 136.205 189.113H136.214ZM170.677 188.903C170.549 188.903 170.422 188.849 170.331 188.748C170.167 188.557 170.186 188.275 170.377 188.102C170.813 187.719 171.232 187.31 171.641 186.863C171.814 186.681 172.096 186.672 172.287 186.836C172.469 187.009 172.487 187.291 172.314 187.483C171.887 187.947 171.441 188.393 170.977 188.794C170.895 188.867 170.786 188.903 170.677 188.903ZM132.629 188.484C132.629 188.484 132.556 188.484 132.52 188.475C131.911 188.32 131.31 188.147 130.737 187.947C130.5 187.865 130.373 187.601 130.455 187.364C130.537 187.128 130.801 187 131.037 187.082C131.583 187.273 132.156 187.437 132.738 187.583C132.984 187.647 133.13 187.892 133.075 188.138C133.02 188.348 132.839 188.484 132.638 188.484H132.629ZM129.199 187.291C129.136 187.291 129.072 187.282 129.008 187.246C128.435 186.982 127.88 186.681 127.362 186.354C127.152 186.226 127.08 185.944 127.216 185.725C127.352 185.507 127.625 185.443 127.844 185.58C128.335 185.88 128.854 186.162 129.399 186.417C129.627 186.527 129.727 186.8 129.618 187.027C129.545 187.191 129.372 187.291 129.208 187.291H129.199ZM149.324 186.863C149.178 186.863 149.042 186.8 148.951 186.672C148.542 186.108 148.25 185.516 148.078 184.915C148.005 184.669 148.15 184.423 148.387 184.35C148.623 184.277 148.878 184.423 148.951 184.66C149.097 185.161 149.342 185.661 149.688 186.135C149.833 186.335 149.788 186.627 149.588 186.772C149.506 186.827 149.415 186.854 149.324 186.854V186.863ZM151.853 186.527C151.744 186.527 151.626 186.49 151.544 186.408C151.362 186.235 151.353 185.944 151.526 185.762C151.917 185.343 152.226 184.878 152.445 184.387C152.545 184.159 152.808 184.05 153.045 184.15C153.272 184.25 153.382 184.523 153.282 184.751C153.027 185.343 152.654 185.889 152.19 186.381C152.099 186.481 151.981 186.527 151.862 186.527H151.853ZM173.142 186.235C173.051 186.235 172.951 186.208 172.869 186.144C172.669 185.989 172.633 185.707 172.778 185.507C173.133 185.042 173.47 184.551 173.788 184.041C173.925 183.831 174.207 183.767 174.416 183.895C174.625 184.032 174.689 184.314 174.562 184.523C174.225 185.051 173.87 185.57 173.506 186.053C173.415 186.171 173.279 186.235 173.142 186.235ZM126.124 185.37C126.024 185.37 125.924 185.334 125.842 185.27C125.351 184.869 124.887 184.441 124.468 183.986C124.296 183.804 124.305 183.513 124.496 183.34C124.678 183.167 124.969 183.176 125.142 183.367C125.533 183.795 125.97 184.195 126.424 184.569C126.616 184.724 126.652 185.015 126.488 185.206C126.397 185.315 126.27 185.37 126.133 185.37H126.124ZM112.659 184.86C112.395 184.86 112.123 184.86 111.85 184.833C111.595 184.815 111.404 184.605 111.422 184.35C111.44 184.095 111.659 183.895 111.904 183.922C112.505 183.959 113.087 183.95 113.66 183.904C113.906 183.895 114.133 184.068 114.151 184.323C114.17 184.578 113.988 184.796 113.733 184.815C113.378 184.842 113.023 184.86 112.659 184.86ZM110.075 184.596C110.075 184.596 110.012 184.596 109.984 184.596C109.384 184.478 108.774 184.314 108.174 184.104C107.937 184.022 107.81 183.767 107.892 183.531C107.974 183.294 108.229 183.167 108.465 183.248C109.029 183.44 109.602 183.594 110.166 183.704C110.412 183.749 110.576 183.995 110.521 184.241C110.476 184.46 110.285 184.605 110.075 184.605V184.596ZM115.489 184.541C115.279 184.541 115.088 184.396 115.043 184.186C114.988 183.94 115.143 183.695 115.389 183.64C115.953 183.513 116.517 183.34 117.072 183.139C117.308 183.048 117.572 183.176 117.654 183.403C117.736 183.631 117.627 183.904 117.39 183.986C116.799 184.205 116.189 184.387 115.589 184.523C115.552 184.523 115.525 184.532 115.489 184.532V184.541ZM106.636 183.44C106.573 183.44 106.509 183.421 106.445 183.394C105.872 183.121 105.317 182.83 104.799 182.511C104.58 182.383 104.517 182.101 104.644 181.883C104.771 181.664 105.053 181.6 105.272 181.728C105.763 182.028 106.291 182.311 106.837 182.566C107.064 182.675 107.164 182.948 107.055 183.176C106.973 183.34 106.809 183.44 106.646 183.44H106.636ZM148.396 183.44C148.396 183.44 148.35 183.44 148.332 183.44C148.087 183.403 147.914 183.176 147.95 182.921C148.05 182.265 148.287 181.619 148.651 181.054C148.787 180.845 149.069 180.781 149.278 180.917C149.488 181.054 149.551 181.336 149.415 181.546C149.124 182.01 148.924 182.529 148.851 183.057C148.814 183.285 148.623 183.449 148.405 183.449L148.396 183.44ZM118.891 183.276C118.728 183.276 118.573 183.185 118.491 183.03C118.373 182.811 118.464 182.529 118.682 182.42C119.192 182.147 119.701 181.846 120.192 181.509C120.402 181.364 120.684 181.418 120.829 181.628C120.975 181.837 120.92 182.119 120.711 182.265C120.192 182.62 119.656 182.948 119.11 183.239C119.046 183.276 118.973 183.294 118.9 183.294L118.891 183.276ZM153.282 183.258C153.282 183.258 153.263 183.258 153.254 183.258C153 183.239 152.808 183.03 152.827 182.775C152.827 182.675 152.836 182.566 152.836 182.465C152.836 182.019 152.781 181.564 152.672 181.099C152.617 180.854 152.763 180.608 153.009 180.553C153.254 180.499 153.5 180.644 153.555 180.89C153.682 181.418 153.746 181.946 153.746 182.465C153.746 182.584 153.746 182.711 153.736 182.83C153.718 183.075 153.518 183.258 153.282 183.258ZM175.089 183.157C175.017 183.157 174.944 183.139 174.88 183.103C174.662 182.984 174.571 182.711 174.689 182.484C174.962 181.965 175.226 181.418 175.471 180.872C175.572 180.644 175.844 180.535 176.072 180.644C176.299 180.744 176.409 181.018 176.299 181.245C176.045 181.81 175.772 182.374 175.49 182.912C175.408 183.066 175.253 183.157 175.089 183.157ZM123.668 182.711C123.522 182.711 123.377 182.638 123.295 182.511C122.949 182.01 122.64 181.482 122.385 180.936C122.321 180.99 122.258 181.045 122.194 181.099C122.003 181.263 121.721 181.245 121.548 181.054C121.384 180.863 121.402 180.58 121.593 180.407C122.039 180.025 122.467 179.606 122.867 179.178C123.04 178.996 123.322 178.978 123.513 179.151C123.695 179.324 123.713 179.606 123.54 179.797C123.377 179.97 123.213 180.143 123.04 180.316C123.095 180.362 123.14 180.417 123.176 180.48C123.422 180.999 123.722 181.509 124.05 181.992C124.195 182.201 124.141 182.484 123.932 182.629C123.85 182.684 123.768 182.711 123.677 182.711H123.668ZM103.543 181.546C103.443 181.546 103.343 181.518 103.261 181.446C102.761 181.054 102.288 180.626 101.86 180.189C101.687 180.007 101.687 179.725 101.86 179.542C102.042 179.369 102.324 179.369 102.506 179.542C102.906 179.952 103.343 180.344 103.816 180.717C104.016 180.872 104.053 181.154 103.898 181.354C103.807 181.473 103.671 181.527 103.543 181.527V181.546ZM150.307 180.453C150.152 180.453 150.006 180.38 149.924 180.244C149.788 180.034 149.852 179.752 150.07 179.615C150.78 179.169 151.544 179.023 152.172 179.205C152.417 179.278 152.554 179.533 152.481 179.77C152.408 180.016 152.153 180.152 151.917 180.08C151.544 179.97 151.043 180.08 150.561 180.389C150.489 180.435 150.407 180.462 150.325 180.462L150.307 180.453ZM176.572 179.816C176.518 179.816 176.472 179.816 176.418 179.788C176.181 179.706 176.063 179.442 176.145 179.205C176.518 178.186 176.691 177.512 176.691 177.503C176.754 177.257 177 177.111 177.246 177.175C177.491 177.239 177.637 177.485 177.573 177.73C177.573 177.758 177.391 178.45 177 179.524C176.936 179.706 176.754 179.825 176.572 179.825V179.816ZM122.112 179.433C121.912 179.433 121.73 179.306 121.675 179.105C121.493 178.486 121.375 177.858 121.311 177.239C121.284 176.993 121.466 176.765 121.721 176.738C121.966 176.701 122.194 176.893 122.221 177.148C122.276 177.712 122.394 178.286 122.558 178.85C122.631 179.096 122.485 179.342 122.249 179.415C122.203 179.424 122.167 179.433 122.121 179.433H122.112ZM101.014 178.941C100.868 178.941 100.732 178.878 100.641 178.75C100.268 178.24 99.9404 177.694 99.6583 177.138C99.5492 176.911 99.631 176.638 99.8585 176.528C100.086 176.41 100.359 176.501 100.468 176.729C100.732 177.248 101.032 177.749 101.378 178.222C101.523 178.422 101.478 178.714 101.278 178.859C101.196 178.914 101.105 178.941 101.014 178.941ZM124.35 178.541C124.259 178.541 124.168 178.513 124.086 178.45C123.886 178.304 123.841 178.022 123.986 177.812C124.341 177.321 124.659 176.82 124.923 176.328C125.042 176.11 125.315 176.018 125.542 176.137C125.76 176.255 125.851 176.528 125.733 176.756C125.451 177.284 125.114 177.821 124.732 178.35C124.641 178.468 124.505 178.541 124.359 178.541H124.35ZM121.757 175.827C121.757 175.827 121.721 175.827 121.712 175.827C121.466 175.8 121.284 175.572 121.311 175.326C121.384 174.634 121.548 173.997 121.785 173.432C121.885 173.205 122.148 173.096 122.385 173.196C122.612 173.296 122.722 173.56 122.622 173.797C122.421 174.27 122.276 174.817 122.212 175.427C122.185 175.663 121.994 175.836 121.757 175.836V175.827ZM99.3672 175.709C99.1761 175.709 98.9942 175.591 98.9305 175.399C98.7394 174.807 98.5848 174.188 98.4756 173.569C98.4301 173.323 98.603 173.086 98.8486 173.041C99.0943 172.995 99.3308 173.168 99.3763 173.414C99.4764 173.997 99.6128 174.571 99.7948 175.117C99.8767 175.354 99.7402 175.609 99.5037 175.691C99.4582 175.709 99.4127 175.709 99.3581 175.709H99.3672ZM126.015 175.317C126.015 175.317 125.933 175.317 125.888 175.299C125.642 175.226 125.506 174.971 125.578 174.735C125.706 174.297 125.769 173.897 125.769 173.551C125.769 173.405 125.76 173.269 125.733 173.15C125.688 172.904 125.851 172.668 126.097 172.622C126.343 172.576 126.579 172.74 126.625 172.986C126.661 173.168 126.67 173.36 126.67 173.56C126.67 173.997 126.597 174.48 126.443 174.999C126.388 175.199 126.206 175.326 126.006 175.326L126.015 175.317ZM123.286 172.631C123.14 172.631 123.004 172.567 122.913 172.44C122.767 172.23 122.813 171.948 123.022 171.803C123.604 171.393 124.268 171.229 125.005 171.356C125.005 171.356 125.105 171.375 125.114 171.375C125.36 171.429 125.515 171.666 125.46 171.912C125.405 172.158 125.169 172.312 124.923 172.258C124.741 172.221 124.641 172.221 124.541 172.221C124.186 172.221 123.859 172.331 123.559 172.54C123.477 172.595 123.386 172.622 123.295 172.622L123.286 172.631ZM98.7576 172.13C98.512 172.13 98.3118 171.939 98.3027 171.693C98.3027 171.548 98.3027 171.402 98.3027 171.256C98.3027 170.783 98.33 170.3 98.3755 169.817C98.4028 169.562 98.6212 169.389 98.8759 169.408C99.1215 169.435 99.3126 169.654 99.2853 169.909C99.2398 170.364 99.2216 170.819 99.2216 171.265C99.2216 171.402 99.2216 171.538 99.2216 171.675C99.2216 171.93 99.0306 172.139 98.7849 172.149H98.7667L98.7576 172.13ZM99.1034 168.515C99.1034 168.515 99.0397 168.515 99.0033 168.506C98.7576 168.452 98.603 168.215 98.6576 167.969C98.7849 167.368 98.9578 166.758 99.1579 166.166C99.2398 165.929 99.4946 165.793 99.7311 165.884C99.9677 165.966 100.095 166.221 100.013 166.457C99.8221 167.022 99.6674 167.596 99.5401 168.169C99.4946 168.379 99.3035 168.524 99.0943 168.524L99.1034 168.515ZM100.259 165.064C100.195 165.064 100.131 165.055 100.068 165.019C99.8403 164.909 99.7402 164.645 99.8494 164.418C100.113 163.844 100.404 163.289 100.723 162.76C100.85 162.542 101.132 162.478 101.351 162.606C101.569 162.733 101.633 163.015 101.505 163.234C101.205 163.735 100.923 164.254 100.677 164.8C100.605 164.964 100.432 165.064 100.268 165.064H100.259ZM102.142 161.95C102.042 161.95 101.942 161.923 101.86 161.85C101.66 161.695 101.623 161.413 101.778 161.212C102.169 160.703 102.597 160.229 103.025 159.81C103.207 159.637 103.489 159.637 103.671 159.81C103.843 159.992 103.843 160.275 103.671 160.457C103.261 160.857 102.87 161.294 102.506 161.768C102.415 161.886 102.279 161.941 102.142 161.941V161.95ZM104.753 159.428C104.608 159.428 104.471 159.355 104.38 159.237C104.235 159.027 104.289 158.745 104.498 158.599C105.035 158.226 105.581 157.925 106.127 157.707C106.364 157.607 106.627 157.725 106.718 157.953C106.809 158.18 106.7 158.453 106.473 158.545C105.99 158.745 105.499 159.018 105.017 159.346C104.935 159.4 104.844 159.428 104.762 159.428H104.753Z" fill="#261D2A"/>
<path d="M42.0518 95.6595C42.0518 95.6595 57.4546 139.331 56.3537 140.059C55.2529 140.788 46.8191 144.831 45.3543 142.991C43.8896 141.152 28.1228 101.897 32.1532 100.422C36.1836 98.9467 42.0518 95.6504 42.0518 95.6504V95.6595Z" fill="white"/>
<path d="M46.7639 143.92C45.936 143.92 45.3446 143.702 44.9989 143.274C43.6979 141.644 29.5779 106.742 31.1791 101.014C31.3247 100.486 31.6067 100.14 31.9979 99.9942C35.9464 98.5555 41.7691 95.2865 41.8328 95.2501C41.9511 95.1864 42.0875 95.1773 42.2149 95.2228C42.3423 95.2683 42.4424 95.3685 42.4878 95.496C42.5242 95.6052 46.3818 106.541 50.0482 117.423C57.5813 139.768 57.0627 140.114 56.6079 140.424C55.7254 141.016 49.8299 143.911 46.7639 143.911V143.92ZM41.8055 96.3155C40.3225 97.1259 35.6644 99.63 32.3073 100.859C32.1708 100.905 32.0889 101.132 32.0525 101.269C30.5604 106.596 44.4621 141.161 45.7085 142.718C45.8632 142.919 46.2271 143.019 46.7639 143.019C49.4114 143.019 54.7792 140.469 55.9619 139.777C55.9255 137.273 47.61 112.788 41.8055 96.3246V96.3155Z" fill="#261D2A"/>
<path d="M161.206 86.4818C161.206 86.4818 146.904 131.246 148.378 133.449C149.852 135.653 156.448 136.381 157.913 136.381C159.377 136.381 175.508 90.8798 173.679 90.1423C171.851 89.4047 161.215 86.4727 161.215 86.4727L161.206 86.4818Z" fill="white"/>
<path d="M157.904 136.846C156.876 136.846 149.698 136.263 147.997 133.704C147.624 133.149 147.442 128.077 160.77 86.3451C160.843 86.1084 161.089 85.9809 161.325 86.0447C161.762 86.163 172.006 88.9949 173.835 89.7325C174.326 89.9328 174.39 90.552 174.072 92.1819C172.934 98.0734 160.061 136.846 157.904 136.846ZM161.507 87.0372C156.076 104.065 147.924 131.309 148.761 133.213C149.998 135.061 155.848 135.89 157.768 135.926C158.587 134.943 162.099 126.301 166.538 113.544C171.488 99.3118 173.526 91.7267 173.362 90.5156C171.479 89.8144 163.445 87.5744 161.507 87.0372Z" fill="#261D2A"/>
<path d="M37.9027 66.8043C37.9027 66.8043 37.8845 66.8043 37.8754 66.8043C37.2112 66.7679 36.5835 66.6677 35.9921 66.5129C35.7465 66.4492 35.6009 66.2033 35.6646 65.9575C35.7283 65.7116 35.9739 65.5659 36.2196 65.6297C36.7472 65.7662 37.3204 65.8573 37.9209 65.8937C38.1756 65.9119 38.3667 66.1214 38.3485 66.3763C38.3303 66.6222 38.1301 66.8043 37.8936 66.8043H37.9027ZM39.7223 66.7679C39.4857 66.7679 39.2947 66.5858 39.2674 66.349C39.2492 66.1032 39.4311 65.8755 39.6768 65.8573C39.8223 65.8482 39.9588 65.83 40.1044 65.8118C40.5411 65.7571 40.9778 65.6752 41.4054 65.575C41.651 65.5113 41.8967 65.6661 41.9513 65.9119C42.0058 66.1578 41.8603 66.4036 41.6146 66.4583C41.1597 66.5676 40.6957 66.6495 40.2226 66.7132C40.068 66.7315 39.9133 66.7497 39.7587 66.7679C39.7405 66.7679 39.7314 66.7679 39.7132 66.7679H39.7223ZM43.2432 65.921C43.0612 65.921 42.8974 65.8118 42.8247 65.6388C42.7337 65.402 42.8429 65.1379 43.0703 65.0469C43.6071 64.8283 44.1348 64.5552 44.626 64.2547C44.8353 64.1181 45.1173 64.1909 45.2538 64.4004C45.3903 64.6189 45.3175 64.8921 45.1082 65.0287C44.5715 65.3565 44.0074 65.6479 43.4251 65.8846C43.3705 65.9119 43.3068 65.921 43.2523 65.921H43.2432ZM34.4273 65.8573C34.3545 65.8573 34.2726 65.8391 34.2089 65.8027C33.6448 65.4931 33.1263 65.1015 32.6623 64.6462C32.4803 64.4732 32.4803 64.1818 32.6623 63.9997C32.8351 63.8176 33.1263 63.8176 33.3082 63.9997C33.7176 64.4004 34.1725 64.7373 34.6638 65.0105C34.8822 65.1288 34.964 65.4111 34.8367 65.6297C34.7548 65.7845 34.6001 65.8664 34.4364 65.8664L34.4273 65.8573ZM46.3183 64.0179C46.1909 64.0179 46.0635 63.9633 45.9725 63.8631C45.8088 63.6719 45.827 63.3896 46.018 63.2166C46.4547 62.8342 46.8641 62.4153 47.2372 61.9691C47.4009 61.7779 47.683 61.7506 47.874 61.9054C48.0651 62.0693 48.0924 62.3516 47.9377 62.5428C47.5374 63.0254 47.0916 63.4807 46.6185 63.8996C46.5366 63.9724 46.4274 64.0088 46.3183 64.0088V64.0179ZM31.8434 63.3441C31.6888 63.3441 31.5432 63.2713 31.4522 63.1256C31.1338 62.5974 30.8518 62.0238 30.6243 61.4046C30.5333 61.1678 30.6607 60.9038 30.8882 60.8218C31.1247 60.7308 31.3885 60.8582 31.4704 61.0859C31.6797 61.6504 31.9344 62.1695 32.2256 62.643C32.362 62.8615 32.2892 63.1347 32.08 63.2713C32.0072 63.3168 31.9253 63.335 31.8434 63.335V63.3441ZM48.62 61.2134C48.5473 61.2134 48.4654 61.1951 48.3926 61.1496C48.1742 61.0221 48.1015 60.749 48.2288 60.5304C48.429 60.1935 48.6018 59.8475 48.7474 59.4924C48.6473 59.5743 48.5018 59.6198 48.3562 59.5834C47.683 59.4286 47.0734 59.2374 46.5457 59.0189C46.3183 58.9187 46.2091 58.6546 46.3001 58.427C46.4001 58.1993 46.664 58.081 46.8914 58.1811C47.3736 58.3815 47.9286 58.5545 48.5473 58.7002C48.7383 58.7457 48.8748 58.9005 48.9021 59.0917C48.9203 59.0462 48.9385 59.0007 48.9476 58.9551C49.0295 58.7184 49.2933 58.5909 49.5298 58.682C49.7664 58.7639 49.8938 59.028 49.8028 59.2647C49.5935 59.8475 49.3297 60.4303 49.0022 60.9857C48.9203 61.1314 48.7656 61.2134 48.6109 61.2134H48.62ZM51.586 60.0023C51.3312 60.0023 51.0765 59.9932 50.8308 59.9659C50.6125 59.9477 50.4032 59.9203 50.194 59.9021C49.9483 59.8748 49.7664 59.6472 49.7937 59.4013C49.821 59.1555 50.0484 58.9642 50.3032 59.0007C50.5033 59.028 50.7035 59.0462 50.9218 59.0644C51.2857 59.1008 51.6588 59.1008 52.0409 59.0826C52.2865 59.0553 52.5049 59.2647 52.5231 59.5106C52.5413 59.7655 52.3411 59.975 52.0955 59.9932C51.9226 60.0023 51.7588 60.0114 51.5951 60.0114L51.586 60.0023ZM30.5606 59.9477C30.3514 59.9477 30.1603 59.7929 30.1148 59.5834C29.8965 58.4907 29.8965 57.7167 29.8965 57.6803C29.8965 57.4254 30.0966 57.225 30.3514 57.225C30.6061 57.225 30.8063 57.4254 30.8063 57.6803C30.8063 57.6803 30.8063 58.4088 31.0064 59.4104C31.0519 59.6563 30.8973 59.893 30.6516 59.9477C30.6243 59.9477 30.5879 59.9477 30.5606 59.9477ZM53.8605 59.72C53.6512 59.72 53.4692 59.5743 53.4147 59.374C53.3601 59.1281 53.5056 58.8823 53.7513 58.8276C54.3063 58.6911 54.8703 58.5181 55.4162 58.2995C55.6528 58.2085 55.9166 58.3177 56.0076 58.5545C56.0986 58.7912 55.9894 59.0553 55.7528 59.1463C55.1615 59.3831 54.561 59.5743 53.9514 59.72C53.915 59.72 53.8787 59.7291 53.8423 59.7291L53.8605 59.72ZM57.2267 58.3724C57.072 58.3724 56.9174 58.2904 56.8355 58.1447C56.7081 57.9262 56.7809 57.653 56.9992 57.5255C57.5087 57.2341 58 56.8972 58.4458 56.5421C58.646 56.3873 58.928 56.4146 59.0827 56.6149C59.2373 56.8153 59.21 57.0976 59.0099 57.2524C58.5277 57.6439 58 57.999 57.4541 58.3177C57.3814 58.3633 57.2995 58.3815 57.2267 58.3815V58.3724ZM45.1901 58.0901C45.0718 58.0901 44.9445 58.0446 44.8535 57.9444C44.4896 57.5528 44.2985 57.1158 44.2985 56.6878C44.2985 56.3509 44.4077 56.0322 44.617 55.7317C44.7625 55.5223 45.0446 55.4767 45.2538 55.6224C45.4631 55.7681 45.5085 56.0504 45.363 56.2598C45.2629 56.4055 45.2083 56.5512 45.2083 56.6969C45.2083 56.9063 45.3084 57.1158 45.5176 57.3434C45.6905 57.5255 45.6814 57.8169 45.4904 57.9899C45.3994 58.0719 45.2902 58.1083 45.181 58.1083L45.1901 58.0901ZM49.7846 57.7896C49.7846 57.7896 49.7573 57.7896 49.7391 57.7896C49.4934 57.7623 49.3024 57.5437 49.3297 57.2888C49.3479 57.1249 49.357 56.961 49.357 56.8062C49.357 56.3782 49.2933 56.0049 49.175 55.7135C49.084 55.4767 49.1932 55.2127 49.4207 55.1216C49.6481 55.0214 49.9211 55.1398 50.012 55.3675C50.1758 55.7772 50.2668 56.2598 50.2668 56.8062C50.2668 56.9883 50.2577 57.1795 50.2395 57.3707C50.2122 57.6075 50.0211 57.7805 49.7846 57.7805V57.7896ZM60.0471 56.0959C59.9379 56.0959 59.8287 56.0595 59.7468 55.9775C59.5558 55.8136 59.5376 55.5223 59.7104 55.331C60.1016 54.8849 60.4474 54.4205 60.7203 53.9378C60.8477 53.7193 61.1206 53.6465 61.339 53.7739C61.5573 53.9014 61.6301 54.1746 61.5027 54.3931C61.1934 54.9304 60.8113 55.4494 60.3837 55.9411C60.2927 56.0413 60.1653 56.0959 60.0471 56.0959ZM46.4729 55.4039C46.291 55.4039 46.1272 55.2946 46.0544 55.1216C45.9543 54.8849 46.0726 54.6208 46.3001 54.5297C46.6276 54.3931 46.9915 54.2748 47.3918 54.1655C47.6557 54.0926 47.9013 54.0562 48.1469 54.0562H48.247C48.5018 54.0562 48.6928 54.2748 48.6837 54.5297C48.6837 54.7847 48.4654 54.9668 48.2106 54.9668L48.2288 54.5115L48.1379 54.9668C47.9741 54.9668 47.8012 54.9941 47.6193 55.0396C47.2645 55.1307 46.9369 55.24 46.6458 55.3675C46.5912 55.3948 46.5275 55.4039 46.4729 55.4039ZM61.8394 52.9544C61.8394 52.9544 61.7575 52.9544 61.712 52.9362C61.4754 52.8634 61.3299 52.6084 61.4026 52.3717C61.5664 51.8253 61.6574 51.2608 61.6756 50.6962C61.6756 50.4412 61.8939 50.25 62.1487 50.2591C62.4034 50.2591 62.5945 50.4777 62.5854 50.7326C62.5672 51.3791 62.458 52.0165 62.276 52.6357C62.2215 52.8361 62.0395 52.9635 61.8394 52.9635V52.9544ZM61.9576 49.3576C61.7484 49.3576 61.5573 49.212 61.5118 49.0025C61.3936 48.4653 61.2116 47.9098 60.975 47.3635C60.875 47.1358 60.975 46.8627 61.2025 46.7625C61.4299 46.6623 61.7029 46.7625 61.803 46.9902C62.0668 47.5911 62.276 48.2012 62.4034 48.8022C62.458 49.0481 62.3033 49.2939 62.0577 49.3394C62.0213 49.3394 61.994 49.3485 61.9576 49.3485V49.3576ZM60.5111 46.034C60.3655 46.034 60.2199 45.9612 60.1289 45.8246C59.8196 45.3511 59.4648 44.8776 59.0736 44.4132C58.9098 44.222 58.9371 43.9306 59.1282 43.7758C59.3192 43.6119 59.6104 43.6392 59.7741 43.8304C60.1926 44.3222 60.5747 44.8321 60.9023 45.3329C61.0387 45.5423 60.9841 45.8246 60.7749 45.9612C60.7021 46.0158 60.6111 46.034 60.5292 46.034H60.5111ZM58.1729 43.2568C58.0546 43.2568 57.9454 43.2113 57.8545 43.1293C57.4996 42.7833 57.1084 42.4282 56.699 42.0821L56.5262 41.9273C56.3351 41.7634 56.3169 41.4721 56.4807 41.2808C56.6444 41.0896 56.9356 41.0714 57.1266 41.2353L57.2904 41.381C57.718 41.7452 58.1183 42.1095 58.4913 42.4737C58.6733 42.6467 58.6733 42.9381 58.5004 43.1202C58.4094 43.2113 58.2912 43.2568 58.1729 43.2568ZM55.5072 40.78C55.3889 40.78 55.2615 40.7345 55.1797 40.6343C54.7521 40.179 54.3426 39.6964 53.9787 39.2047C53.8241 39.0044 53.8696 38.713 54.0697 38.5673C54.2699 38.4125 54.5519 38.458 54.7066 38.6584C55.0523 39.1228 55.4344 39.5781 55.8438 40.0151C56.0167 40.1972 56.0076 40.4886 55.8256 40.6616C55.7346 40.7436 55.6255 40.7891 55.5163 40.7891L55.5072 40.78ZM53.3328 37.8662C53.1781 37.8662 53.0234 37.7842 52.9416 37.6385C52.6322 37.1013 52.3502 36.5367 52.1046 35.9631C52.0045 35.7354 52.1046 35.4622 52.3411 35.3621C52.5685 35.2619 52.8415 35.3621 52.9416 35.5988C53.169 36.1361 53.4329 36.6642 53.7331 37.1741C53.8605 37.3927 53.7877 37.6658 53.5693 37.7933C53.4965 37.8389 53.4147 37.8571 53.3419 37.8571L53.3328 37.8662ZM51.9135 34.5244C51.7133 34.5244 51.5314 34.3969 51.4768 34.1965C51.3039 33.5956 51.1675 32.9855 51.0674 32.3663C51.031 32.1204 51.1948 31.8837 51.4404 31.8473C51.6861 31.8017 51.9226 31.9747 51.959 32.2206C52.05 32.8034 52.1864 33.3861 52.3411 33.9416C52.4139 34.1783 52.2683 34.4333 52.0318 34.5061C51.9863 34.5152 51.9499 34.5244 51.9044 34.5244H51.9135ZM51.3312 30.9367C51.0856 30.9367 50.8854 30.7455 50.8763 30.4996C50.8672 30.2629 50.8581 30.0261 50.8581 29.7894C50.8581 29.3978 50.8672 29.0154 50.8945 28.6329C50.9127 28.378 51.1311 28.1867 51.3767 28.2141C51.6315 28.2323 51.8134 28.4508 51.7952 28.6967C51.7679 29.0609 51.7588 29.4251 51.7588 29.7894C51.7588 30.017 51.7588 30.2355 51.777 30.4632C51.7861 30.7181 51.5951 30.9276 51.3403 30.9367H51.3221H51.3312ZM51.5769 27.3126C51.5769 27.3126 51.5223 27.3126 51.495 27.3126C51.2493 27.2671 51.0856 27.0303 51.122 26.7845C51.2312 26.1744 51.3676 25.5643 51.5314 24.9633C51.5951 24.7174 51.8498 24.5809 52.0955 24.6446C52.3411 24.7083 52.4776 24.9633 52.4139 25.2092C52.2501 25.7828 52.1228 26.3656 52.0227 26.9392C51.9863 27.1578 51.7952 27.3126 51.5769 27.3126ZM52.5504 23.8069C52.4958 23.8069 52.4412 23.7978 52.3866 23.7795C52.15 23.6885 52.0318 23.4244 52.1228 23.1877C52.3411 22.614 52.5958 22.0403 52.8688 21.4849C52.978 21.2572 53.2509 21.1662 53.4783 21.2755C53.7058 21.3847 53.7968 21.6579 53.6876 21.8855C53.4238 22.4137 53.1872 22.96 52.9689 23.5155C52.8961 23.6976 52.7232 23.8069 52.5413 23.8069H52.5504ZM54.1698 20.547C54.0879 20.547 54.006 20.5288 53.9332 20.4833C53.724 20.3558 53.6512 20.0735 53.7877 19.855C54.1152 19.3268 54.4609 18.8078 54.8339 18.3161C54.9886 18.1158 55.2706 18.0702 55.4708 18.225C55.6709 18.3798 55.7164 18.6621 55.5618 18.8624C55.207 19.3359 54.8703 19.8276 54.561 20.3376C54.4791 20.4742 54.3245 20.5561 54.1698 20.5561V20.547ZM56.3533 17.6423C56.2441 17.6423 56.1349 17.6058 56.044 17.5239C55.862 17.3509 55.8438 17.0686 56.0167 16.8774C56.4352 16.413 56.881 15.9759 57.3359 15.5661C57.5178 15.4022 57.809 15.4113 57.9818 15.6026C58.1456 15.7938 58.1365 16.0761 57.9454 16.2491C57.5087 16.6406 57.0902 17.0595 56.6899 17.4966C56.5989 17.5967 56.4807 17.6423 56.3533 17.6423ZM59.0645 15.2201C58.9189 15.2201 58.7824 15.1564 58.6915 15.0289C58.5459 14.8286 58.5914 14.5372 58.7915 14.3915C59.301 14.0182 59.8378 13.6813 60.3746 13.3899C60.5929 13.2624 60.875 13.3534 60.9932 13.572C61.1115 13.7905 61.0296 14.0728 60.8113 14.1912C60.3109 14.4735 59.8014 14.783 59.3192 15.1382C59.2373 15.1928 59.1464 15.2201 59.0554 15.2201H59.0645ZM71.0829 13.6813C71.0192 13.6813 70.9555 13.6721 70.8918 13.6357C70.355 13.3899 69.8091 13.1804 69.2542 13.0256C69.0085 12.9528 68.8721 12.7069 68.9357 12.4611C69.0085 12.2152 69.2542 12.0786 69.4998 12.1424C70.1003 12.3063 70.6916 12.5339 71.2739 12.798C71.5014 12.9073 71.6014 13.1713 71.4923 13.399C71.4195 13.5629 71.2466 13.663 71.0829 13.663V13.6813ZM62.2488 13.4809C62.0668 13.4809 61.8939 13.3717 61.8212 13.1895C61.7302 12.9528 61.8485 12.6887 62.0759 12.5977C62.6673 12.37 63.2768 12.1788 63.8773 12.0422C64.1229 11.9876 64.3686 12.1424 64.4232 12.3882C64.4778 12.6341 64.3231 12.8799 64.0774 12.9346C63.5225 13.0621 62.9584 13.2351 62.4034 13.4536C62.3488 13.4718 62.2943 13.4809 62.2397 13.4809H62.2488ZM67.5983 12.7069C67.5983 12.7069 67.5711 12.7069 67.5529 12.7069C66.9706 12.6432 66.3883 12.6341 65.8151 12.6796C65.5695 12.7069 65.3512 12.5066 65.333 12.2516C65.3148 11.9967 65.5058 11.7873 65.7606 11.769C66.3883 11.7235 67.0161 11.7326 67.6529 11.8055C67.8986 11.8328 68.0805 12.0513 68.0623 12.3063C68.035 12.543 67.844 12.716 67.6074 12.716L67.5983 12.7069Z" fill="#261D2A"/>
<path d="M99.8854 43.5207C99.8854 43.5207 80.237 28.3446 90.1188 21.6324C96.4878 17.3068 100.956 26.2527 100.956 26.2527C100.956 26.2527 104.613 14.0188 111.875 23.3614C116.937 29.8752 99.8911 43.5207 99.8911 43.5207H99.8854Z" fill="#FEFFFF"/>
</g>
<defs>
<clipPath id="clip0_592_8470">
<rect width="200" height="195" fill="white" transform="translate(0 3)"/>
</clipPath>
</defs>
</svg>
