<svg width="200" height="200" viewBox="0 0 200 200" fill="none" xmlns="http://www.w3.org/2000/svg">
<g clip-path="url(#clip0_592_8409)">
<path d="M139.131 179.091C138.808 179.091 138.562 179.057 138.401 178.879C138.171 178.625 137.56 177.957 142.214 172.016C142.307 171.889 142.46 171.83 142.621 171.855C142.732 171.872 151.75 173.412 155.834 173.886C152.82 172.676 146.459 170.417 142.163 168.936C142.052 168.893 141.959 168.817 141.916 168.707C141.619 168.039 140.184 164.628 140.838 163.418C140.897 163.308 141.05 163.122 141.39 163.122C143.148 163.122 157.168 172.372 158.17 174.149C158.178 174.166 158.195 174.191 158.204 174.216C158.204 174.233 158.212 174.25 158.221 174.259C158.221 174.259 158.238 174.318 158.238 174.343C158.238 174.343 158.238 174.343 158.238 174.352C158.238 174.394 158.238 174.428 158.238 174.47C158.187 174.775 158.093 175.274 149.584 177.204C145.474 178.135 140.651 179.074 139.139 179.074L139.131 179.091ZM139.106 178.245H139.131C141.551 178.245 151.818 175.943 155.868 174.75C152.141 174.326 144.277 172.998 142.732 172.735C141.059 174.893 139.335 177.424 139.114 178.245H139.106ZM142.613 168.2C147.215 169.782 152.395 171.61 155.469 172.845C151.606 169.901 143.224 164.307 141.526 163.985C141.364 164.755 142.018 166.795 142.621 168.2H142.613Z" fill="#261D2A"/>
<path d="M141.075 174.656C140.209 174.656 138.213 174.589 137.653 174.03C137.483 173.852 137.449 173.675 137.449 173.548C137.449 172.828 139.878 170.332 141.916 168.369C142.086 168.208 142.349 168.208 142.519 168.369C142.68 168.538 142.68 168.8 142.519 168.969C140.719 170.713 138.706 172.845 138.358 173.488C138.723 173.666 139.929 173.81 141.126 173.81C141.364 173.81 141.551 173.996 141.551 174.233C141.551 174.479 141.355 174.656 141.092 174.656H141.075Z" fill="#261D2A"/>
<path d="M91.4234 26.8086C91.4234 26.8086 91.347 26.8086 91.3215 26.8001C91.0158 26.7409 90.0902 26.5547 90.3025 19.0231C90.3025 18.8708 90.3959 18.7269 90.5403 18.6592C94.2767 16.789 99.7964 13.9541 102.446 12.4562C99.3888 13.2432 92.9435 15.1811 88.4428 16.5859C88.3324 16.6197 88.205 16.6113 88.1031 16.552C87.4662 16.1882 84.2733 14.2926 84.0865 12.9301C84.061 12.7693 84.112 12.6085 84.2309 12.4816C85.2838 11.2715 97.6989 11.0176 100.102 11.0176C104.076 11.0176 104.374 11.2545 104.535 11.373C104.535 11.373 104.577 11.4069 104.594 11.4322C104.62 11.4576 104.645 11.4915 104.662 11.5338C104.79 11.7961 104.662 12.0839 104.399 12.5154C103.244 14.3687 92.7906 26.8086 91.4234 26.8086ZM91.1432 19.2939C91.0753 22.0273 91.2027 25.0907 91.5169 25.8777C93.0199 24.8284 100.365 16.552 102.964 13.1078C101.257 14.1148 97.8603 15.9343 91.1517 19.2939H91.1432ZM84.9612 12.964C85.2923 13.6833 87.0332 14.9357 88.3494 15.7143C89.9459 15.215 97.2489 12.9555 101.393 11.8638C101.011 11.8638 100.578 11.8554 100.077 11.8554C93.6398 11.8554 86.167 12.4139 84.9612 12.9724V12.964Z" fill="#261D2A"/>
<path d="M87.9588 23.3389C87.9164 23.3389 87.8739 23.3389 87.8315 23.3304C87.5852 23.2965 87.4493 23.1611 87.3814 23.0596C86.9568 22.4757 87.4238 19.0314 87.8909 16.2473C87.9249 16.0188 88.1457 15.858 88.3749 15.9003C88.6042 15.9342 88.7656 16.1542 88.7231 16.3912C88.3155 18.8622 87.9588 21.7648 88.0607 22.4926C88.4598 22.4249 89.5213 21.8241 90.4809 21.1217C90.6677 20.9863 90.9395 21.0201 91.0753 21.2148C91.2112 21.4094 91.1772 21.6633 90.9904 21.8071C90.345 22.281 88.7995 23.3558 87.9673 23.3558L87.9588 23.3389Z" fill="#261D2A"/>
<path d="M68.7 136.778C68.3858 136.778 68.0886 136.778 67.2479 133.461C64.4201 132.919 64.1738 132.589 64.0974 132.479C64.021 132.378 63.987 132.183 64.021 132.056C64.0719 131.878 64.1908 131.455 67.4177 130.16C68.5726 127.156 68.9632 127.156 69.2265 127.156C69.3623 127.156 69.5492 127.249 69.6256 127.359C69.8294 127.639 70.0162 128.358 70.3049 129.509C70.3984 129.873 70.5003 130.304 70.5682 130.499C70.738 130.575 71.1117 130.71 71.4259 130.821C73.0818 131.413 73.5064 131.616 73.5828 132.005C73.6083 132.149 73.5403 132.369 73.4215 132.462C73.0818 132.767 71.4853 133.359 70.6446 133.655C69.2774 136.753 68.9887 136.77 68.734 136.778C68.734 136.778 68.717 136.778 68.7085 136.778H68.7ZM65.1759 132.115C65.7363 132.276 66.7723 132.513 67.6725 132.682C67.8338 132.716 67.9697 132.835 68.0037 132.995C68.2329 133.926 68.5386 134.993 68.7509 135.593C69.0651 135.035 69.5407 134.036 69.9228 133.156C69.9738 133.046 70.0587 132.962 70.1691 132.928C70.9418 132.657 71.808 132.327 72.3515 132.09C71.9693 131.929 71.4513 131.743 71.1202 131.624C70.1776 131.286 69.9992 131.21 69.8719 131.049C69.77 130.905 69.702 130.668 69.4643 129.712C69.3793 129.348 69.235 128.798 69.1161 128.383C68.8359 128.916 68.4367 129.83 68.131 130.643C68.0886 130.753 68.0037 130.846 67.8933 130.888C66.8912 131.286 65.7533 131.794 65.1674 132.124L65.1759 132.115Z" fill="#261D2A"/>
<path d="M145.329 22.1622C145.015 22.1622 144.717 22.1622 143.877 18.8449C141.049 18.3033 140.803 17.9733 140.726 17.8633C140.65 17.7617 140.616 17.5671 140.65 17.4401C140.701 17.2624 140.82 16.8478 144.047 15.553C145.202 12.5488 145.592 12.5488 145.855 12.5488C145.991 12.5488 146.178 12.6419 146.254 12.7519C146.458 13.0312 146.645 13.7505 146.934 14.9014C147.027 15.2653 147.129 15.7053 147.197 15.8915C147.367 15.9677 147.741 16.1031 148.055 16.2131C149.711 16.8055 150.135 17.0086 150.212 17.3978C150.237 17.5417 150.169 17.7617 150.05 17.8548C149.711 18.1595 148.114 18.7518 147.274 19.048C145.906 22.1453 145.618 22.1538 145.363 22.1707C145.363 22.1707 145.346 22.1707 145.337 22.1707L145.329 22.1622ZM141.805 17.4994C142.365 17.6602 143.401 17.8971 144.301 18.0664C144.463 18.1002 144.599 18.2187 144.633 18.3795C144.862 19.3104 145.168 20.3766 145.38 20.969C145.694 20.4105 146.17 19.4119 146.552 18.5318C146.603 18.4218 146.688 18.3372 146.798 18.3033C147.571 18.0325 148.437 17.7025 148.98 17.4655C148.598 17.3047 148.08 17.1186 147.749 17.0001C146.806 16.6616 146.628 16.5854 146.501 16.4246C146.399 16.2808 146.331 16.0438 146.093 15.0876C146.008 14.7237 145.864 14.1736 145.745 13.759C145.465 14.2921 145.066 15.206 144.76 16.0184C144.717 16.1285 144.633 16.2215 144.522 16.2639C143.52 16.6616 142.382 17.1693 141.796 17.4994H141.805Z" fill="#261D2A"/>
<path d="M13.2215 74.156C12.9073 74.156 12.6101 74.156 11.7694 70.8387C8.94158 70.2971 8.69532 69.9671 8.61889 69.8571C8.54246 69.7555 8.5085 69.5609 8.54246 69.434C8.59341 69.2563 8.7123 68.8331 11.9392 67.5384C13.0941 64.5342 13.4847 64.5342 13.748 64.5342C13.8838 64.5342 14.0707 64.6273 14.1471 64.7373C14.3509 65.0165 14.5377 65.7359 14.8264 66.8868C14.9198 67.2506 15.0217 67.6822 15.0897 67.8769C15.2595 67.953 15.6332 68.0884 15.9474 68.1984C17.6033 68.7908 18.0279 68.9939 18.1043 69.3832C18.1298 69.527 18.0618 69.7471 17.9429 69.8402C17.6033 70.1448 15.9983 70.7372 15.1661 71.0334C13.7989 74.1306 13.5102 74.1476 13.2554 74.156C13.2554 74.156 13.2385 74.156 13.23 74.156H13.2215ZM9.69735 69.4932C10.2578 69.654 11.2938 69.8909 12.194 70.0602C12.3553 70.094 12.4912 70.2125 12.5251 70.3733C12.7544 71.3042 13.0601 72.3704 13.2724 72.9713C13.5866 72.4128 14.0622 71.4142 14.4443 70.5341C14.4952 70.4241 14.5802 70.3395 14.6906 70.3056C15.4633 70.0348 16.3295 69.7048 16.873 69.4678C16.4908 69.307 15.9728 69.1209 15.6416 69.0024C14.6991 68.6639 14.5207 68.5877 14.3933 68.4269C14.2914 68.2831 14.2235 68.0461 13.9857 67.0983C13.9008 66.7344 13.7565 66.1759 13.6376 65.7612C13.3573 66.2944 12.9582 67.2083 12.6525 68.0207C12.6101 68.1307 12.5251 68.2238 12.4147 68.2661C11.4127 68.6639 10.2748 69.1716 9.68886 69.5017L9.69735 69.4932Z" fill="#261D2A"/>
<path d="M177.395 146.375C177.081 146.375 176.784 146.375 175.943 143.058C173.124 142.516 172.869 142.186 172.793 142.076C172.716 141.975 172.682 141.78 172.716 141.653C172.767 141.475 172.886 141.061 176.113 139.766C177.268 136.762 177.659 136.762 177.922 136.762C178.058 136.762 178.244 136.855 178.321 136.965C178.525 137.244 178.712 137.963 179 139.114C179.085 139.478 179.196 139.918 179.264 140.104C179.433 140.181 179.807 140.316 180.121 140.426C181.777 141.018 182.202 141.221 182.278 141.611C182.304 141.755 182.236 141.975 182.117 142.068C181.777 142.372 180.181 142.965 179.34 143.261C177.973 146.358 177.684 146.367 177.429 146.384C177.429 146.384 177.412 146.384 177.404 146.384L177.395 146.375ZM173.871 141.712C174.432 141.873 175.468 142.11 176.368 142.279C176.529 142.313 176.665 142.432 176.699 142.592C176.928 143.523 177.234 144.59 177.446 145.182C177.76 144.623 178.236 143.625 178.618 142.745C178.669 142.635 178.754 142.55 178.864 142.516C179.637 142.245 180.503 141.915 181.047 141.678C180.665 141.518 180.147 141.331 179.815 141.213C178.873 140.874 178.695 140.798 178.567 140.638C178.465 140.494 178.397 140.257 178.16 139.3C178.075 138.937 177.93 138.387 177.811 137.972C177.531 138.505 177.132 139.419 176.826 140.231C176.784 140.341 176.699 140.434 176.589 140.477C175.587 140.874 174.449 141.382 173.863 141.712H173.871Z" fill="#261D2A"/>
<path d="M7.37139 132.978H7.3629C5.70699 132.978 4.35678 131.616 4.36527 129.966C4.36527 128.316 5.72397 126.979 7.37139 126.979C8.18661 126.979 8.94238 127.3 9.51133 127.867C10.0803 128.434 10.386 129.187 10.386 129.991C10.386 131.641 9.0273 132.978 7.37988 132.978H7.37139ZM7.37988 127.825C6.18253 127.825 5.21446 128.789 5.21446 129.966C5.21446 131.151 6.17404 132.124 7.3629 132.124V132.547L7.37139 132.124C8.56025 132.124 9.52832 131.159 9.52832 129.983C9.52832 129.407 9.30753 128.866 8.89992 128.459C8.49231 128.053 7.94883 127.825 7.37988 127.825Z" fill="#261D2A"/>
<path d="M186.846 103.893H186.838C185.182 103.893 183.831 102.531 183.84 100.881C183.84 99.2306 185.199 97.8936 186.846 97.8936C188.519 97.8936 189.861 99.2476 189.852 100.906C189.852 102.556 188.493 103.893 186.846 103.893ZM186.854 98.7398C185.657 98.7398 184.689 99.7045 184.689 100.881C184.689 102.066 185.649 103.039 186.838 103.039V103.462L186.846 103.039C188.035 103.039 189.003 102.074 189.003 100.898C189.003 99.713 188.043 98.7398 186.854 98.7398Z" fill="#261D2A"/>
<path d="M27.5054 51.6121C27.5054 51.6121 26.6817 45.4091 32.6769 47.4147C38.6637 49.4203 36.7191 55.0987 34.4348 53.1608C32.1505 51.2144 36.4388 44.6306 41.0159 47.5586C45.6015 50.4951 44.574 56.1903 41.3216 56.605C38.0693 57.0281 43.2918 49.9789 47.3848 54.3286C51.4779 58.6868 42.536 66.6246 38.8845 63.705C35.2245 60.7855 38.0863 56.0719 38.9694 58.9491C39.8526 61.8263 37.4833 64.6359 30.9956 64.5259C24.5078 64.4159 27.463 54.4724 29.7303 57.3666C31.9976 60.2608 28.2357 63.5273 23.6586 60.1169C19.0815 56.7065 24.304 49.6573 27.5139 51.6121H27.5054Z" fill="white"/>
<path d="M31.361 64.9488H30.9874C28.856 64.9065 27.3614 63.8233 26.8264 61.953C25.7055 61.8092 24.5251 61.293 23.3957 60.4552C21.5954 59.1181 20.9925 57.0871 21.7228 54.8784C22.4786 52.6189 24.4827 50.8503 26.2914 50.8503C26.5462 50.8503 26.8009 50.8841 27.0387 50.9518C27.0387 50.0886 27.1661 48.6246 28.0492 47.6261C29.0343 46.509 30.6477 46.289 32.8132 47.0168C33.6454 47.296 34.3672 47.6514 34.9786 48.0915C36.7109 46.2805 39.1735 45.8828 41.2456 47.2029C43.2242 48.4723 44.43 50.4187 44.5319 52.4835C45.6953 52.5174 46.7568 53.0421 47.6994 54.0406C48.9731 55.4031 49.2109 57.2225 48.3617 59.1774C47.071 62.1477 43.5469 64.7541 40.8125 64.7541C39.9548 64.7541 39.216 64.5087 38.6216 64.0348C38.3413 63.8063 38.0781 63.5609 37.8573 63.2986C36.4222 64.3733 34.1973 64.9403 31.3695 64.9403L31.361 64.9488ZM27.7265 61.9869C28.1002 63.0278 28.9748 64.0687 30.9959 64.1025H31.361C34.6134 64.1025 36.3882 63.3494 37.3478 62.6216C36.4392 61.1491 36.5071 59.5412 37.0166 58.5427C37.3138 57.9672 37.7384 57.6287 38.197 57.6287C38.5027 57.6287 39.0547 57.781 39.3774 58.8219C39.8189 60.2606 39.4962 61.6653 38.4857 62.7401C38.681 62.9685 38.9018 63.1801 39.1481 63.3747C39.5981 63.7302 40.1501 63.9079 40.8125 63.9079C43.1987 63.9079 46.4256 61.4961 47.5805 58.8389C48.0815 57.688 48.3957 56.0208 47.0795 54.6161C46.2982 53.7868 45.4405 53.3552 44.5149 53.3298C44.3196 55.31 43.0713 56.8079 41.3814 57.0279C41.271 57.0448 41.1606 57.0533 41.0587 57.0533C40.218 57.0533 39.9038 56.5455 39.8784 56.0632C39.8274 54.8953 41.5173 52.9236 43.6827 52.5512C43.5978 50.7572 42.5363 49.0393 40.787 47.9222C39.0632 46.8221 37.0846 47.1437 35.6324 48.6331C37.0421 49.9786 37.3053 51.6288 36.9147 52.7289C36.4731 53.9645 35.1824 54.3537 34.1549 53.4821C32.8896 52.4074 33.2972 50.3171 34.4351 48.7431C33.9001 48.3708 33.2717 48.0661 32.5414 47.8207C30.7327 47.2199 29.4419 47.3299 28.6861 48.1846C27.6501 49.3609 27.9219 51.5357 27.9219 51.5527C27.9473 51.7134 27.8709 51.8742 27.735 51.9589C27.5992 52.0435 27.4208 52.0519 27.285 51.9589C26.9877 51.7727 26.6566 51.6796 26.2999 51.6796C24.8563 51.6796 23.1664 53.2282 22.538 55.1238C22.2493 55.9955 21.7992 58.1872 23.9137 59.7528C24.8308 60.4383 25.7734 60.8783 26.6651 61.0476C26.5037 59.6005 26.8774 58.0011 27.6246 57.0787C27.9898 56.6301 28.4144 56.3932 28.856 56.3932C29.1617 56.3932 29.6202 56.5117 30.0703 57.0871C30.877 58.1195 31.0638 59.2789 30.5713 60.2775C30.0873 61.2591 29.0173 61.8938 27.735 61.97L27.7265 61.9869ZM38.197 58.475C38.1206 58.475 37.9422 58.5934 37.7724 58.9235C37.3988 59.6513 37.3393 60.8783 37.9847 62.0292C38.6895 61.1999 38.8933 60.1675 38.5621 59.0673C38.4178 58.585 38.2394 58.475 38.197 58.475ZM28.8475 57.2564C28.6776 57.2564 28.4738 57.3918 28.2785 57.6287C27.7265 58.3142 27.3189 59.7697 27.5227 61.1491C28.5672 61.1322 29.4334 60.6668 29.7985 59.9221C30.1382 59.2281 29.9939 58.3903 29.3909 57.6203C29.2636 57.451 29.0598 57.2564 28.8475 57.2564ZM43.6488 53.4144C41.9164 53.8037 40.7106 55.3862 40.736 56.0208C40.736 56.097 40.736 56.1986 41.0672 56.1986C41.1352 56.1986 41.2031 56.1986 41.2795 56.1816C42.5193 56.0208 43.4449 54.9123 43.6572 53.4144H43.6488ZM35.089 49.2762C34.1124 50.6302 33.9256 52.1704 34.7068 52.8305C35.2928 53.3298 35.8617 53.1521 36.1165 52.4412C36.4137 51.6119 36.1929 50.351 35.089 49.2762Z" fill="#261D2A"/>
<path d="M151.232 149.21C151.232 149.21 150.408 143.007 156.404 145.012C162.39 147.018 160.446 152.696 158.161 150.758C155.877 148.812 160.165 142.228 164.743 145.156C169.328 148.093 168.301 153.788 165.048 154.203C161.796 154.626 167.018 147.577 171.111 151.926C175.204 156.284 166.263 164.222 162.611 161.303C158.951 158.383 161.813 153.67 162.696 156.547C163.579 159.424 161.21 162.234 154.722 162.124C148.234 162.014 151.19 152.07 153.457 154.964C155.724 157.858 151.962 161.125 147.385 157.715C142.808 154.304 148.031 147.255 151.24 149.21H151.232Z" fill="white"/>
<path d="M155.088 162.546H154.714C152.583 162.504 151.088 161.421 150.553 159.551C149.432 159.407 148.252 158.891 147.122 158.053C145.322 156.716 144.719 154.685 145.449 152.476C146.205 150.217 148.209 148.448 150.018 148.448C150.273 148.448 150.527 148.482 150.765 148.549C150.765 147.686 150.893 146.222 151.776 145.224C152.761 144.107 154.374 143.887 156.54 144.614C157.372 144.894 158.094 145.249 158.705 145.689C160.437 143.878 162.9 143.48 164.972 144.801C166.951 146.07 168.157 148.016 168.258 150.081C169.422 150.115 170.483 150.64 171.426 151.638C172.7 153.001 172.937 154.82 172.088 156.775C170.798 159.745 167.273 162.352 164.539 162.352C163.681 162.352 162.943 162.106 162.348 161.632C162.068 161.404 161.805 161.159 161.584 160.896C160.149 161.971 157.924 162.538 155.096 162.538L155.088 162.546ZM151.453 159.585C151.827 160.625 152.701 161.666 154.722 161.7H155.088C158.34 161.7 160.115 160.947 161.074 160.219C160.166 158.747 160.234 157.139 160.743 156.14C161.04 155.565 161.465 155.226 161.924 155.226C162.229 155.226 162.781 155.379 163.104 156.42C163.545 157.858 163.223 159.263 162.212 160.338C162.408 160.566 162.628 160.778 162.875 160.972C163.325 161.328 163.877 161.506 164.539 161.506C166.925 161.506 170.152 159.094 171.307 156.437C171.808 155.286 172.122 153.618 170.806 152.214C170.025 151.384 169.167 150.953 168.241 150.927C168.046 152.908 166.798 154.406 165.108 154.626C164.998 154.642 164.887 154.651 164.785 154.651C163.945 154.651 163.63 154.143 163.605 153.661C163.554 152.493 165.244 150.521 167.409 150.149C167.324 148.355 166.263 146.637 164.514 145.52C162.79 144.42 160.82 144.741 159.359 146.231C160.769 147.576 161.032 149.226 160.641 150.327C160.2 151.562 158.909 151.951 157.881 151.08C156.616 150.005 157.024 147.915 158.162 146.341C157.627 145.968 156.998 145.664 156.268 145.418C154.459 144.818 153.168 144.928 152.413 145.782C151.377 146.959 151.648 149.133 151.648 149.15C151.674 149.311 151.597 149.472 151.462 149.557C151.326 149.641 151.147 149.65 151.012 149.557C150.714 149.37 150.383 149.277 150.026 149.277C148.583 149.277 146.893 150.826 146.265 152.721C145.976 153.593 145.526 155.776 147.64 157.35C148.557 158.036 149.5 158.476 150.392 158.645C150.23 157.198 150.604 155.599 151.351 154.676C151.716 154.228 152.141 153.991 152.583 153.991C152.888 153.991 153.347 154.109 153.797 154.685C154.604 155.717 154.79 156.877 154.298 157.875C153.814 158.857 152.744 159.491 151.462 159.568L151.453 159.585ZM161.924 156.073C161.847 156.073 161.669 156.191 161.499 156.521C161.125 157.249 161.066 158.476 161.711 159.627C162.416 158.798 162.62 157.765 162.289 156.665C162.144 156.183 161.966 156.073 161.924 156.073ZM152.583 154.854C152.413 154.854 152.209 154.989 152.014 155.226C151.462 155.912 151.054 157.367 151.258 158.747C152.302 158.73 153.168 158.264 153.534 157.52C153.873 156.826 153.729 155.988 153.126 155.218C152.999 155.049 152.795 154.854 152.583 154.854ZM167.384 151.012C165.651 151.401 164.446 152.984 164.471 153.619C164.471 153.695 164.471 153.796 164.802 153.796C164.87 153.796 164.938 153.796 165.015 153.779C166.254 153.619 167.18 152.51 167.392 151.012H167.384ZM158.824 146.874C157.847 148.228 157.661 149.768 158.442 150.428C159.028 150.927 159.597 150.75 159.852 150.039C160.149 149.21 159.928 147.949 158.824 146.874Z" fill="#261D2A"/>
<path d="M55.6816 154.067C55.6816 154.067 96.0519 123.907 97.2832 124.77C98.5145 125.633 114.258 146.383 116.339 146.443C118.419 146.502 153.661 121.605 153.661 121.605C153.661 121.605 149.202 116.511 148.413 114.827C147.623 113.143 174.432 108.412 175.221 110.096C176.011 111.78 165.77 137.701 164.123 136.829C162.475 135.958 159.758 127.994 156.794 129.585C153.839 131.176 114.556 167.599 113.358 165.492C112.161 163.384 94.3365 142.575 94.3365 142.575C94.3365 142.575 70.2621 171.483 66.5682 168.894C62.8742 166.304 55.6816 154.076 55.6816 154.076V154.067Z" fill="#FDCF61"/>
<path d="M150.629 33.9167C150.629 33.9167 152.667 24.7941 154.034 25.1157C155.401 25.4373 158.526 27.1552 158.526 27.1552C158.526 27.1552 162.076 23.0678 163.256 22.7716C164.615 22.4331 161.346 30.117 160.301 31.7418C159.257 33.3666 156.887 30.2947 155.911 30.3709C154.314 30.4978 150.765 37.5725 150.629 33.9082V33.9167Z" fill="#CA7A8C"/>
<path d="M163.705 91.5633C163.705 91.5633 172.639 88.7283 173.046 90.0654C173.454 91.4025 173.539 94.9652 173.539 94.9652C173.539 94.9652 178.872 95.9638 179.721 96.8354C180.698 97.834 172.392 98.8833 170.456 98.7987C168.52 98.7141 169.998 95.126 169.437 94.3305C168.529 93.0188 160.597 93.5181 163.714 91.5633H163.705Z" fill="#CA7A8C"/>
<path d="M49.4642 44.6642C49.4642 44.6642 47.0949 35.6262 48.4536 35.2877C49.8123 34.9492 53.3874 35.0592 53.3874 35.0592C53.3874 35.0592 54.6697 29.8125 55.5868 29.0086C56.6398 28.0862 57.2597 36.4132 57.0729 38.3342C56.886 40.2552 53.3704 38.605 52.5382 39.1128C51.1795 39.9506 51.2644 47.8715 49.4642 44.6642Z" fill="#CA7A8C"/>
<path d="M111.939 122.376C111.939 122.376 121.314 122.46 121.289 123.857C121.263 125.253 120.219 128.663 120.219 128.663C120.219 128.663 124.966 131.27 125.501 132.361C126.121 133.614 117.892 132.031 116.083 131.346C114.275 130.66 116.797 127.715 116.516 126.776C116.058 125.244 108.373 123.256 111.939 122.367V122.376Z" fill="#CA7A8C"/>
<path d="M167.502 36.2436C167.502 36.2436 192.468 30.1844 198.761 51.3914C205.053 72.5984 186.524 92.2483 162.288 83.1935C138.052 74.1386 155.894 75.6026 156.335 72.1584C156.777 68.7142 149.083 70.1866 148.463 56.5451C147.844 42.9036 163.299 36.3282 167.494 36.2436H167.502Z" fill="#9E82DC"/>
<path d="M174.195 54.4883C174.195 54.4883 163.393 46.3219 162.799 47.3121C162.204 48.3022 164.395 59.2696 164.998 60.6659C165.601 62.0622 157.602 58.4741 157.398 61.4613C157.194 64.4486 162.994 76.203 178.39 72.818C193.785 69.433 187.841 53.8874 187.391 52.6942C186.788 51.1033 187.391 49.5038 186.992 47.7098C186.593 45.9157 181.99 41.7353 177.591 44.7225C173.193 47.7098 174.195 54.4883 174.195 54.4883Z" fill="#5DA9CD"/>
<path d="M182.321 52.7284C181.548 52.7284 180.682 51.6368 179.408 49.098C179.307 48.8865 179.391 48.6326 179.595 48.531C179.808 48.4295 180.062 48.5141 180.164 48.7172C181.71 51.806 182.296 51.8737 182.321 51.8737C182.584 51.6875 182.712 50.0035 182.559 48.3449C182.533 48.1164 182.712 47.9048 182.941 47.8879C183.17 47.871 183.383 48.0402 183.4 48.2687C183.544 49.7835 183.62 52.3815 182.533 52.6946C182.457 52.7115 182.381 52.7284 182.304 52.7284H182.321Z" fill="#261D2A"/>
<path d="M176.325 60.615C175.612 60.615 174.763 60.4965 173.837 60.1157C171.425 59.1256 169.464 56.7476 167.995 53.0495C167.91 52.8295 168.012 52.584 168.232 52.4994C168.453 52.4148 168.699 52.5163 168.784 52.7364C170.16 56.1975 171.96 58.4147 174.143 59.3202C176.257 60.2003 178.007 59.481 178.024 59.481C178.236 59.3879 178.491 59.481 178.584 59.701C178.677 59.9126 178.584 60.1664 178.363 60.2595C178.312 60.2849 177.514 60.615 176.325 60.615Z" fill="#261D2A"/>
<path d="M172.276 65.5484C171.69 65.5484 171.147 65.4468 170.629 65.2437C167.784 64.1097 167.198 60.2932 167.172 60.1324C167.139 59.9039 167.3 59.6839 167.529 59.65C167.767 59.6162 167.979 59.7769 168.013 60.0054C168.013 60.0393 168.557 63.5089 170.943 64.4567C172.701 65.1506 175.044 64.3721 177.923 62.1211C178.11 61.9772 178.373 62.011 178.518 62.1888C178.662 62.3749 178.628 62.6373 178.441 62.7811C176.089 64.6175 174.017 65.5399 172.259 65.5399L172.276 65.5484Z" fill="#261D2A"/>
<path d="M187.655 53.1598C187.511 53.1598 187.375 53.1428 187.264 53.1005C185.838 52.6266 186.228 49.267 186.381 48.2515C186.415 48.023 186.627 47.8623 186.857 47.8961C187.646 47.9977 191.612 48.5393 192.453 49.1739C192.699 49.3601 192.775 49.6563 192.674 49.9694C192.291 51.1034 189.065 53.1598 187.655 53.1598ZM187.162 48.7931C186.976 50.4095 187.069 52.1443 187.536 52.2966C187.553 52.2966 187.587 52.3135 187.663 52.3135C188.801 52.3135 191.493 50.4518 191.841 49.7832C191.188 49.4532 188.903 49.0301 187.171 48.7931H187.162Z" fill="#261D2A"/>
<path d="M119.021 76.399C119.021 76.399 137.746 65.457 151.927 83.1689C164.945 99.4254 150.382 116.418 133.84 119.6C117.298 122.782 104.254 106.178 106.751 106.018C109.247 105.857 115.871 107.042 115.871 107.042C115.871 107.042 110.275 102.447 108.831 93.3578C107.388 84.2691 119.013 76.4074 119.013 76.4074L119.021 76.399Z" fill="#212438"/>
<path d="M133.212 110.265C141.565 110.265 148.336 103.518 148.336 95.1938C148.336 86.8699 141.565 80.1221 133.212 80.1221C124.859 80.1221 118.088 86.8699 118.088 95.1938C118.088 103.518 124.859 110.265 133.212 110.265Z" fill="#CA7A8C"/>
<path d="M127.54 91.3855C127.54 91.3855 129.196 100.237 130.843 101.955C132.49 103.673 141.466 96.3023 140.761 94.0851C140.057 91.8679 127.073 87.9413 127.54 91.3771V91.3855Z" fill="#FEFFFF"/>
<path d="M102.319 21.9252C102.319 21.9252 120.721 6.16801 138.587 22.1706C156.454 38.1731 149.669 62.4097 122.173 67.7495C94.6761 73.0978 114.02 64.7623 112.466 61.3434C110.912 57.9246 104.662 63.6199 96.332 51.4C88.0015 39.1717 98.5059 24.3793 102.327 21.9252H102.319Z" fill="#FDCF61"/>
<path d="M106.718 38.6723C106.718 38.6723 134.937 37.6652 135.208 38.8754C135.48 40.0855 138.512 52.3646 137.408 53.1685C136.304 53.9724 103.551 55.7834 104.103 52.9654C104.655 50.1474 105.478 39.07 106.718 38.6723Z" fill="#FEFFFF"/>
<path d="M109.247 40.7035C109.247 40.7035 132.6 39.9672 132.821 40.8473C133.042 41.7274 135.555 50.7484 134.646 51.3323C133.738 51.9163 106.623 53.2533 107.082 51.1885C107.54 49.1236 108.22 40.9996 109.247 40.7035Z" fill="#5DA9CD"/>
<path d="M133.135 21.3499C130.621 11.5757 118.41 7.59832 109.383 16.0185C98.9298 25.7757 120.38 49.7838 120.38 49.7838C123.565 47.9305 135.649 31.124 133.135 21.3414V21.3499ZM125.526 25.3611C124.932 28.1029 122.223 29.8377 119.48 29.2454C116.729 28.653 114.988 25.9535 115.582 23.2201C116.177 20.4782 118.886 18.7434 121.628 19.3358C124.38 19.9282 126.121 22.6277 125.526 25.3611Z" fill="#CA7A8C"/>
<path d="M17.1868 126.844C17.1868 126.844 14.0194 128.756 15.998 177.432C15.998 177.432 44.3862 176.958 45.8129 176.315C47.2395 175.672 43.9446 148.685 44.4032 146.468C44.8618 144.251 42.2718 131.464 37.338 128.477C32.4042 125.498 19.3692 119.075 17.1868 126.835V126.844Z" fill="#EEB08F"/>
<path d="M7.82105 98.6543C7.82105 98.6543 -0.0254136 100.203 6.19006e-05 105.323C0.0255374 110.443 4.86589 112.228 10.3007 110.993C15.7355 109.766 11.7528 97.7403 7.82105 98.6627V98.6543Z" fill="#DB9A41"/>
<path d="M22.4011 106.719C22.4011 106.719 28.8379 146.933 32.6932 147.872C36.5485 148.812 54.9248 143.997 54.9079 141.119C54.8909 138.242 31.0543 103.8 31.0543 103.8L22.3926 106.719H22.4011Z" fill="#ED5443"/>
<path d="M36.625 77.8374C36.625 77.8374 87.9158 41.7534 90.5228 45.1045C93.1298 48.4557 103.634 112.61 103.294 116.173C102.955 119.735 45.7877 114.945 43.8091 112.136L36.625 77.8374Z" fill="#76AEA6"/>
<path d="M36.6245 77.8369C36.6245 77.8369 10.7159 83.7183 7.8626 91.4192C5.00934 99.1201 7.00492 113.515 14.7325 117.323C22.4601 121.131 43.8086 112.135 43.8086 112.135L36.6245 77.8369Z" fill="#ED5443"/>
<path d="M17.9009 124.888C17.9009 124.888 19.7097 119.684 23.9046 112.736C28.0996 105.788 31.4879 118.719 27.5901 124.761C23.6923 130.803 16.0837 128.281 17.9009 124.888Z" fill="#EEB08F"/>
<path d="M40.2938 115.986C40.2938 115.986 29.696 122.993 30.1885 126.623C30.6811 130.254 43.1811 123.086 43.1811 123.086C43.1811 123.086 30.197 128.367 31.4878 132.471C32.7785 136.575 48.6158 130.812 48.6158 130.812C48.6158 130.812 33.5598 133.884 33.2626 138.319C32.9654 142.753 50.2548 142.821 53.8808 138.225C57.5068 133.63 51.3757 111.992 40.2938 116.003V115.986Z" fill="#EEB08F"/>
<path d="M37.0164 126.851C36.906 126.851 36.8041 126.809 36.7192 126.733C36.5493 126.572 36.5493 126.301 36.7192 126.132C40.2603 122.569 49.1088 121.562 49.4824 121.52C49.7117 121.495 49.924 121.664 49.9495 121.892C49.9749 122.121 49.8051 122.332 49.5758 122.358C49.4909 122.366 40.6509 123.373 37.3221 126.716C37.2372 126.801 37.1268 126.843 37.0249 126.843L37.0164 126.851Z" fill="#261D2A"/>
<path d="M40.5407 133.951C40.3793 133.951 40.2265 133.858 40.1585 133.706C40.0566 133.494 40.15 133.241 40.3623 133.139C40.668 132.995 47.9795 129.576 51.1045 130.372C51.3338 130.431 51.4697 130.66 51.4102 130.888C51.3508 131.117 51.1215 131.252 50.8922 131.193C48.056 130.456 40.7954 133.867 40.7275 133.901C40.668 133.926 40.6086 133.943 40.5492 133.943L40.5407 133.951Z" fill="#261D2A"/>
<path d="M23.1241 118.542C23.1241 118.542 23.1071 118.542 23.0986 118.542C22.6995 118.542 22.1306 118.356 21.689 117.535C21.5786 117.332 21.655 117.069 21.8673 116.959C22.0711 116.849 22.3344 116.926 22.4448 117.129C22.742 117.679 23.0307 117.687 23.1241 117.687H23.1411C24.0497 117.687 25.4594 115.876 26.1387 114.725C26.2576 114.522 26.5209 114.454 26.7162 114.573C26.92 114.691 26.9879 114.954 26.869 115.148C26.6652 115.495 24.8225 118.533 23.1326 118.533L23.1241 118.542Z" fill="#261D2A"/>
<path d="M21.7822 125.556C21.7822 125.556 33.2122 127.714 33.0934 136.092C32.9745 144.47 28.4059 151.13 22.9965 147.838C17.5872 144.546 11.9232 121.334 21.7822 125.556Z" fill="#EEB08F"/>
<path d="M31.071 144.589C31.0201 144.589 30.9776 144.589 30.9266 144.564C30.7059 144.487 30.587 144.242 30.6719 144.022C32.625 138.581 32.642 134.324 30.7313 131.362C28.43 127.799 24.0143 127.385 23.9718 127.385C23.7425 127.368 23.5642 127.165 23.5812 126.928C23.5982 126.691 23.8105 126.53 24.0398 126.538C24.2351 126.555 28.9056 126.978 31.4362 130.897C33.4997 134.087 33.5082 138.597 31.4616 144.301C31.4022 144.479 31.2324 144.58 31.0625 144.58L31.071 144.589Z" fill="#261D2A"/>
<path d="M50.3828 135.534C50.3828 135.534 36.4562 142.558 36.6345 146.349C36.8128 150.14 55.0363 145.63 55.0109 141.204C54.9854 136.778 53.2361 134.256 50.3828 135.534Z" fill="#EEB08F"/>
<path d="M38.8155 139.807C38.6966 139.807 38.5777 139.757 38.4928 139.664C38.3399 139.486 38.3569 139.224 38.5352 139.063C40.845 137.083 40.6837 136.575 40.6837 136.566C40.4969 136.279 38.6456 136.448 36.5481 137.108C36.3189 137.176 36.0896 137.057 36.0132 136.829C35.9452 136.609 36.0641 136.372 36.2934 136.296C37.6266 135.872 40.8026 135.026 41.431 136.152C41.8386 136.888 41.1422 137.946 39.0957 139.697C39.0193 139.765 38.9174 139.799 38.8155 139.799V139.807Z" fill="#261D2A"/>
<path d="M41.2365 147.542C41.1261 147.542 41.0157 147.5 40.9308 147.415C40.7694 147.246 40.7694 146.984 40.9308 146.814C43.9624 143.836 43.6142 143.218 43.6142 143.218C43.4274 142.938 41.78 143.159 39.9372 143.886C39.7164 143.971 39.4702 143.869 39.3853 143.649C39.3004 143.429 39.4023 143.184 39.623 143.099C40.8034 142.634 43.6142 141.678 44.319 142.761C44.854 143.573 44.0133 144.969 41.5252 147.424C41.4403 147.508 41.3384 147.542 41.228 147.542H41.2365Z" fill="#261D2A"/>
<path d="M42.3151 141.374C42.1452 141.374 41.9924 141.272 41.9244 141.111C41.8395 140.891 41.9414 140.646 42.1537 140.561C43.1727 140.147 52.1571 136.525 53.9914 137.007C54.2206 137.066 54.3565 137.303 54.2886 137.523C54.2291 137.752 53.9914 137.879 53.7706 137.819C52.5987 137.498 46.2213 139.808 42.4764 141.331C42.4255 141.357 42.366 141.365 42.3151 141.365V141.374Z" fill="#261D2A"/>
<path d="M34.9773 132.869C34.8499 132.869 34.731 132.818 34.6461 132.708C34.5017 132.53 34.5272 132.259 34.7055 132.116C36.1152 130.982 37.3465 129.678 37.4399 129.23C37.2616 129.179 36.5652 129.137 34.1536 130C33.9328 130.076 33.6865 129.966 33.6101 129.746C33.5337 129.526 33.6441 129.281 33.8648 129.204C37.2021 128.011 37.9155 128.307 38.1957 128.798C38.7052 129.704 36.871 131.455 35.2405 132.767C35.1641 132.835 35.0707 132.86 34.9773 132.86V132.869Z" fill="#261D2A"/>
<path d="M34.0013 126.556C33.8994 126.556 33.806 126.522 33.7211 126.454C33.5428 126.302 33.5258 126.031 33.6786 125.854C34.8505 124.516 35.8101 123.052 35.8271 122.604C35.6403 122.587 34.9864 122.672 32.9229 123.823C32.7191 123.941 32.4558 123.865 32.3454 123.662C32.2265 123.459 32.303 123.196 32.5068 123.086C34.8675 121.766 36.0224 121.462 36.5064 122.054C37.1603 122.849 35.6742 124.863 34.324 126.421C34.2391 126.514 34.1202 126.564 34.0013 126.564V126.556Z" fill="#261D2A"/>
<path d="M81.0032 46.5257C81.0032 46.5257 93.1211 116.477 95.3969 118.271C97.6727 120.065 104.908 116.874 104.908 116.874C104.908 116.874 92.3228 43.767 90.0555 43.3185C87.7882 42.8699 80.0861 43.3692 81.0032 46.5257Z" fill="#ED5443"/>
<path d="M59.6463 52.2298C59.4765 52.2298 59.3151 52.1282 59.2472 51.959C59.2387 51.9336 58.984 51.282 58.7801 50.258C58.7377 50.0295 58.8821 49.8095 59.1113 49.7587C59.3406 49.708 59.5614 49.8603 59.6123 50.0888C59.7992 51.0366 60.0369 51.6459 60.0369 51.6543C60.1219 51.8744 60.0115 52.1198 59.7907 52.2044C59.7397 52.2213 59.6888 52.2298 59.6378 52.2298H59.6463ZM58.9755 48.921C58.7547 48.921 58.5678 48.7517 58.5509 48.5232C58.5339 48.2609 58.5254 47.9816 58.5254 47.7024C58.5254 47.3977 58.5339 47.0931 58.5594 46.7715C58.5763 46.5345 58.7886 46.3653 59.0179 46.3822C59.2472 46.3991 59.4255 46.6022 59.4085 46.8392C59.3831 47.1354 59.3746 47.4231 59.3746 47.7024C59.3746 47.9647 59.3831 48.227 59.4 48.4724C59.417 48.7094 59.2387 48.904 59.0009 48.921C58.9924 48.921 58.9839 48.921 58.9755 48.921ZM59.2642 45.5613C59.2642 45.5613 59.1963 45.5613 59.1538 45.5444C58.9245 45.4852 58.7886 45.2567 58.8481 45.0282C59.0009 44.4443 59.2047 43.8858 59.4595 43.3611C59.5614 43.1495 59.8162 43.0649 60.0285 43.1665C60.2407 43.268 60.3257 43.5219 60.2238 43.7334C59.9945 44.2073 59.8077 44.7151 59.6718 45.2398C59.6208 45.4344 59.451 45.5613 59.2642 45.5613ZM76.4602 42.9549C76.2224 42.9549 76.0356 42.7687 76.0356 42.5318C76.0356 42.2948 76.2224 42.1086 76.4602 42.1086C76.8168 42.0748 77.2754 42.024 77.3858 41.6009C77.4452 41.3724 77.683 41.2455 77.9123 41.3047C78.1416 41.364 78.2689 41.6009 78.2095 41.8294C78.0142 42.5318 77.3603 42.9549 76.4602 42.9549ZM60.7248 42.5318C60.6314 42.5318 60.5465 42.5064 60.47 42.4472C60.2832 42.3033 60.2492 42.041 60.3936 41.8548C60.7503 41.3978 61.1579 40.9578 61.6079 40.56C61.7863 40.4077 62.0495 40.4246 62.2109 40.5939C62.3637 40.7716 62.3467 41.0339 62.1769 41.1947C61.7693 41.5586 61.3956 41.9479 61.0729 42.371C60.988 42.481 60.8606 42.5402 60.7333 42.5402L60.7248 42.5318ZM74.9401 42.3033C74.8382 42.3033 74.7278 42.261 74.6429 42.1848C74.2523 41.804 73.8956 41.3047 73.5899 40.687C73.488 40.4754 73.5729 40.2215 73.7852 40.12C73.9975 40.0184 74.2523 40.103 74.3542 40.3146C74.6174 40.8393 74.9147 41.2624 75.2373 41.5755C75.4072 41.7363 75.4157 42.0071 75.2458 42.1764C75.1609 42.261 75.0505 42.3033 74.9401 42.3033ZM77.3943 40.5431C77.2584 40.5431 77.1225 40.4754 77.0461 40.3569C76.7829 39.9761 76.4092 39.6122 75.9507 39.2906C75.7554 39.1552 75.7044 38.8929 75.8403 38.6983C75.9761 38.5036 76.2394 38.4613 76.4262 38.5883C76.9697 38.9606 77.4282 39.4091 77.7509 39.8746C77.8783 40.0692 77.8359 40.3315 77.6405 40.4585C77.5641 40.5092 77.4877 40.5346 77.4028 40.5346L77.3943 40.5431ZM63.2469 40.2977C63.1025 40.2977 62.9666 40.23 62.8817 40.0946C62.7543 39.8999 62.8223 39.6376 63.0176 39.5107C63.4931 39.2145 64.0196 38.9437 64.5716 38.6983C64.7839 38.6052 65.0386 38.6983 65.132 38.9098C65.2255 39.1214 65.132 39.3753 64.9198 39.4684C64.4017 39.6968 63.9177 39.9507 63.4676 40.23C63.3997 40.2723 63.3233 40.2977 63.2469 40.2977ZM73.3776 39.3499C73.1908 39.3499 73.021 39.2229 72.97 39.0368C72.8851 38.7321 72.8172 38.4275 72.7577 38.1059C72.6473 38.0128 72.5794 37.8689 72.6049 37.7166C72.6134 37.6574 72.6388 37.5981 72.6643 37.5558C72.6558 37.4797 72.6473 37.4035 72.6388 37.3273C72.6134 37.0989 72.7747 36.8873 73.0125 36.8619C73.2418 36.8281 73.4541 36.9973 73.488 37.2343C73.4965 37.3104 73.505 37.3781 73.5135 37.4543C73.9721 37.5474 74.4051 37.6658 74.8212 37.8182C75.042 37.8943 75.1524 38.1397 75.076 38.3598C74.9996 38.5798 74.7533 38.6898 74.5325 38.6136C74.2608 38.5121 73.9721 38.4275 73.6748 38.3598C73.7088 38.5206 73.7513 38.6813 73.7937 38.8421C73.8532 39.0706 73.7173 39.2991 73.4965 39.3583C73.4626 39.3668 73.4201 39.3753 73.3861 39.3753L73.3776 39.3499ZM66.4738 38.8929L66.219 38.089C66.771 37.9113 67.3314 37.7589 67.8664 37.6405C68.0957 37.5897 68.325 37.7335 68.3759 37.962C68.4269 38.1905 68.2825 38.419 68.0532 38.4698C67.5352 38.5883 67.0003 38.7321 66.4653 38.9014L66.4738 38.8929ZM69.6327 38.1821C69.4204 38.1821 69.2421 38.0213 69.2081 37.8097C69.1827 37.5812 69.344 37.3697 69.5733 37.3358C70.1592 37.2596 70.7452 37.2258 71.3056 37.2258C71.5434 37.2258 71.7387 37.412 71.7387 37.6489C71.7387 37.8859 71.5604 38.072 71.3226 38.072C70.7791 38.072 70.2356 38.1059 69.6837 38.1736C69.6667 38.1736 69.6497 38.1736 69.6327 38.1736V38.1821ZM72.9615 35.9987C72.7238 35.9987 72.5369 35.8041 72.5369 35.5756C72.5369 35.0002 72.5794 34.4162 72.6558 33.8408C72.6898 33.6123 72.9021 33.4431 73.1314 33.4769C73.3607 33.5108 73.5305 33.7223 73.4965 33.9508C73.4286 34.4924 73.3861 35.0509 73.3861 35.5925C73.3861 35.821 73.1908 36.0157 72.9615 36.0157V35.9987ZM73.3946 32.6476C73.3946 32.6476 73.3267 32.6476 73.2927 32.6391C73.0634 32.5799 72.9276 32.3514 72.987 32.1229C73.1229 31.5644 73.3012 31.0059 73.505 30.4643C73.5899 30.2442 73.8277 30.1342 74.0485 30.2189C74.2693 30.3035 74.3797 30.5404 74.2948 30.7605C74.0994 31.2767 73.9381 31.8013 73.8107 32.326C73.7598 32.5207 73.5899 32.6476 73.4031 32.6476H73.3946ZM74.5835 29.4826C74.5155 29.4826 74.4561 29.4657 74.3882 29.4403C74.1759 29.3303 74.0994 29.0764 74.2013 28.8733C74.4646 28.3656 74.7618 27.8578 75.0845 27.3755C75.2119 27.1808 75.4751 27.1216 75.6704 27.257C75.8657 27.3839 75.9167 27.6463 75.7893 27.8409C75.4836 28.2979 75.2034 28.7802 74.9571 29.2626C74.8807 29.4065 74.7363 29.4911 74.575 29.4911L74.5835 29.4826ZM76.4517 26.6646C76.3583 26.6646 76.2564 26.6308 76.1799 26.5631C76.0016 26.4107 75.9761 26.1484 76.129 25.9707C76.4941 25.5306 76.8933 25.099 77.3094 24.7013C77.4792 24.5405 77.7424 24.5405 77.9123 24.7013C78.0821 24.8621 78.0736 25.1329 77.9123 25.3021C77.5132 25.683 77.1395 26.0892 76.7914 26.5123C76.7064 26.6138 76.5876 26.6646 76.4687 26.6646H76.4517ZM78.8804 24.3036C78.753 24.3036 78.6341 24.2528 78.5492 24.1428C78.4048 23.9566 78.4303 23.6943 78.6171 23.5504C79.0587 23.195 79.5342 22.8565 80.0183 22.5349C80.2136 22.408 80.4768 22.4588 80.6042 22.6534C80.7316 22.848 80.6806 23.1104 80.4853 23.2373C80.0183 23.5419 79.5682 23.872 79.1436 24.2105C79.0672 24.2697 78.9738 24.3036 78.8804 24.3036ZM81.7081 22.4334C81.5553 22.4334 81.4109 22.3572 81.3345 22.2133C81.2241 22.0102 81.3005 21.7479 81.5043 21.6379C82.0054 21.3671 82.5234 21.1048 83.0499 20.8678C83.2621 20.7663 83.5169 20.8678 83.6103 21.0794C83.7037 21.2909 83.6103 21.5448 83.398 21.6379C82.8885 21.8664 82.3875 22.1203 81.9034 22.3826C81.8355 22.4164 81.7676 22.4334 81.6996 22.4334H81.7081Z" fill="#261D2A"/>
<path d="M98.5137 189C98.2844 189 98.0976 188.823 98.0891 188.594C98.0806 188.357 98.2674 188.163 98.4967 188.154C99.0317 188.137 99.5837 188.087 100.144 188.002C100.373 187.968 100.594 188.129 100.628 188.357C100.662 188.586 100.501 188.806 100.272 188.84C99.6856 188.924 99.0996 188.975 98.5392 189H98.5222H98.5137ZM96.8153 188.967C96.8153 188.967 96.7899 188.967 96.7814 188.967C96.1954 188.916 95.6095 188.831 95.049 188.721C94.8197 188.67 94.6754 188.45 94.7178 188.222C94.7688 187.993 94.9811 187.841 95.2189 187.892C95.7454 188.002 96.2888 188.078 96.8493 188.129C97.0871 188.146 97.2569 188.349 97.2399 188.586C97.2229 188.806 97.0361 188.975 96.8153 188.975V188.967ZM101.868 188.527C101.673 188.527 101.503 188.4 101.452 188.205C101.401 187.977 101.537 187.748 101.766 187.697C102.148 187.604 102.539 187.503 102.929 187.376L103.363 187.24C103.583 187.164 103.821 187.291 103.898 187.511C103.974 187.731 103.847 187.968 103.626 188.044L103.176 188.188C102.768 188.315 102.361 188.425 101.961 188.527C101.927 188.527 101.893 188.535 101.859 188.535L101.868 188.527ZM93.5035 188.273C93.4611 188.273 93.4101 188.273 93.3676 188.247C92.8157 188.061 92.2722 187.833 91.7542 187.57C91.5419 187.469 91.457 187.215 91.5589 187.003C91.6608 186.792 91.9155 186.707 92.1278 186.817C92.6204 187.063 93.1299 187.274 93.6394 187.452C93.8602 187.528 93.9791 187.773 93.9026 187.993C93.8432 188.171 93.6733 188.281 93.5035 188.281V188.273ZM105.086 187.469C104.917 187.469 104.764 187.367 104.696 187.206C104.602 186.995 104.713 186.741 104.925 186.656C105.443 186.445 105.953 186.208 106.437 185.962C106.649 185.861 106.904 185.937 107.006 186.149C107.107 186.36 107.031 186.614 106.819 186.716C106.309 186.969 105.783 187.215 105.248 187.435C105.197 187.46 105.137 187.469 105.086 187.469ZM90.4634 186.775C90.387 186.775 90.3021 186.749 90.2257 186.707C89.7501 186.394 89.2746 186.039 88.8245 185.666C88.6462 185.514 88.6207 185.252 88.7736 185.074C88.9264 184.896 89.1897 184.871 89.368 185.023C89.7926 185.379 90.2342 185.709 90.6842 186.005C90.8795 186.132 90.9305 186.394 90.8031 186.589C90.7182 186.716 90.5823 186.775 90.4464 186.775H90.4634ZM108.101 185.946C107.957 185.946 107.821 185.878 107.736 185.742C107.617 185.539 107.676 185.285 107.88 185.159C108.347 184.871 108.814 184.566 109.264 184.236C109.451 184.101 109.723 184.143 109.859 184.329C109.995 184.515 109.952 184.786 109.765 184.922C109.298 185.26 108.814 185.582 108.33 185.878C108.262 185.92 108.186 185.937 108.109 185.937L108.101 185.946ZM87.8649 184.6C87.7545 184.6 87.6441 184.558 87.5592 184.465C87.1601 184.05 86.7865 183.61 86.4298 183.144C86.2854 182.958 86.3194 182.696 86.5062 182.552C86.6931 182.408 86.9563 182.442 87.1007 182.628C87.4403 183.068 87.8055 183.483 88.1791 183.881C88.3405 184.05 88.332 184.321 88.1621 184.482C88.0772 184.558 87.9753 184.6 87.8734 184.6H87.8649ZM110.835 183.957C110.716 183.957 110.598 183.906 110.513 183.813C110.36 183.635 110.385 183.364 110.564 183.212C110.98 182.857 111.387 182.484 111.795 182.087C111.965 181.926 112.228 181.926 112.398 182.087C112.559 182.256 112.559 182.518 112.398 182.687C111.982 183.094 111.557 183.483 111.124 183.847C111.048 183.915 110.946 183.948 110.852 183.948L110.835 183.957ZM85.7844 181.926C85.6401 181.926 85.5042 181.858 85.4278 181.731C85.1221 181.249 84.8333 180.741 84.5786 180.225C84.4767 180.013 84.5616 179.759 84.7654 179.658C84.9777 179.556 85.2324 179.641 85.3344 179.844C85.5806 180.335 85.8524 180.817 86.1496 181.283C86.2769 181.477 86.2175 181.74 86.0137 181.867C85.9458 181.909 85.8693 181.934 85.7844 181.934V181.926ZM69.4631 181.833H69.4461C68.8602 181.816 68.2827 181.774 67.7138 181.697C67.4845 181.672 67.3146 181.46 67.3486 181.223C67.3741 180.995 67.5864 180.826 67.8242 180.86C68.3676 180.927 68.9196 180.97 69.4716 180.987C69.7093 180.987 69.8877 181.19 69.8792 181.418C69.8792 181.647 69.6839 181.833 69.4546 181.833H69.4631ZM71.1615 181.807C70.9407 181.807 70.7539 181.63 70.7369 181.41C70.7199 181.173 70.9067 180.978 71.136 180.961C71.6795 180.927 72.2314 180.877 72.7919 180.8C73.0212 180.758 73.242 180.927 73.2674 181.164C73.3014 181.393 73.1401 181.613 72.9023 181.638C72.3248 181.714 71.7474 181.774 71.1784 181.807C71.1784 181.807 71.1615 181.807 71.153 181.807H71.1615ZM113.256 181.587C113.154 181.587 113.052 181.554 112.975 181.477C112.797 181.317 112.788 181.054 112.941 180.877C113.323 180.453 113.68 180.03 114.028 179.607C114.173 179.429 114.444 179.396 114.623 179.548C114.801 179.692 114.835 179.963 114.682 180.14C114.326 180.572 113.952 181.012 113.561 181.443C113.476 181.537 113.366 181.587 113.247 181.587H113.256ZM66.1088 181.41C66.1088 181.41 66.0494 181.41 66.0154 181.401C65.4464 181.274 64.886 181.113 64.3425 180.936C64.1217 180.86 64.0028 180.623 64.0793 180.403C64.1557 180.183 64.3935 180.064 64.6142 180.14C65.1322 180.318 65.6672 180.462 66.2022 180.589C66.4315 180.64 66.5759 180.868 66.5249 181.097C66.4824 181.291 66.3041 181.427 66.1088 181.427V181.41ZM74.5242 181.359C74.3289 181.359 74.1506 181.223 74.1081 181.02C74.0657 180.792 74.21 180.563 74.4393 180.521C75.0083 180.411 75.5517 180.284 76.0782 180.157C76.3075 180.106 76.5368 180.242 76.5878 180.47C76.6472 180.699 76.5028 180.927 76.2735 180.987C75.7386 181.122 75.1781 181.24 74.6007 181.359C74.5752 181.359 74.5412 181.359 74.5157 181.359H74.5242ZM77.8191 180.546C77.6322 180.546 77.4709 180.428 77.4115 180.242C77.3435 180.022 77.4709 179.785 77.7002 179.717C78.2522 179.548 78.7871 179.379 79.2882 179.201C79.5089 179.125 79.7552 179.235 79.8316 179.455C79.9081 179.675 79.7977 179.92 79.5769 179.996C79.0589 180.183 78.5154 180.36 77.938 180.53C77.8955 180.538 77.853 180.546 77.8191 180.546ZM62.8989 180.335C62.8394 180.335 62.78 180.326 62.7206 180.301C62.2026 180.064 61.6761 179.793 61.175 179.497C60.9712 179.379 60.9033 179.116 61.0222 178.922C61.1411 178.719 61.3958 178.651 61.5996 178.769C62.0752 179.049 62.5677 179.302 63.0602 179.531C63.2725 179.633 63.3659 179.878 63.2725 180.089C63.2046 180.242 63.0433 180.335 62.8819 180.335H62.8989ZM81.012 179.404C80.8507 179.404 80.6893 179.311 80.6214 179.15C80.528 178.939 80.6214 178.685 80.8422 178.592C81.3687 178.363 81.8697 178.126 82.3452 177.872C82.549 177.762 82.8123 177.838 82.9227 178.05C83.0331 178.253 82.9566 178.515 82.7443 178.625C82.2518 178.888 81.7253 179.133 81.1818 179.37C81.1309 179.396 81.0714 179.404 81.012 179.404ZM115.412 178.981C115.319 178.981 115.234 178.956 115.158 178.896C114.971 178.752 114.937 178.49 115.081 178.304C115.429 177.847 115.769 177.398 116.1 176.958C116.245 176.772 116.508 176.73 116.695 176.874C116.882 177.018 116.924 177.28 116.78 177.466C116.448 177.915 116.109 178.363 115.752 178.82C115.667 178.93 115.54 178.989 115.412 178.989V178.981ZM84.2644 178.913C84.0945 178.913 83.9332 178.812 83.8653 178.642C83.653 178.092 83.4661 177.542 83.3218 176.992C83.2623 176.764 83.3897 176.535 83.619 176.476C83.8483 176.417 84.0776 176.544 84.137 176.772V176.798C84.4852 176.561 84.8079 176.324 85.1051 176.078C85.2834 175.926 85.5551 175.951 85.6995 176.138C85.8524 176.315 85.8269 176.586 85.6401 176.73C85.2579 177.043 84.8418 177.356 84.4002 177.644C84.4767 177.872 84.5616 178.109 84.6465 178.338C84.7314 178.558 84.621 178.803 84.4002 178.888C84.3493 178.905 84.2983 178.913 84.2474 178.913H84.2644ZM59.9777 178.625C59.8928 178.625 59.7994 178.6 59.7314 178.541C59.2729 178.211 58.8143 177.847 58.3727 177.458C58.1944 177.305 58.1774 177.035 58.3303 176.857C58.4831 176.679 58.7549 176.662 58.9332 176.823C59.3578 177.187 59.7909 177.542 60.224 177.855C60.4108 177.991 60.4532 178.262 60.3174 178.448C60.2324 178.558 60.1051 178.625 59.9777 178.625ZM57.4301 176.4C57.3197 176.4 57.2093 176.358 57.1244 176.273C56.7253 175.858 56.3432 175.427 55.978 174.978C55.8337 174.8 55.8591 174.53 56.0375 174.386C56.2158 174.233 56.4875 174.267 56.6319 174.445C56.9801 174.877 57.3537 175.291 57.7358 175.689C57.8972 175.858 57.8887 176.129 57.7189 176.29C57.6339 176.366 57.532 176.408 57.4216 176.408L57.4301 176.4ZM117.459 176.281C117.366 176.281 117.281 176.256 117.204 176.197C117.017 176.053 116.983 175.791 117.128 175.604C117.484 175.147 117.833 174.699 118.198 174.267C118.351 174.09 118.614 174.064 118.792 174.208C118.971 174.36 118.996 174.623 118.843 174.8C118.495 175.224 118.147 175.664 117.799 176.112C117.714 176.222 117.586 176.281 117.459 176.281ZM86.6081 175.664C86.5062 175.664 86.4043 175.63 86.3279 175.554C86.1496 175.393 86.1411 175.13 86.2939 174.953C86.6761 174.53 86.9988 174.098 87.2535 173.666C87.3724 173.463 87.6356 173.404 87.8395 173.514C88.0433 173.633 88.1112 173.895 87.9923 174.098C87.7036 174.58 87.3469 175.054 86.9308 175.52C86.8459 175.613 86.7355 175.664 86.6166 175.664H86.6081ZM83.3897 175.647C83.1859 175.647 82.9991 175.494 82.9736 175.283C82.8887 174.716 82.8462 174.166 82.8462 173.641V173.523C82.8462 173.286 83.0416 173.066 83.2793 173.108C83.5171 173.108 83.7039 173.303 83.6954 173.54V173.641C83.6954 174.123 83.7379 174.64 83.8143 175.164C83.8483 175.393 83.6869 175.613 83.4577 175.647C83.4407 175.647 83.4152 175.647 83.3982 175.647H83.3897ZM55.2732 173.785C55.1373 173.785 55.01 173.726 54.925 173.607C54.5854 173.125 54.2627 172.643 53.974 172.169C53.8551 171.966 53.9145 171.712 54.1183 171.585C54.3221 171.466 54.5769 171.525 54.7043 171.729C54.9845 172.186 55.2902 172.651 55.6214 173.125C55.7572 173.311 55.7148 173.582 55.5195 173.717C55.443 173.768 55.3581 173.793 55.2732 173.793V173.785ZM119.65 173.692C119.54 173.692 119.438 173.65 119.353 173.573C119.183 173.413 119.183 173.142 119.353 172.973C119.794 172.524 120.21 172.143 120.643 171.796C120.83 171.652 121.094 171.678 121.238 171.864C121.382 172.05 121.357 172.312 121.17 172.456C120.762 172.778 120.372 173.133 119.956 173.556C119.871 173.641 119.76 173.683 119.65 173.683V173.692ZM88.281 172.753C88.281 172.753 88.2131 172.753 88.1791 172.744C87.9498 172.685 87.814 172.456 87.8649 172.228C87.9329 171.94 87.9753 171.661 87.9753 171.399C87.9753 171.17 87.9498 170.958 87.8989 170.772C87.8395 170.544 87.9668 170.315 88.1961 170.256C88.4254 170.197 88.6547 170.324 88.7141 170.552C88.782 170.815 88.8245 171.102 88.8245 171.407C88.8245 171.737 88.782 172.084 88.6886 172.439C88.6377 172.634 88.4678 172.761 88.281 172.761V172.753ZM83.4746 172.287C83.4746 172.287 83.4067 172.287 83.3727 172.27C83.1435 172.211 83.0076 171.982 83.067 171.754C83.2369 171.085 83.5086 170.518 83.8738 170.078C84.0266 169.901 84.2899 169.867 84.4682 170.019C84.6465 170.163 84.672 170.434 84.5276 170.612C84.2474 170.958 84.0266 171.415 83.8822 171.966C83.8313 172.16 83.6615 172.287 83.4746 172.287ZM133.05 171.847C132.999 171.847 132.948 171.847 132.906 171.822C132.617 171.712 132.328 171.619 132.048 171.525C131.827 171.449 131.708 171.212 131.776 170.992C131.853 170.772 132.09 170.654 132.311 170.722C132.6 170.815 132.897 170.916 133.194 171.026C133.415 171.111 133.526 171.348 133.449 171.568C133.39 171.737 133.22 171.847 133.05 171.847ZM122.308 171.619C122.155 171.619 122.011 171.542 121.934 171.399C121.824 171.195 121.9 170.933 122.104 170.823C122.631 170.535 123.174 170.298 123.734 170.129C123.964 170.061 124.193 170.18 124.269 170.408C124.337 170.628 124.219 170.865 123.989 170.942C123.48 171.102 122.987 171.314 122.512 171.576C122.444 171.61 122.376 171.627 122.308 171.627V171.619ZM130.553 171.068C130.553 171.068 130.486 171.068 130.452 171.052C129.891 170.908 129.348 170.798 128.83 170.713C128.6 170.679 128.439 170.459 128.481 170.231C128.515 170.002 128.728 169.841 128.965 169.884C129.509 169.968 130.078 170.095 130.664 170.239C130.893 170.298 131.029 170.527 130.97 170.755C130.919 170.95 130.749 171.077 130.562 171.077L130.553 171.068ZM53.4984 170.899C53.3456 170.899 53.2012 170.815 53.1248 170.671C52.8361 170.129 52.5813 169.613 52.3605 169.131C52.2671 168.919 52.3605 168.665 52.5728 168.572C52.7851 168.479 53.0399 168.572 53.1333 168.784C53.3456 169.249 53.5918 169.757 53.8721 170.281C53.9824 170.485 53.906 170.747 53.6937 170.857C53.6343 170.891 53.5663 170.908 53.4984 170.908V170.899ZM125.509 170.603C125.297 170.603 125.11 170.442 125.085 170.231C125.059 170.002 125.221 169.791 125.458 169.765C125.874 169.714 126.299 169.706 126.732 169.689C126.893 169.689 127.055 169.689 127.216 169.698C127.454 169.706 127.632 169.901 127.624 170.138C127.615 170.375 127.394 170.552 127.182 170.544C127.021 170.544 126.868 170.535 126.707 170.535C126.316 170.535 125.925 170.561 125.552 170.603C125.535 170.603 125.518 170.603 125.501 170.603H125.509ZM85.5976 169.858C85.4193 169.858 85.2579 169.748 85.1985 169.571C85.1221 169.351 85.2409 169.105 85.4617 169.029C86.175 168.784 86.8544 168.775 87.4233 169.012C87.6356 169.105 87.746 169.351 87.6526 169.562C87.5592 169.782 87.313 169.884 87.1007 169.791C86.727 169.638 86.2515 169.647 85.742 169.824C85.6995 169.841 85.6485 169.85 85.6061 169.85L85.5976 169.858ZM52.0803 167.819C51.9104 167.819 51.7491 167.717 51.6812 167.548C51.2905 166.55 51.1207 165.923 51.1122 165.898C51.0528 165.669 51.1801 165.441 51.4094 165.382C51.6302 165.322 51.868 165.449 51.9274 165.678C51.9274 165.678 52.0973 166.296 52.4709 167.252C52.5558 167.472 52.4454 167.717 52.2246 167.802C52.1737 167.819 52.1227 167.827 52.0718 167.827L52.0803 167.819Z" fill="#261D2A"/>
</g>
<defs>
<clipPath id="clip0_592_8409">
<rect width="200" height="178" fill="white" transform="translate(0 11)"/>
</clipPath>
</defs>
</svg>
