<?xml version="1.0" encoding="UTF-8"?>
<svg id="Layer_2" data-name="Layer 2" xmlns="http://www.w3.org/2000/svg" viewBox="0 0 28.86 33.43">
  <g id="Layer_1-2" data-name="Layer 1">
    <path d="M25.77,8.39c-2.69,0-4.89,1.94-5.46,4.76l-.81,4.19L15.08,0h-2.84l-2.67,9.8c-.38-.06-.78-.09-1.16-.09C3.89,9.71,0,13.57,0,18.85c0,4.49,2.84,7.57,6.9,7.57,4.29,0,8.72-5.49,11.95-5.78l-2.14,9.42c-.31,1.45-1.32,2.54-2.54,2.54l-.15,.83c2.69,0,4.89-1.94,5.49-4.76l1.69-8.03c2.06,.08,4.01,.44,3.97,2.1,.89-.08,2.21-1.71,1.41-2.55-.81-.86-2.69-.75-5.14-.67l.12-.57,1.55-7.18c.31-1.45,1.32-2.51,2.51-2.51,.83,0,1.24,.65,1.03,1.73-.18,.78-.67,1.48-.85,2.25l.05,.1c1.6,0,2.72-1.09,2.98-2.36,.28-1.35-1.09-2.59-3.06-2.59ZM12.67,1.97l3.01,11.83c-1.36-1.94-3.16-3.25-5.19-3.8L12.67,1.97ZM2.81,18.21c0-3.89,1.8-7.57,5.65-7.57,.29,0,.55,.03,.84,.09l-2.38,8.64c-.17,.67-.29,.9-1.19,.93v.32h3.16v-.32c-.9-.03-1.16-.26-.96-.93l2.29-8.47c2.99,.87,5.74,3.83,6.76,8l.17,.68,.18,.75c-3.06,1.54-6.81,4.83-9.4,4.83-3.13,0-5.13-2.81-5.13-6.96Z"/>
  </g>
</svg>