<svg xmlns="http://www.w3.org/2000/svg" width="134" height="44" viewBox="0 0 134 44" fill="none"><path fill-rule="evenodd" clip-rule="evenodd" d="M101.553 20.3901C101.561 20.3869 101.569 20.3836 101.578 20.3804Z" fill="black"></path><path fill-rule="evenodd" clip-rule="evenodd" d="M37.8015 20.3812C37.7932 20.3844 37.7849 20.3876 37.7766 20.3909ZM45.3993 43.2719C45.5322 43.2895 45.659 43.2724 45.5709 43.2724C45.5385 43.2722 45.5052 43.272 45.4712 43.2719C45.4476 43.2719 45.4237 43.2719 45.3993 43.2719Z" fill="black"></path><path d="M0 9.75744C0.195483 9.6841 0.31766 9.61075 0.439837 9.61075C1.46612 9.58631 2.4924 9.58631 3.51869 9.56186C4.47166 9.53741 5.44908 9.48852 6.40206 9.43962C6.69527 9.41518 6.98851 9.39073 7.28173 9.34184C7.746 9.26849 8.01479 9.53741 8.25914 9.87968C8.79672 10.6375 9.35873 11.3954 9.94518 12.1533C10.6538 13.0578 11.3625 13.9624 12.0955 14.8669C12.5353 15.4292 12.9996 15.9915 13.4394 16.5294C14.1969 17.4583 14.9545 18.3874 15.6875 19.3408C16.445 20.2943 17.2025 21.2232 17.96 22.1767C19.0107 23.4969 20.0858 24.8415 21.1366 26.1616C21.7963 26.9928 22.4805 27.7996 23.1647 28.6308C24.2154 29.9265 25.2417 31.2467 26.268 32.5424C27.1965 33.7159 28.1495 34.8649 29.1025 36.0139L30.1288 37.2607C30.1532 37.2852 30.1532 37.3341 30.1532 37.383C30.1776 37.3585 30.2265 37.3341 30.2509 37.3341C30.2509 37.2118 30.2754 37.0896 30.2754 36.9674V20.6854C30.2754 19.6586 30.2265 18.6074 30.1043 17.5806C30.0066 16.7494 29.86 15.9182 29.6645 15.087L29.6476 15.0098C29.482 14.2517 29.312 13.473 29.0047 12.74C28.4916 11.4932 27.6852 10.4664 26.2435 10.1975C25.6327 10.0997 25.0218 10.0997 24.4109 10.0508C24.191 10.0264 23.9955 9.92857 23.7756 9.87968V9.70855C23.8977 9.65965 24.0444 9.58631 24.1665 9.58631C25.4616 9.58631 26.7811 9.58631 28.0762 9.61075C29.2002 9.6352 30.2998 9.6841 31.4238 9.6841C32.3768 9.6841 33.3298 9.61076 34.2828 9.58631C34.4049 9.58631 34.5515 9.65965 34.6737 9.6841C34.6737 9.73299 34.6737 9.78189 34.6982 9.83078C34.5027 9.90412 34.3072 10.0019 34.1117 10.0264C33.8918 10.0508 33.6963 10.0264 33.4764 10.0508C32.2791 10.0997 31.8392 10.7353 31.6193 11.7132C31.4483 12.52 31.3017 13.3512 31.155 14.158C31.1306 14.3046 31.155 14.4758 31.155 14.6469C30.8863 18.9496 31.0084 23.2524 31.0084 27.5551C30.984 32.6157 31.0084 37.6763 31.0084 42.7369C31.0084 42.9081 30.984 43.1036 30.9351 43.2748C30.8618 43.5437 30.6419 43.6415 30.4464 43.4703C30.1288 43.2259 29.7867 42.957 29.5179 42.6391C28.6871 41.6612 27.9051 40.6345 27.0988 39.6321C25.9014 38.1653 24.7285 36.674 23.5312 35.2071C22.3828 33.7892 21.2588 32.3713 20.1348 30.9534C18.9374 29.4621 17.74 27.9463 16.5427 26.455C15.4676 25.1104 14.3924 23.7413 13.2928 22.3967C12.1688 20.9788 11.0203 19.5608 9.89631 18.1429C8.74785 16.7249 7.62382 15.2825 6.47536 13.8646C6.37762 13.7424 6.27988 13.5957 6.1577 13.4734C6.0844 13.4001 5.98665 13.3756 5.88891 13.3512C5.86448 13.4245 5.81561 13.5223 5.79117 13.5957C5.76674 13.669 5.79117 13.7668 5.79117 13.8401V32.6891C5.79117 33.4225 5.86448 34.1559 5.91335 34.8649C5.98666 35.5983 6.03553 36.3562 6.1577 37.0896C6.25544 37.7986 6.40205 38.4831 6.59754 39.1676C6.76858 39.7788 6.96407 40.39 7.25729 40.9767C7.64826 41.7835 8.2347 42.3947 9.11438 42.688C9.79857 42.9325 10.5072 42.957 11.2402 42.957C11.338 42.957 11.4602 42.9325 11.5335 42.9814C11.6312 43.0303 11.7534 43.1281 11.7778 43.2259C11.8267 43.397 11.6556 43.4215 11.509 43.4215C10.5805 43.4215 9.62752 43.4215 8.69898 43.397C7.4039 43.3726 6.10883 43.2992 4.81376 43.2748C4.39836 43.2748 3.95852 43.2992 3.54312 43.3237C2.8345 43.3481 2.10144 43.397 1.39281 43.4215C1.22177 43.4215 0.977413 43.4459 1.02628 43.2014C1.05072 43.1036 1.27064 42.9814 1.39281 42.9814C1.95483 42.9814 2.46797 42.9081 2.98111 42.6636C3.61643 42.3458 3.98296 41.8079 4.20288 41.1723C4.44723 40.4144 4.61828 39.6566 4.71602 38.8742C4.81376 38.1164 4.93594 37.3585 4.93594 36.5762C4.96037 35.9161 5.03368 35.256 5.05811 34.5715C5.10698 32.2001 5.15585 29.8043 5.15585 27.4329C5.18029 23.2768 5.15585 19.1208 5.15585 14.9647C5.15585 14.598 5.22916 14.2313 5.22916 13.889C5.22916 13.1801 5.10698 12.4955 4.64271 11.9577C4.05626 11.2976 3.37208 10.7598 2.59014 10.3686C2.27249 10.2219 1.88152 10.1486 1.53943 10.0753C1.1729 10.0019 0.806366 10.0019 0.415401 9.95302C0.268789 9.95302 0.195483 9.85523 0 9.75744Z" fill="black"></path><path fill-rule="evenodd" clip-rule="evenodd" d="M44.4777 42.1734C44.4299 42.8145 44.7181 43.1752 45.3424 43.2719C45.3616 43.2719 45.3806 43.2719 45.3993 43.2719C45.2766 43.2555 45.1487 43.2094 45.1805 43.0926C45.1296 42.9324 44.6527 42.2123 44.4777 42.1734Z" fill="black"></path><path d="M39.0806 43.2032C39.9499 43.159 40.8192 43.1663 41.6959 43.2474C42.3081 43.3007 43.2195 43.2962 44.0697 43.2858L44.4292 43.2811L44.4953 43.2802C44.8009 43.2762 45.0895 43.2725 45.3424 43.2719C44.7181 43.1752 44.4299 42.8145 44.4777 42.1734C44.4755 42.1729 44.4734 42.1726 44.4713 42.1723C44.1357 42.6872 44.1641 42.6872 43.4861 42.6872C43.2496 42.6612 43.1325 42.6135 42.9852 42.5251C42.5579 42.2818 42.3369 41.8691 42.2263 41.4047C42.1748 41.191 42.1674 40.9699 42.1232 40.7487C42.0422 40.2918 42.0201 39.8274 41.998 39.363C41.9759 38.8692 41.9832 38.368 41.9832 37.8742V19.0789C41.9832 18.7546 41.7843 18.5703 41.4602 18.504C41.1139 18.4376 40.9076 18.6809 40.6498 18.8135C40.4803 18.8946 40.3404 19.0199 40.1857 19.1231C40.0162 19.241 39.8394 19.3442 39.6626 19.4548C39.5153 19.5432 39.3679 19.6391 39.2132 19.7201C39.0953 19.7865 38.9627 19.8233 38.8449 19.8823C38.6165 19.9928 38.3955 20.1108 38.1671 20.2213C38.0497 20.2835 37.9258 20.3328 37.8015 20.3812L37.7766 20.3909C37.6146 20.4572 37.4599 20.5235 37.2978 20.5899C37.1504 20.6488 37.0105 20.7078 36.8705 20.7594C36.701 20.8257 36.5242 20.8921 36.3474 20.951C36.2517 20.9805 36.1411 21.0026 36.038 21.0321C35.8465 21.0837 35.6549 21.1574 35.4634 21.1869C35.1834 21.2311 35.1834 21.2164 35.1834 21.5038C35.1834 21.5554 35.1834 21.607 35.1908 21.6734C35.2424 21.6734 35.2866 21.6807 35.3234 21.6734C35.5149 21.6365 35.6991 21.5628 35.8907 21.5628C36.399 21.5628 36.9073 21.4449 37.4156 21.6586C37.5925 21.7323 37.7324 21.8282 37.8282 21.9608C38.0492 22.263 38.1008 22.6389 38.1818 22.9927C38.2629 23.3539 38.2039 23.7372 38.2997 24.1131C38.366 24.3563 38.3218 24.629 38.3218 24.887C38.3218 27.4151 38.3365 29.9507 38.3144 32.4788C38.285 35.007 38.4249 37.5351 38.2113 40.0559C38.1892 40.277 38.2187 40.5055 38.1818 40.7193C38.1303 41.0436 38.0492 41.3679 37.9608 41.6922C37.924 41.8322 37.8577 41.9723 37.7693 42.0828C37.5851 42.3334 37.342 42.5251 37.0252 42.5988C36.7894 42.6577 36.5537 42.7978 36.3253 42.7904C35.8096 42.7683 35.2939 42.9673 34.7782 42.8199C34.7561 42.8125 34.734 42.8273 34.6972 42.8346V43.2843C34.7488 43.2916 34.7856 43.299 34.8298 43.299C35.596 43.299 36.3622 43.299 37.1283 43.2916C37.7766 43.2843 38.4323 43.24 39.0806 43.2032Z" fill="black"></path><path d="M39.9423 9.29037H40.3623C40.6128 9.29037 40.8264 9.37881 41.0327 9.51149C41.1726 9.60731 41.3274 9.67364 41.4747 9.76209C41.7399 9.91688 41.9094 10.1601 42.0862 10.396C42.3514 10.7424 42.4103 11.1478 42.4914 11.5753C42.5503 11.907 42.4619 12.2018 42.4324 12.504C42.4103 12.7104 42.2777 12.9167 42.1672 13.101C41.9536 13.4622 41.622 13.7202 41.32 14.0002C41.2463 14.0666 41.1358 14.1034 41.04 14.1329C40.819 14.1919 40.598 14.2435 40.377 14.2877C40.1928 14.3246 40.0087 14.3909 39.8318 14.3688C39.5077 14.3246 39.1688 14.273 38.8815 14.1255C38.5721 13.9781 38.27 13.757 38.0416 13.499C37.8427 13.2779 37.7028 12.9905 37.5849 12.703C37.386 12.2018 37.4744 11.7006 37.4965 11.1994C37.5038 11.0372 37.6291 10.8824 37.7028 10.7277C37.7396 10.6392 37.8059 10.5655 37.828 10.4697C37.9238 10.1601 38.1816 9.99058 38.3953 9.7842C38.5942 9.59256 38.8741 9.51886 39.1099 9.38618C39.3824 9.2314 39.6698 9.34933 39.9423 9.29037Z" fill="black"></path><path fill-rule="evenodd" clip-rule="evenodd" d="M58.4884 25.2808C57.2226 26.5024 56.0258 27.7973 54.783 29.0677C54.829 28.9456 54.875 28.8723 54.875 28.7257C57.7059 23.424 60.4907 18.1224 63.3445 12.8452C64.7715 10.231 66.3365 7.69012 68.4308 5.56458C69.7657 4.19642 71.3307 3.26802 73.2179 3.0237C75.4734 2.75496 77.7289 2.92598 79.9843 3.12143C82.2168 3.31688 84.4492 3.51233 86.6817 3.65892C87.0269 3.68335 87.4872 3.58563 87.6943 3.36575C88.2007 2.80382 88.684 2.1686 89.0292 1.48452C89.3974 0.70271 89.1213 0.287373 88.2927 0.23851C87.119 0.140784 85.9682 0.0674901 84.7945 0.018627C79.3859 -0.176825 74.3457 1.16691 69.6506 4.00097C66.2214 6.07765 63.2525 8.69182 60.7439 11.9168C58.9947 14.1889 57.7289 16.7787 56.371 19.2951C52.5045 26.5268 48.684 33.7586 44.8405 40.9903C44.6794 41.3079 44.5413 41.6744 44.4953 42.0164C44.4873 42.0705 44.4815 42.1228 44.4777 42.1734C44.6527 42.2123 45.1296 42.9324 45.1805 43.0926C45.1487 43.2094 45.2766 43.2555 45.3993 43.2719L45.4712 43.2719L45.5709 43.2724C45.659 43.2724 45.5322 43.2895 45.3993 43.2719L45.3424 43.2719C45.381 43.2779 45.4208 43.2829 45.4619 43.2869C45.8762 43.3113 46.3135 43.2624 46.7278 43.2869C47.142 43.3113 47.3722 43.1158 47.5793 42.7249C49.3284 39.3289 51.1006 35.9574 52.8727 32.5858C52.9648 32.4148 53.1489 32.1705 53.287 32.1705C55.2203 32.0728 56.8543 32.5614 57.844 34.8091C58.2813 35.8108 58.4884 36.9347 58.7876 38.0096C59.1098 39.1824 59.363 40.3551 59.7082 41.5278C60.0764 42.7494 60.4777 43.1496 61.7795 43.3941C62.7001 43.4185 63.3939 43.7608 65.0476 43.7608C68.4034 43.7608 74.2982 43.6432 77.6354 43.7541C76.7396 43.5401 75.9265 43.1438 75.2148 42.5652C74.9828 42.3783 74.7696 42.1794 74.5773 41.9678C74.1083 42.192 72.6611 42.3624 72.0845 42.5384C71.3834 42.7525 69.1523 42.9051 67.564 42.7829C66.2468 42.486 64.7715 42.1065 64.2652 41.6828C63.3941 40.9537 63.2064 40.1596 62.9533 39.3045C62.539 37.9119 62.2168 36.4949 61.7795 35.1023C61.5954 34.4915 61.2502 33.9051 60.8589 33.3921C60.0764 32.366 58.9717 31.7796 57.7289 31.5109C60.1455 31.0711 62.539 30.6802 64.9096 30.1916C67.6483 29.6541 70.0189 28.4081 71.5839 25.7939C72.2283 24.7433 72.7807 23.6195 72.4354 22.3002C72.0442 20.8587 71.2387 19.686 70.1339 18.7332C69.3975 18.098 68.5919 17.9269 67.7174 18.3423C66.8198 18.782 65.8992 19.1974 65.0476 19.7349C62.6541 21.2985 60.5367 23.253 58.4884 25.2808ZM53.6783 31.804H53.3791C53.4711 31.6086 53.5172 31.462 53.6092 31.3398C56.5091 27.4797 59.8463 24.0837 63.7358 21.2985C64.4032 20.8343 65.1627 20.4922 65.8762 20.1013C66.5206 19.7593 67.0269 20.028 67.4872 20.4922C69.2133 22.3002 69.2594 24.7433 67.6023 26.649C66.4285 27.9927 64.9326 28.799 63.3445 29.4342C60.2145 30.6802 56.9694 31.3154 53.6783 31.804Z" fill="black"></path><path d="M103.719 9.28958H104.139C104.389 9.28958 104.603 9.37803 104.809 9.5107C104.949 9.60652 105.104 9.67286 105.251 9.76131C105.516 9.91609 105.686 10.1593 105.863 10.3952C106.128 10.7416 106.187 11.147 106.268 11.5745C106.327 11.9062 106.238 12.201 106.209 12.5032C106.187 12.7096 106.054 12.916 105.944 13.1002C105.73 13.4614 105.398 13.7194 105.096 13.9995C105.023 14.0658 104.912 14.1026 104.816 14.1321C104.595 14.1911 104.374 14.2427 104.153 14.2869C103.969 14.3238 103.785 14.3901 103.608 14.368C103.284 14.3238 102.945 14.2722 102.658 14.1248C102.349 13.9773 102.046 13.7562 101.818 13.4983C101.619 13.2771 101.479 12.9897 101.361 12.7022C101.162 12.201 101.251 11.6998 101.273 11.1986C101.28 11.0364 101.406 10.8817 101.479 10.7269C101.516 10.6384 101.582 10.5647 101.604 10.4689C101.7 10.1593 101.958 9.9898 102.172 9.78342C102.371 9.59178 102.651 9.51807 102.886 9.3854C103.159 9.23062 103.446 9.34855 103.719 9.28958Z" fill="black"></path><path d="M108.957 43.0918C108.89 43.3351 108.699 43.2982 108.529 43.2982C107.513 43.2908 106.489 43.3351 105.472 43.2466C104.595 43.1655 103.726 43.1582 102.857 43.2024C102.209 43.2393 101.553 43.2835 100.905 43.2908C100.139 43.2982 99.3729 43.2982 98.6071 43.2982H98.606C98.5605 43.2982 97.0588 43.2982 97.0073 43.2908C97.0073 43.1361 97.7403 42.9813 97.7403 42.8265L98.5544 42.8191C98.5544 42.8191 99.546 42.6643 100.062 42.6864C100.29 42.6938 100.566 42.657 100.801 42.598C101.118 42.5243 101.361 42.3327 101.545 42.0821C101.634 41.9715 101.7 41.8314 101.737 41.6914C101.825 41.3671 101.906 41.0428 101.958 40.7185C101.995 40.5047 101.965 40.2762 101.987 40.0551C102.201 37.5343 102.061 35.0062 102.091 32.478C102.113 29.9499 102.098 27.4144 102.098 24.8862C102.098 24.6282 102.142 24.3555 102.076 24.1123C101.98 23.7364 102.039 23.3531 101.958 22.9919C101.877 22.6381 101.825 22.2622 101.604 21.96C101.509 21.8274 101.369 21.7315 101.192 21.6578C100.684 21.4441 100.175 21.562 99.6669 21.562C99.4753 21.562 99.2911 21.6357 99.0996 21.6726C99.0628 21.68 99.0186 21.6726 98.967 21.6726C98.9596 21.6062 98.9596 21.5547 98.9596 21.5031C98.9596 21.2156 98.9596 21.2303 99.2396 21.1861C99.4311 21.1566 99.6227 21.0829 99.8142 21.0313C99.9173 21.0019 100.028 20.9797 100.124 20.9503C100.3 20.8913 100.477 20.825 100.647 20.7586C100.787 20.707 100.927 20.6481 101.074 20.5891C101.236 20.5228 101.391 20.4564 101.553 20.3901L101.578 20.3804C101.702 20.332 101.826 20.2827 101.943 20.2206C102.172 20.11 102.393 19.9921 102.621 19.8815C102.739 19.8225 102.872 19.7857 102.989 19.7193C103.144 19.6383 103.291 19.5424 103.439 19.454C103.616 19.3434 103.792 19.2403 103.962 19.1223C104.117 19.0191 104.257 18.8938 104.426 18.8128C104.684 18.6801 104.89 18.4368 105.236 18.5032C105.561 18.5695 105.759 18.7538 105.759 19.0781V37.8734C105.759 38.3672 105.752 38.8684 105.774 39.3623C105.796 39.8266 105.818 40.291 105.899 40.748C105.944 40.9691 105.951 41.1902 106.003 41.4039C106.113 41.8683 106.334 42.2811 106.761 42.5243C106.909 42.6127 107.1 42.6201 107.262 42.6864C107.697 42.8486 108.154 42.7749 108.596 42.8265C108.765 42.8486 108.905 42.9297 108.957 43.0918Z" fill="black"></path><path fill-rule="evenodd" clip-rule="evenodd" d="M125.136 37.7002C124.647 38.4825 124.061 39.167 123.426 39.8515C122.619 40.7316 121.74 41.514 120.762 42.1985C120.005 42.7363 119.198 43.1764 118.343 43.5675C117.659 43.8854 116.901 44.0565 116.144 43.9832C115.969 43.9691 115.791 43.9591 115.614 43.9491C115.173 43.9242 114.729 43.8992 114.311 43.812C113.309 43.6164 112.405 43.2008 111.623 42.5652C110.744 41.8562 110.133 40.9761 109.913 39.876C109.901 39.824 109.889 39.7718 109.878 39.7192C109.788 39.3266 109.696 38.9195 109.717 38.5314C109.766 37.4557 110.084 36.4289 110.695 35.5488C111.526 34.3509 112.601 33.4219 113.774 32.6151C115.337 31.511 117.03 30.6883 118.731 29.8618L119.052 29.7059C119.54 29.4777 120.051 29.2713 120.561 29.0648C120.816 28.9616 121.072 28.8584 121.324 28.7524C121.542 28.6654 121.758 28.5783 121.974 28.4916L121.975 28.4911C122.728 28.1881 123.472 27.8884 124.232 27.6034C124.5 27.4935 124.77 27.3894 125.038 27.2856C125.307 27.1818 125.576 27.0777 125.845 26.9678C125.942 26.9189 126.04 26.7722 126.04 26.6744C126.008 26.2181 125.953 25.7618 125.899 25.3054C125.872 25.0772 125.845 24.849 125.82 24.6208C125.804 24.5067 125.79 24.3926 125.777 24.2785C125.75 24.0504 125.723 23.8222 125.674 23.594C125.478 22.445 125.161 21.3204 124.403 20.3914C123.963 19.8536 123.377 19.5113 122.741 19.2669C121.788 18.9246 120.811 18.949 119.834 19.0468C119.027 19.1202 118.27 19.4624 117.61 19.9514C116.828 20.5137 116.291 21.2471 115.802 22.0294C115.46 22.6055 115.131 23.1948 114.806 23.7778L114.805 23.7796C114.689 23.9878 114.573 24.1951 114.458 24.4008C114.14 24.9387 113.676 25.2076 113.065 25.2565C112.625 25.2809 112.185 25.3054 111.746 25.232L111.722 25.2277C111.191 25.1313 110.618 25.0272 110.377 24.4008C110.241 24.0823 110.358 23.8274 110.474 23.5768L110.499 23.5207C110.817 22.7628 111.428 22.225 112.112 21.8338C113.114 21.2471 114.116 20.6848 115.142 20.1959C115.924 19.8292 116.73 19.5602 117.561 19.2913C117.634 19.2687 117.707 19.2458 117.78 19.2229C118.42 19.0226 119.078 18.8168 119.736 18.729C120.689 18.6068 121.666 18.5334 122.619 18.5823C123.499 18.6312 124.403 18.8268 125.234 19.1446C126.26 19.5602 127.164 20.1959 127.873 21.0515C128.435 21.7361 128.826 22.4939 129.119 23.3496C129.339 23.9608 129.486 24.5964 129.583 25.2565C129.777 26.5414 129.742 27.8264 129.708 29.1113C129.694 29.611 129.681 30.1107 129.681 30.6104C129.681 31.3622 129.64 32.114 129.599 32.8657C129.585 33.1163 129.571 33.3669 129.559 33.6175C129.51 34.5709 129.461 35.5244 129.437 36.4778C129.43 36.7199 129.419 36.964 129.408 37.2089C129.381 37.8296 129.353 38.4557 129.388 39.0692C129.437 39.8271 129.559 40.6094 129.73 41.3673C129.852 41.9296 130.292 42.3696 130.878 42.2474C131.123 42.1985 131.367 42.1007 131.538 41.9296C132.149 41.4162 132.638 40.8294 133.029 40.1449C133.126 39.9493 133.249 39.7782 133.371 39.6071C133.493 39.4359 133.664 39.3381 133.859 39.5337C134.055 39.7049 134.031 39.876 133.884 40.0471C133.249 40.9272 132.442 41.6606 131.587 42.3207C130.952 42.8097 130.316 43.2986 129.559 43.6164C128.899 43.9098 128.239 44.032 127.482 43.8854C126.7 43.7142 126.211 43.2253 125.82 42.6141C125.649 42.3452 125.576 42.0029 125.551 41.6851C125.478 40.8539 125.454 39.9982 125.454 39.167C125.454 38.8167 125.48 38.4751 125.506 38.1319C125.524 37.9002 125.542 37.6677 125.551 37.4313V37.1379C125.527 37.1134 125.503 37.089 125.478 37.089C125.417 37.1868 125.362 37.2907 125.307 37.3946C125.252 37.4985 125.197 37.6024 125.136 37.7002ZM124.305 28.0679C124.55 27.9579 124.788 27.8479 125.026 27.7379C125.264 27.6279 125.503 27.5179 125.747 27.4078C125.79 27.3794 125.832 27.3675 125.884 27.3529C125.922 27.3424 125.965 27.3305 126.016 27.31C126.016 27.7456 126.019 28.1757 126.021 28.6021C126.027 29.4441 126.032 30.2717 126.016 31.0994C125.991 31.7595 125.942 32.444 125.894 33.1041C125.873 33.3549 125.857 33.6038 125.84 33.8514L125.84 33.8556C125.797 34.4995 125.755 35.1342 125.649 35.7688C125.551 36.3067 125.258 36.7712 124.965 37.2357C124.061 38.6047 122.937 39.7538 121.617 40.7072C120.982 41.1961 120.273 41.5629 119.516 41.734C119.436 41.7493 119.354 41.7665 119.273 41.7837C118.834 41.8764 118.381 41.9723 117.928 41.8073C117.732 41.7421 117.515 41.7204 117.298 41.6987C117.189 41.6878 117.081 41.677 116.975 41.6607C116.242 41.5629 115.606 41.1961 114.995 40.7561C114.336 40.2916 113.871 39.656 113.505 38.947C113.334 38.6292 113.261 38.2136 113.212 37.8469C113.138 37.3335 113.163 36.7956 113.212 36.2822C113.285 35.451 113.554 34.6687 113.969 33.9597C114.507 33.0552 115.362 32.4195 116.242 31.8817C117.39 31.1727 118.563 30.5371 119.809 30.0237C120.137 29.8952 120.457 29.7418 120.778 29.5876C121.007 29.4778 121.237 29.3676 121.471 29.2658C122.399 28.8502 123.352 28.4591 124.305 28.0679Z" fill="black"></path><path fill-rule="evenodd" clip-rule="evenodd" d="M87.017 39.8515C87.6523 39.167 88.2388 38.4825 88.7275 37.7002C88.7731 37.6272 88.8152 37.5509 88.8565 37.4737C88.864 37.4597 88.8715 37.4457 88.8789 37.4317L88.8985 37.3946L88.9192 37.3556C88.9674 37.2648 89.0161 37.1746 89.0696 37.089C89.094 37.089 89.1185 37.1134 89.1429 37.1379V37.4313C89.1331 37.6677 89.1153 37.9002 89.0975 38.1319C89.0713 38.4751 89.0452 38.8167 89.0452 39.167C89.0452 39.9982 89.0696 40.8539 89.1429 41.6851C89.1673 42.0029 89.2406 42.3452 89.4117 42.6141C89.8026 43.2253 90.2914 43.7142 91.0733 43.8854C91.8308 44.032 92.4905 43.9098 93.1503 43.6164C93.9078 43.2986 94.5431 42.8097 95.1784 42.3207C96.0337 41.6606 96.84 40.9272 97.4753 40.0471C97.622 39.876 97.6464 39.7049 97.4509 39.5337C97.2554 39.3381 97.0844 39.4359 96.9622 39.6071C96.84 39.7782 96.7179 39.9493 96.6201 40.1449C96.2291 40.8294 95.7404 41.4162 95.1296 41.9296C94.9585 42.1007 94.7141 42.1985 94.4698 42.2474C93.8833 42.3696 93.4435 41.9296 93.3213 41.3673C93.1503 40.6094 93.0281 39.8271 92.9792 39.0692C92.9442 38.4557 92.972 37.8296 92.9995 37.2089C93.0104 36.964 93.0212 36.7199 93.0281 36.4778C93.0526 35.5244 93.1014 34.5709 93.1503 33.6175C93.1625 33.3669 93.1763 33.1163 93.19 32.8657C93.2312 32.114 93.2725 31.3622 93.2725 30.6104C93.2725 30.1107 93.2859 29.611 93.2993 29.1113C93.3338 27.8264 93.3683 26.5414 93.1747 25.2565C93.077 24.5964 92.9304 23.9608 92.7105 23.3496C92.4172 22.4939 92.0263 21.7361 91.4643 21.0515C90.7556 20.1959 89.8515 19.5602 88.8252 19.1446C87.9944 18.8268 87.0903 18.6312 86.2107 18.5823C85.2577 18.5334 84.2803 18.6068 83.3273 18.729C82.6696 18.8168 82.0118 19.0226 81.3717 19.2229C81.2984 19.2458 81.2254 19.2687 81.1525 19.2913C80.3217 19.5602 79.5154 19.8292 78.7335 20.1959C77.7072 20.6848 76.7053 21.2471 75.7035 21.8338C75.0193 22.225 74.4084 22.7628 74.0907 23.5207L74.065 23.5768C73.9496 23.8274 73.8321 24.0823 73.9686 24.4008C74.2094 25.0272 74.7823 25.1313 75.3134 25.2277L75.3369 25.232C75.7768 25.3054 76.2166 25.2809 76.6564 25.2565C77.2673 25.2076 77.7316 24.9387 78.0493 24.4008C78.1649 24.1951 78.2805 23.9878 78.3966 23.7796L78.3976 23.7778C78.7227 23.1948 79.0513 22.6055 79.3932 22.0294C79.8819 21.2471 80.4195 20.5137 81.2014 19.9514C81.8612 19.4624 82.6187 19.1202 83.425 19.0468C84.4025 18.949 85.3799 18.9246 86.3328 19.2669C86.9682 19.5113 87.5546 19.8536 87.9944 20.3914C88.7519 21.3204 89.0696 22.445 89.2651 23.594C89.3139 23.8222 89.3411 24.0504 89.3682 24.2785C89.3818 24.3926 89.3954 24.5067 89.4117 24.6208C89.4361 24.8485 89.4631 25.0761 89.4902 25.3037L89.4904 25.3054C89.5447 25.7618 89.599 26.2181 89.6316 26.6744C89.6316 26.7722 89.5339 26.9189 89.4361 26.9678C89.1673 27.0778 88.8985 27.1817 88.6298 27.2856C88.361 27.3895 88.0922 27.4934 87.8234 27.6034C87.0642 27.8882 86.3198 28.1878 85.5672 28.4907L85.5663 28.4911L85.5614 28.4931L85.5559 28.4953C85.3433 28.5808 85.13 28.6666 84.9156 28.7524C84.6631 28.8584 84.4079 28.9616 84.1526 29.0648C83.6422 29.2713 83.1318 29.4777 82.6431 29.7059L82.3224 29.8618C80.6216 30.6883 78.9284 31.511 77.3651 32.6151C76.1922 33.4219 75.117 34.3509 74.2862 35.5488C73.6753 36.4289 73.3577 37.4557 73.3088 38.5314C73.2873 38.9195 73.3798 39.3266 73.4689 39.7192C73.4809 39.7718 73.4928 39.824 73.5043 39.876C73.6662 40.6861 74.0401 41.3768 74.5773 41.9678C74.6052 41.9545 74.6296 41.941 74.6502 41.9272C74.711 41.9917 75.567 42.4718 76.3754 42.9251C77.0985 43.3306 77.7833 43.7146 77.8268 43.7608C77.764 43.7584 77.7002 43.7562 77.6354 43.7541C77.7237 43.7751 77.8128 43.7945 77.9026 43.812C78.3209 43.8992 78.764 43.9242 79.2053 43.9491C79.3828 43.9591 79.5601 43.9691 79.7353 43.9832C80.4928 44.0565 81.2503 43.8854 81.9345 43.5675C82.7897 43.1764 83.5961 42.7363 84.3536 42.1985C85.331 41.514 86.2107 40.7316 87.017 39.8515ZM79.833 31.8817C80.9815 31.1727 82.1544 30.5371 83.4006 30.0237C83.7288 29.8952 84.0486 29.7418 84.3698 29.5876C84.5987 29.4778 84.8284 29.3676 85.0622 29.2658C85.2874 29.165 85.5141 29.0657 85.7418 28.9674C86.4085 28.6797 87.0845 28.4014 87.7611 28.1236C87.8061 28.1051 87.8516 28.0864 87.8967 28.0679C88.1411 27.9579 88.3793 27.8479 88.6175 27.7379C88.8558 27.6279 89.094 27.5179 89.3384 27.4078C89.381 27.3794 89.4236 27.3675 89.4758 27.3529C89.5134 27.3424 89.556 27.3305 89.6072 27.31C89.6072 27.7449 89.6099 28.1743 89.6127 28.6L89.6127 28.6021C89.6181 29.4441 89.6234 30.2717 89.6072 31.0994C89.5827 31.7595 89.5339 32.444 89.485 33.1041C89.4646 33.3563 89.4479 33.6067 89.4314 33.8556C89.3886 34.4995 89.3464 35.1342 89.2407 35.7688C89.1579 36.224 88.9352 36.6267 88.6909 37.0213C88.6466 37.0929 88.6015 37.1643 88.5564 37.2357C87.6523 38.6047 86.5283 39.7538 85.2088 40.7072C84.5735 41.1961 83.8649 41.5629 83.1074 41.734C83.0269 41.7493 82.9459 41.7665 82.8643 41.7837C82.4257 41.8764 81.9724 41.9723 81.5191 41.8073C81.3236 41.7421 81.1064 41.7204 80.8892 41.6987C80.7806 41.6878 80.672 41.677 80.5661 41.6607C79.833 41.5629 79.1977 41.1961 78.5868 40.7561C77.9271 40.2916 77.4628 39.656 77.0963 38.947C76.9252 38.6292 76.8519 38.2136 76.8031 37.8469C76.7298 37.3335 76.7542 36.7956 76.8031 36.2822C76.8764 35.451 77.1452 34.6687 77.5606 33.9597C78.0981 33.0552 78.9534 32.4195 79.833 31.8817Z" fill="black"></path><path d="M74.6502 41.9272C74.6296 41.941 74.6052 41.9545 74.5773 41.9678C74.7696 42.1794 74.9828 42.3783 75.2148 42.5652C75.9265 43.1438 76.7396 43.5401 77.6354 43.7541C77.7002 43.7562 77.764 43.7584 77.8268 43.7608C77.7833 43.7146 77.0985 43.3306 76.3754 42.9251C75.567 42.4718 74.711 41.9917 74.6502 41.9272Z" fill="black"></path></svg>