<?xml version="1.0" encoding="UTF-8"?>
<svg id="Layer_2" data-name="Layer 2" xmlns="http://www.w3.org/2000/svg" viewBox="0 0 122.82 23.99">
  <g id="Layer_1-2" data-name="Layer 1">
    <g>
      <path d="M11.42,19.03c.64-.02,.8-.18,.7-.66l-.1-.33c-.72-2.95-2.67-5.04-4.78-5.66l-1.62,5.99c-.14,.47,.04,.64,.68,.66v.23h-2.24v-.23c.64-.02,.72-.18,.84-.66l1.68-6.11c-.21-.04-.39-.06-.59-.06-2.73,0-4,2.6-4,5.35,0,2.93,1.42,4.92,3.63,4.92,2.38,0,4.98-2.32,7.83-2.32,1.56,0,2.58,.68,3.34,1.58,.39,1.05-.68,2.15-1.72,2.26,.04-1.58-.33-3.18-2.15-3.18-2.3,0-4.92,2.54-8.04,2.54-2.87,0-4.88-2.17-4.88-5.35,0-3.73,2.75-6.46,5.95-6.46,.27,0,.55,.02,.82,.06l1.89-6.93h2.01l3.49,13.7c.12,.47,.23,.64,.86,.66v.23h-3.59v-.23Zm-2.46-12.96l-1.54,5.68c1.44,.39,2.71,1.31,3.67,2.69l-2.13-8.37Z"/>
      <path d="M21.43,9.58c0-.55-.25-.66-.76-.68v-.21l2.42-.45c.08-.02,.25,0,.33,0v10.13c0,.1,.02,.27,.18,.27,.29,0,.72-.47,.9-.68v.21c-.47,.59-1.15,1.27-1.95,1.27-.64,0-1.13-.43-1.13-1.07v-.96c-.33,1.07-1.35,2.07-2.85,2.07s-2.77-1.07-2.77-3.79v-6.11c0-.55-.27-.66-.78-.68v-.21l2.42-.45c.08-.02,.25,0,.33,0v7.22c0,2.42,.55,3.28,1.39,3.28,1.11,0,2.13-1.54,2.26-3.36v-5.8Z"/>
      <path d="M25.43,19.03c.49-.02,.78-.1,.78-.66V9.52c0-.53-.29-.64-.78-.66v-.23c.76-.12,1.78-.43,2.52-.43h.23v2.11c.33-1.21,1.19-2.21,2.79-2.21,1.07,0,2.05,.47,2.42,1.35l-1.11,1.44c-.08-.78-.64-2.36-1.76-2.36-1.48,0-2.34,2.67-2.34,3.59v6.25c0,.55,.29,.64,.78,.66v.23h-3.53v-.23Z"/>
      <path d="M41.83,16.59c-.53,1.74-1.89,2.89-3.67,2.89-1.93,0-4.55-1.37-4.55-5.52,0-3.38,1.76-5.72,4.78-5.72,2.19,0,3.77,1.25,3.77,3.3,0,2.54-2.36,4.76-5.82,5.54,.64,1.09,1.62,1.46,2.56,1.46,1.31,0,2.4-.72,2.71-2.05l.23,.1Zm-5.66,.16c2.58-.53,4.25-2.34,4.25-5.04,0-1.76-.72-2.97-2.11-2.97-1.64,0-2.71,1.62-2.71,4.82,0,1.5,.23,2.46,.57,3.2Z"/>
      <path d="M42.73,19.03c.64-.02,.76-.18,.76-.66V6.36c0-2.62-4.53-.57-4.53-3.88,0-1.21,.62-2.07,1.91-2.48,.72,.12,2.05,.8,1.74,1.72-.31-.12-.64-.18-1-.18-1.29,0-1.95,.74-1.95,1.37,0,1.23,2.4,1.46,3.79,1.46l1.7-.31h.33v14.31c0,.47,.12,.64,.76,.66v.23h-3.51v-.23Z"/>
      <path d="M47.28,19.03c.51-.02,.78-.1,.78-.66V9.58c0-.55-.27-.66-.78-.68v-.21l2.42-.45c.08-.02,.25,0,.33,0v10.13c0,.55,.27,.64,.78,.66v.23h-3.53v-.23Zm1.8-15.2c.78,0,1.27,.49,1.27,1.21,0,.76-.49,1.25-1.27,1.25s-1.29-.49-1.29-1.25c0-.72,.49-1.21,1.29-1.21Z"/>
      <path d="M54.15,12.51c-.92,.31-1.62-1.03-1.72-1.72,.53-1.74,2.26-2.54,3.96-2.54,2.21,0,3.94,1.33,3.94,3.65v7.36c0,1.39,.18,3.83,1.44,3.83,.66,0,1.39-.64,1.39-1.95,0-.37-.06-.7-.21-1,.92-.31,1.62,1.03,1.72,1.74-.39,1.29-1.25,1.91-2.46,1.91-3.3,0-1.25-4.53-3.88-4.53v-2.17c-.82,1.56-1.89,2.4-3.51,2.4-1.85,0-3.01-1.07-3.01-2.56,0-2.83,4.16-3.75,6.52-4.72v-.31c0-1.35-.47-3.16-2.13-3.16-1.5,0-2.26,1.48-2.26,2.77,0,.37,.06,.7,.21,1Zm4.18,.23c-1.93,.9-4.53,1.58-4.53,3.92,0,1.19,.68,1.99,1.6,1.99,1.21,0,2.28-1.29,2.93-2.67v-3.24Z"/>
      <path d="M70.66,19.03c.64-.02,.76-.18,.76-.66V5.6c0-.45-.12-.64-.76-.66-1.03,0-1.42,.98-1.42,2.42,0,1.83,.64,3.08,1.23,3.83-1.85-.1-2.67-1.5-3.04-2.3,0-2.52,1.09-4.18,3.22-4.18h1.93c2.58,0,3.9,0,6.38-.21l.35,2.87h-.23c-.82-1.66-1.17-2.01-2.36-2.01h-3.3v.06l-.02,.1v5.8h2.38c.47,0,.64-.12,.66-.76h.23v2.19h-.23c-.02-.64-.18-.76-.66-.76h-2.38v6.36c0,.47,.12,.64,.78,.66v.23h-3.53v-.23Z"/>
      <path d="M79.43,19.03c.49-.02,.78-.1,.78-.66V9.52c0-.53-.29-.64-.78-.66v-.23c.76-.12,1.78-.43,2.52-.43h.23v2.11c.33-1.21,1.19-2.21,2.79-2.21,1.07,0,2.05,.47,2.42,1.35l-1.11,1.44c-.08-.78-.64-2.36-1.76-2.36-1.48,0-2.34,2.67-2.34,3.59v6.25c0,.55,.29,.64,.78,.66v.23h-3.53v-.23Z"/>
      <path d="M88.03,19.03c.51-.02,.78-.1,.78-.66V9.58c0-.55-.27-.66-.78-.68v-.21l2.42-.45c.08-.02,.25,0,.33,0v10.13c0,.55,.27,.64,.78,.66v.23h-3.53v-.23Zm1.8-15.2c.78,0,1.27,.49,1.27,1.21,0,.76-.49,1.25-1.27,1.25s-1.29-.49-1.29-1.25c0-.72,.49-1.21,1.29-1.21Z"/>
      <path d="M100.27,10.44c.31,.94-1.03,1.62-1.74,1.72-1.25-.39-1.91-1.72-1.91-3.18v-.25c-1.03-.14-2.26,.41-2.26,1.46,0,2.26,5.8,2.73,5.8,6.28,0,2.21-2.26,3.04-3.96,3.04-1.95,0-3.71-1.09-3.71-2.44,.16-.8,.72-1.6,1.72-1.95-.16,.33-.18,.68-.18,.96,0,1.91,.98,2.77,2.52,2.77,1.35,0,2.13-.72,2.13-1.56,0-2.38-6.01-2.69-6.01-6.34,0-2.17,2.15-2.97,4.04-2.91,.68-2.6,4.43-1.15,4.43-3.53l1.66-.45h.33V14.85c1.66-1.8,3.36-4.14,3.96-5.72,.18-.47-.18-.66-.62-.66v-.23h2.15v.23c-.51-.04-.53,.02-.76,.47-.94,1.85-1.74,3.24-2.73,4.55,2.38,.14,3.42,1,3.42,3.26,0,.62-.08,1.95,.51,2.46,.25,.23-.18,.27-.49,.27-4.18,0-.49-4.98-3.79-5.56-.49,.64-1.05,1.27-1.66,1.89v2.56c0,.47,.12,.64,.76,.66v.23h-3.53v-.23c.66-.02,.78-.18,.78-.66V6.48c-1.39,0-3.83,.21-3.83,1.95,0,1.07,.92,2.21,2.05,2.21,.27,0,.59-.06,.9-.21Z"/>
      <path d="M112.3,12.51c-.92,.31-1.62-1.03-1.72-1.72,.53-1.74,2.26-2.54,3.96-2.54,2.21,0,3.94,1.33,3.94,3.65v7.36c0,1.39,.18,3.83,1.44,3.83,.66,0,1.39-.64,1.39-1.95,0-.37-.06-.7-.21-1,.92-.31,1.62,1.03,1.72,1.74-.39,1.29-1.25,1.91-2.46,1.91-3.3,0-1.25-4.53-3.88-4.53v-2.17c-.82,1.56-1.89,2.4-3.51,2.4-1.85,0-3.01-1.07-3.01-2.56,0-2.83,4.16-3.75,6.52-4.72v-.31c0-1.35-.47-3.16-2.13-3.16-1.5,0-2.26,1.48-2.26,2.77,0,.37,.06,.7,.21,1Zm4.18,.23c-1.93,.9-4.53,1.58-4.53,3.92,0,1.19,.68,1.99,1.6,1.99,1.21,0,2.28-1.29,2.93-2.67v-3.24Z"/>
    </g>
  </g>
</svg>